M48
METRIC,LZ,000.000
;FILE_FORMAT=3:3
;TYPE=PLATED
;Layer: PTH_Through
;EasyEDA v6.5.22, 2024-01-02 20:54:04
;984ccde9b92444d3820f456cd2862b94,da3b0543d5484e77bd98afd5aefff037,10
;Gerber Generator version 0.2
;Holesize 1 = 0.351 mm
T01C0.351
;Holesize 2 = 0.762 mm
T02C0.762
;Holesize 3 = 0.889 mm
T03C0.889
;Holesize 4 = 0.900 mm
T04C0.900
;Holesize 5 = 0.915 mm
T05C0.915
;Holesize 6 = 0.966 mm
T06C0.966
;Holesize 7 = 1.000 mm
T07C1.000
;Holesize 8 = 1.016 mm
T08C1.016
;Holesize 9 = 1.200 mm
T09C1.200
;Holesize 10 = 2.200 mm
T10C2.200
;Holesize 11 = 3.200 mm
T11C3.200
;Holesize 12 = 4.600 mm
T12C4.600
%
G05
G90
T01
X001524Y055880
X002159Y057404
X003810Y058166
X006096Y055880
X005461Y057531
X005334Y054229
X003810Y053594
X002159Y054356
X103124Y055880
X103759Y057404
X105410Y058166
X107696Y055880
X107061Y057531
X106934Y054229
X105410Y053594
X103759Y054356
X103124Y003810
X103759Y005334
X105410Y006096
X107696Y003810
X107061Y005461
X106934Y002159
X105410Y001524
X103759Y002286
X001524Y003810
X002159Y005334
X003810Y006096
X006096Y003810
X005461Y005461
X005334Y002159
X003810Y001524
X002159Y002286
T02
X059055Y042545
X061595Y042545
X064135Y042545
X056515Y042545
X053975Y042545
X051435Y042545
X048895Y042545
X046355Y042545
X046355Y055245
X048895Y055245
X051435Y055245
X053975Y055245
X056515Y055245
X059055Y055245
X061595Y055245
X064135Y055245
X077470Y033020
X074930Y033020
X072390Y033020
X080010Y033020
X082550Y033020
X085090Y033020
X087630Y033020
X090170Y033020
X090170Y020320
X087630Y020320
X085090Y020320
X082550Y020320
X080010Y020320
X077470Y020320
X074930Y020320
X072390Y020320
T03
X066675Y025400
X066675Y027940
X066675Y030480
X066675Y033020
X042545Y025400
X042545Y027940
X042545Y030480
X042545Y033020
X071755Y055245
X074295Y055245
X076835Y055245
T04
X078740Y044450
X078740Y052070
T05
X040005Y045085
X040005Y047625
X070485Y041910
X070485Y044450
X079375Y040005
X079375Y037465
X011430Y002540
X011430Y005080
X011430Y007620
X011430Y010160
X011430Y012700
X011430Y015240
X011430Y017780
X011430Y020320
X011430Y022860
X011430Y025400
X011430Y027940
X011430Y030480
X011430Y033020
X011430Y035560
X011430Y038100
X011430Y040640
X011430Y043180
X011430Y045720
X011430Y048260
X034290Y002540
X034290Y005080
X034290Y007620
X034290Y010160
X034290Y012700
X034290Y015240
X034290Y017780
X034290Y020320
X034290Y022860
X034290Y025400
X034290Y027940
X034290Y030480
X034290Y033020
X034290Y035560
X034290Y038100
X034290Y040640
X034290Y043180
X034290Y045720
X034290Y048260
T06
X081915Y053975
X084455Y053975
T07
X048133Y020447G85X048133Y020447
X050673Y020447G85X050673Y020447
X053213Y020447G85X053213Y020447
X055753Y020447G85X055753Y020447
X058293Y020447G85X058293Y020447
X060833Y020447G85X060833Y020447
X050673Y038227G85X050673Y038227
X053213Y038227G85X053213Y038227
X055753Y038227G85X055753Y038227
X058293Y038227G85X058293Y038227
T08
X059690Y017145
X062230Y017145
X064770Y017145
X067310Y017145
X069850Y017145
X072390Y017145
X074930Y017145
X077470Y017145
X080010Y017145
X082550Y017145
X085090Y017145
X087630Y017145
X087630Y001905
X085090Y001905
X082550Y001905
X080010Y001905
X077470Y001905
X074930Y001905
X072390Y001905
X069850Y001905
X067310Y001905
X064770Y001905
X062230Y001905
X059690Y001905
T09
X051435Y002540
X051435Y005080
X051435Y007620
X051435Y010160
X051435Y012700
X051435Y015240
X041275Y002540
X041275Y005080
X041275Y007620
X041275Y010160
X041275Y012700
X041275Y015240
X088900Y046990
X086360Y046990
X091440Y046990
T10
X096480Y053975
X091480Y053975
T11
X003810Y055880
X105410Y055880
X105410Y003810
X003810Y003810
T12
X104140Y038945
X104140Y046145
X104140Y019895
X104140Y027095
M30
