G04 Layer: InnerLayer2*
G04 EasyEDA v6.5.22, 2024-01-02 20:54:04*
G04 984ccde9b92444d3820f456cd2862b94,da3b0543d5484e77bd98afd5aefff037,10*
G04 Gerber Generator version 0.2*
G04 Scale: 100 percent, Rotated: No, Reflected: No *
G04 Dimensions in millimeters *
G04 leading zeros omitted , absolute positions ,4 integer and 5 decimal *
%FSLAX45Y45*%
%MOMM*%

%AMMACRO1*21,1,$1,$2,0,0,$3*%
%ADD10C,0.2540*%
%ADD11MACRO1,1.5748X1.5748X90.0000*%
%ADD12C,1.5748*%
%ADD13C,6.0000*%
%ADD14C,0.8000*%
%ADD15C,1.5240*%
%ADD16C,3.2000*%
%ADD17R,1.5748X1.5748*%
%ADD18C,1.6510*%
%ADD19C,5.5000*%
%ADD20C,1.8796*%
%ADD21C,1.8000*%
%ADD22R,1.8000X1.8000*%
%ADD23C,1.9304*%
%ADD24O,1.9999959999999999X2.4999949999999997*%
%ADD25MACRO1,2.0015X2.4994X0.0000*%
%ADD26C,0.6096*%
%ADD27C,0.0144*%

%LPD*%
G36*
X9529165Y1460500D02*
G01*
X9525304Y1461262D01*
X9522002Y1463497D01*
X9144711Y1840788D01*
X9142984Y1841500D01*
X7116216Y1841500D01*
X7112304Y1842262D01*
X7109002Y1844497D01*
X6289446Y2664002D01*
X6287262Y2667304D01*
X6286500Y2671216D01*
X6286500Y3935984D01*
X6285788Y3937711D01*
X6096711Y4126788D01*
X6094984Y4127500D01*
X6042660Y4127500D01*
X6038748Y4128262D01*
X6035446Y4130446D01*
X6033262Y4133748D01*
X6032500Y4137660D01*
X6032500Y5932932D01*
X6033262Y5936792D01*
X6035446Y5940094D01*
X6038748Y5942330D01*
X6042660Y5943092D01*
X10540339Y5943092D01*
X10566654Y5942126D01*
X10591850Y5939383D01*
X10616793Y5934862D01*
X10641380Y5928563D01*
X10665409Y5920536D01*
X10688828Y5910834D01*
X10711484Y5899454D01*
X10733227Y5886500D01*
X10754055Y5872022D01*
X10773765Y5856071D01*
X10792307Y5838799D01*
X10809579Y5820206D01*
X10825429Y5800496D01*
X10839856Y5779668D01*
X10852759Y5757824D01*
X10864088Y5735167D01*
X10873790Y5711748D01*
X10881766Y5687669D01*
X10888014Y5663133D01*
X10892485Y5638139D01*
X10895177Y5612942D01*
X10896092Y5587339D01*
X10896092Y1470660D01*
X10895279Y1466748D01*
X10893094Y1463497D01*
X10889792Y1461262D01*
X10885932Y1460500D01*
G37*

%LPC*%
G36*
X9234322Y5483809D02*
G01*
X9312402Y5483809D01*
X9305747Y5495798D01*
X9294977Y5511241D01*
X9282734Y5525566D01*
X9269069Y5538520D01*
X9254185Y5550052D01*
X9238183Y5560009D01*
X9234322Y5561888D01*
G37*
G36*
X7994142Y1930146D02*
G01*
X8007807Y1930146D01*
X8021320Y1931974D01*
X8034477Y1935581D01*
X8047024Y1940864D01*
X8058759Y1947824D01*
X8069478Y1956307D01*
X8078927Y1966061D01*
X8087055Y1977085D01*
X8093608Y1989023D01*
X8098485Y2001774D01*
X8101634Y2015032D01*
X8103006Y2028596D01*
X8102549Y2042210D01*
X8100314Y2055672D01*
X8096250Y2068677D01*
X8090509Y2081072D01*
X8083194Y2092553D01*
X8074355Y2102967D01*
X8064246Y2112111D01*
X8053019Y2119833D01*
X8040827Y2125980D01*
X8027974Y2130450D01*
X8014614Y2133193D01*
X8001000Y2134057D01*
X7987385Y2133193D01*
X7974025Y2130450D01*
X7961122Y2125980D01*
X7948980Y2119833D01*
X7937703Y2112111D01*
X7927594Y2102967D01*
X7918805Y2092553D01*
X7911439Y2081072D01*
X7905699Y2068677D01*
X7901686Y2055672D01*
X7899400Y2042210D01*
X7898942Y2028596D01*
X7900314Y2015032D01*
X7903464Y2001774D01*
X7908391Y1989023D01*
X7914944Y1977085D01*
X7923022Y1966061D01*
X7932521Y1956307D01*
X7943189Y1947824D01*
X7954924Y1940864D01*
X7967522Y1935581D01*
X7980629Y1931974D01*
G37*
G36*
X8502142Y1930146D02*
G01*
X8515807Y1930146D01*
X8529320Y1931974D01*
X8542477Y1935581D01*
X8555024Y1940864D01*
X8566759Y1947824D01*
X8577478Y1956307D01*
X8586927Y1966061D01*
X8595055Y1977085D01*
X8601608Y1989023D01*
X8606485Y2001774D01*
X8609634Y2015032D01*
X8611006Y2028596D01*
X8610549Y2042210D01*
X8608314Y2055672D01*
X8604250Y2068677D01*
X8598509Y2081072D01*
X8591194Y2092553D01*
X8582355Y2102967D01*
X8572246Y2112111D01*
X8561019Y2119833D01*
X8548827Y2125980D01*
X8535974Y2130450D01*
X8522614Y2133193D01*
X8509000Y2134057D01*
X8495385Y2133193D01*
X8482025Y2130450D01*
X8469122Y2125980D01*
X8456980Y2119833D01*
X8445703Y2112111D01*
X8435594Y2102967D01*
X8426805Y2092553D01*
X8419439Y2081072D01*
X8413699Y2068677D01*
X8409686Y2055672D01*
X8407400Y2042210D01*
X8406942Y2028596D01*
X8408314Y2015032D01*
X8411464Y2001774D01*
X8416391Y1989023D01*
X8422944Y1977085D01*
X8431022Y1966061D01*
X8440521Y1956307D01*
X8451189Y1947824D01*
X8462924Y1940864D01*
X8475522Y1935581D01*
X8488629Y1931974D01*
G37*
G36*
X8756142Y1930146D02*
G01*
X8769807Y1930146D01*
X8783320Y1931974D01*
X8796477Y1935581D01*
X8809024Y1940864D01*
X8820759Y1947824D01*
X8831478Y1956307D01*
X8840927Y1966061D01*
X8849055Y1977085D01*
X8855608Y1989023D01*
X8860485Y2001774D01*
X8863634Y2015032D01*
X8865006Y2028596D01*
X8864549Y2042210D01*
X8862314Y2055672D01*
X8858250Y2068677D01*
X8852509Y2081072D01*
X8845194Y2092553D01*
X8836355Y2102967D01*
X8826246Y2112111D01*
X8815019Y2119833D01*
X8802827Y2125980D01*
X8789974Y2130450D01*
X8776614Y2133193D01*
X8763000Y2134057D01*
X8749385Y2133193D01*
X8736025Y2130450D01*
X8723122Y2125980D01*
X8710980Y2119833D01*
X8699703Y2112111D01*
X8689594Y2102967D01*
X8680805Y2092553D01*
X8673439Y2081072D01*
X8667699Y2068677D01*
X8663686Y2055672D01*
X8661400Y2042210D01*
X8660942Y2028596D01*
X8662314Y2015032D01*
X8665464Y2001774D01*
X8670391Y1989023D01*
X8676944Y1977085D01*
X8685022Y1966061D01*
X8694521Y1956307D01*
X8705189Y1947824D01*
X8716924Y1940864D01*
X8729522Y1935581D01*
X8742629Y1931974D01*
G37*
G36*
X7740142Y1930146D02*
G01*
X7753807Y1930146D01*
X7767320Y1931974D01*
X7780477Y1935581D01*
X7793024Y1940864D01*
X7804759Y1947824D01*
X7815478Y1956307D01*
X7824927Y1966061D01*
X7833055Y1977085D01*
X7839608Y1989023D01*
X7844485Y2001774D01*
X7847634Y2015032D01*
X7849006Y2028596D01*
X7848549Y2042210D01*
X7846314Y2055672D01*
X7842250Y2068677D01*
X7836509Y2081072D01*
X7829194Y2092553D01*
X7820355Y2102967D01*
X7810246Y2112111D01*
X7799019Y2119833D01*
X7786827Y2125980D01*
X7773974Y2130450D01*
X7760614Y2133193D01*
X7747000Y2134057D01*
X7733385Y2133193D01*
X7720025Y2130450D01*
X7707122Y2125980D01*
X7694980Y2119833D01*
X7683703Y2112111D01*
X7673594Y2102967D01*
X7664805Y2092553D01*
X7657439Y2081072D01*
X7651699Y2068677D01*
X7647686Y2055672D01*
X7645400Y2042210D01*
X7644942Y2028596D01*
X7646314Y2015032D01*
X7649464Y2001774D01*
X7654391Y1989023D01*
X7660944Y1977085D01*
X7669022Y1966061D01*
X7678521Y1956307D01*
X7689189Y1947824D01*
X7700924Y1940864D01*
X7713522Y1935581D01*
X7726629Y1931974D01*
G37*
G36*
X7232142Y1930146D02*
G01*
X7245807Y1930146D01*
X7259320Y1931974D01*
X7272477Y1935581D01*
X7285024Y1940864D01*
X7296759Y1947824D01*
X7307478Y1956307D01*
X7316927Y1966061D01*
X7325055Y1977085D01*
X7331608Y1989023D01*
X7336485Y2001774D01*
X7339634Y2015032D01*
X7341006Y2028596D01*
X7340549Y2042210D01*
X7338314Y2055672D01*
X7334250Y2068677D01*
X7328509Y2081072D01*
X7321194Y2092553D01*
X7312355Y2102967D01*
X7302246Y2112111D01*
X7291019Y2119833D01*
X7278827Y2125980D01*
X7265974Y2130450D01*
X7252614Y2133193D01*
X7239000Y2134057D01*
X7225385Y2133193D01*
X7212025Y2130450D01*
X7199122Y2125980D01*
X7186980Y2119833D01*
X7175703Y2112111D01*
X7165594Y2102967D01*
X7156805Y2092553D01*
X7149439Y2081072D01*
X7143699Y2068677D01*
X7139686Y2055672D01*
X7137400Y2042210D01*
X7136942Y2028596D01*
X7138314Y2015032D01*
X7141464Y2001774D01*
X7146391Y1989023D01*
X7152944Y1977085D01*
X7161022Y1966061D01*
X7170521Y1956307D01*
X7181189Y1947824D01*
X7192924Y1940864D01*
X7205522Y1935581D01*
X7218629Y1931974D01*
G37*
G36*
X7486142Y1930146D02*
G01*
X7499807Y1930146D01*
X7513320Y1931974D01*
X7526477Y1935581D01*
X7539024Y1940864D01*
X7550759Y1947824D01*
X7561478Y1956307D01*
X7570927Y1966061D01*
X7579055Y1977085D01*
X7585608Y1989023D01*
X7590485Y2001774D01*
X7593634Y2015032D01*
X7595006Y2028596D01*
X7594549Y2042210D01*
X7592314Y2055672D01*
X7588250Y2068677D01*
X7582509Y2081072D01*
X7575194Y2092553D01*
X7566355Y2102967D01*
X7556246Y2112111D01*
X7545019Y2119833D01*
X7532827Y2125980D01*
X7519974Y2130450D01*
X7506614Y2133193D01*
X7493000Y2134057D01*
X7479385Y2133193D01*
X7466025Y2130450D01*
X7453122Y2125980D01*
X7440980Y2119833D01*
X7429703Y2112111D01*
X7419594Y2102967D01*
X7410805Y2092553D01*
X7403439Y2081072D01*
X7397699Y2068677D01*
X7393686Y2055672D01*
X7391400Y2042210D01*
X7390942Y2028596D01*
X7392314Y2015032D01*
X7395464Y2001774D01*
X7400391Y1989023D01*
X7406944Y1977085D01*
X7415022Y1966061D01*
X7424521Y1956307D01*
X7435189Y1947824D01*
X7446924Y1940864D01*
X7459522Y1935581D01*
X7472629Y1931974D01*
G37*
G36*
X8248142Y1930146D02*
G01*
X8261807Y1930146D01*
X8275320Y1931974D01*
X8288477Y1935581D01*
X8301024Y1940864D01*
X8312759Y1947824D01*
X8323478Y1956307D01*
X8332927Y1966061D01*
X8341055Y1977085D01*
X8347608Y1989023D01*
X8352485Y2001774D01*
X8355634Y2015032D01*
X8357006Y2028596D01*
X8356549Y2042210D01*
X8354314Y2055672D01*
X8350250Y2068677D01*
X8344509Y2081072D01*
X8337194Y2092553D01*
X8328355Y2102967D01*
X8318246Y2112111D01*
X8307019Y2119833D01*
X8294827Y2125980D01*
X8281974Y2130450D01*
X8268614Y2133193D01*
X8255000Y2134057D01*
X8241385Y2133193D01*
X8228025Y2130450D01*
X8215122Y2125980D01*
X8202980Y2119833D01*
X8191703Y2112111D01*
X8181594Y2102967D01*
X8172805Y2092553D01*
X8165439Y2081072D01*
X8159699Y2068677D01*
X8155686Y2055672D01*
X8153400Y2042210D01*
X8152942Y2028596D01*
X8154314Y2015032D01*
X8157464Y2001774D01*
X8162391Y1989023D01*
X8168944Y1977085D01*
X8177022Y1966061D01*
X8186521Y1956307D01*
X8197189Y1947824D01*
X8208924Y1940864D01*
X8221522Y1935581D01*
X8234629Y1931974D01*
G37*
G36*
X9010142Y1930146D02*
G01*
X9023807Y1930146D01*
X9037320Y1931974D01*
X9050477Y1935581D01*
X9063024Y1940864D01*
X9074759Y1947824D01*
X9085478Y1956307D01*
X9094927Y1966061D01*
X9103055Y1977085D01*
X9109608Y1989023D01*
X9114485Y2001774D01*
X9117634Y2015032D01*
X9119006Y2028596D01*
X9118549Y2042210D01*
X9116314Y2055672D01*
X9112250Y2068677D01*
X9106509Y2081072D01*
X9099194Y2092553D01*
X9090355Y2102967D01*
X9080246Y2112111D01*
X9069019Y2119833D01*
X9056827Y2125980D01*
X9043974Y2130450D01*
X9030614Y2133193D01*
X9017000Y2134057D01*
X9003385Y2133193D01*
X8990025Y2130450D01*
X8977122Y2125980D01*
X8964980Y2119833D01*
X8953703Y2112111D01*
X8943594Y2102967D01*
X8934805Y2092553D01*
X8927439Y2081072D01*
X8921699Y2068677D01*
X8917686Y2055672D01*
X8915400Y2042210D01*
X8914942Y2028596D01*
X8916314Y2015032D01*
X8919464Y2001774D01*
X8924391Y1989023D01*
X8930944Y1977085D01*
X8939022Y1966061D01*
X8948521Y1956307D01*
X8959189Y1947824D01*
X8970924Y1940864D01*
X8983522Y1935581D01*
X8996629Y1931974D01*
G37*
G36*
X10414000Y2408580D02*
G01*
X10438180Y2409545D01*
X10462260Y2412492D01*
X10485983Y2417318D01*
X10509250Y2424074D01*
X10531906Y2432659D01*
X10553801Y2443073D01*
X10574782Y2455164D01*
X10594746Y2468930D01*
X10613491Y2484272D01*
X10630966Y2501036D01*
X10647070Y2519172D01*
X10661599Y2538577D01*
X10674553Y2559050D01*
X10685830Y2580487D01*
X10695330Y2602788D01*
X10703001Y2625750D01*
X10708792Y2649321D01*
X10712704Y2673197D01*
X10714634Y2697378D01*
X10714634Y2721610D01*
X10712704Y2745740D01*
X10708792Y2769666D01*
X10703001Y2793187D01*
X10695330Y2816199D01*
X10685830Y2838500D01*
X10674553Y2859938D01*
X10661599Y2880410D01*
X10647070Y2899816D01*
X10630966Y2917952D01*
X10613491Y2934716D01*
X10594746Y2950057D01*
X10574782Y2963824D01*
X10553801Y2975914D01*
X10531906Y2986328D01*
X10509250Y2994914D01*
X10485983Y3001619D01*
X10462260Y3006496D01*
X10438180Y3009392D01*
X10414000Y3010408D01*
X10389768Y3009392D01*
X10365689Y3006496D01*
X10341965Y3001619D01*
X10318699Y2994914D01*
X10296042Y2986328D01*
X10274147Y2975914D01*
X10253167Y2963824D01*
X10233202Y2950057D01*
X10214457Y2934716D01*
X10196982Y2917952D01*
X10180878Y2899816D01*
X10166350Y2880410D01*
X10153396Y2859938D01*
X10142118Y2838500D01*
X10132618Y2816199D01*
X10124948Y2793187D01*
X10119156Y2769666D01*
X10115296Y2745740D01*
X10113314Y2721610D01*
X10113314Y2697378D01*
X10115296Y2673197D01*
X10119156Y2649321D01*
X10124948Y2625750D01*
X10132618Y2602788D01*
X10142118Y2580487D01*
X10153396Y2559050D01*
X10166350Y2538577D01*
X10180878Y2519172D01*
X10196982Y2501036D01*
X10214457Y2484272D01*
X10233202Y2468930D01*
X10253167Y2455164D01*
X10274147Y2443073D01*
X10296042Y2432659D01*
X10318699Y2424074D01*
X10341965Y2417318D01*
X10365689Y2412492D01*
X10389768Y2409545D01*
G37*
G36*
X6589318Y2435352D02*
G01*
X6745681Y2435352D01*
X6751980Y2436063D01*
X6757416Y2437993D01*
X6762343Y2441041D01*
X6766407Y2445156D01*
X6769506Y2450033D01*
X6771436Y2455519D01*
X6772148Y2461818D01*
X6772148Y2618181D01*
X6771436Y2624480D01*
X6769506Y2629966D01*
X6766407Y2634843D01*
X6762343Y2638958D01*
X6757416Y2642006D01*
X6751980Y2643936D01*
X6745681Y2644648D01*
X6589318Y2644648D01*
X6583019Y2643936D01*
X6577533Y2642006D01*
X6572656Y2638958D01*
X6568541Y2634843D01*
X6565442Y2629966D01*
X6563563Y2624480D01*
X6562852Y2618181D01*
X6562852Y2461818D01*
X6563563Y2455519D01*
X6565442Y2450033D01*
X6568541Y2445156D01*
X6572656Y2441041D01*
X6577533Y2437993D01*
X6583019Y2436063D01*
G37*
G36*
X6667500Y2689352D02*
G01*
X6681165Y2690266D01*
X6694576Y2692958D01*
X6707530Y2697327D01*
X6719824Y2703372D01*
X6731203Y2710992D01*
X6741464Y2720035D01*
X6750507Y2730296D01*
X6758076Y2741676D01*
X6764172Y2753969D01*
X6768541Y2766923D01*
X6771233Y2780334D01*
X6772097Y2794000D01*
X6771233Y2807665D01*
X6768541Y2821076D01*
X6764172Y2834030D01*
X6758076Y2846324D01*
X6750507Y2857703D01*
X6741464Y2867964D01*
X6731203Y2877007D01*
X6719824Y2884627D01*
X6707530Y2890672D01*
X6694576Y2895041D01*
X6681165Y2897733D01*
X6667500Y2898597D01*
X6653834Y2897733D01*
X6640423Y2895041D01*
X6627469Y2890672D01*
X6615175Y2884627D01*
X6603796Y2877007D01*
X6593484Y2867964D01*
X6584492Y2857703D01*
X6576872Y2846324D01*
X6570827Y2834030D01*
X6566408Y2821076D01*
X6563766Y2807665D01*
X6562852Y2794000D01*
X6563766Y2780334D01*
X6566408Y2766923D01*
X6570827Y2753969D01*
X6576872Y2741676D01*
X6584492Y2730296D01*
X6593484Y2720035D01*
X6603796Y2710992D01*
X6615175Y2703372D01*
X6627469Y2697327D01*
X6640423Y2692958D01*
X6653834Y2690266D01*
G37*
G36*
X6667500Y2943352D02*
G01*
X6681165Y2944266D01*
X6694576Y2946958D01*
X6707530Y2951327D01*
X6719824Y2957372D01*
X6731203Y2964992D01*
X6741464Y2974035D01*
X6750507Y2984296D01*
X6758076Y2995676D01*
X6764172Y3007969D01*
X6768541Y3020923D01*
X6771233Y3034334D01*
X6772097Y3048000D01*
X6771233Y3061665D01*
X6768541Y3075076D01*
X6764172Y3088030D01*
X6758076Y3100324D01*
X6750507Y3111703D01*
X6741464Y3121964D01*
X6731203Y3131007D01*
X6719824Y3138627D01*
X6707530Y3144672D01*
X6694576Y3149041D01*
X6681165Y3151733D01*
X6667500Y3152597D01*
X6653834Y3151733D01*
X6640423Y3149041D01*
X6627469Y3144672D01*
X6615175Y3138627D01*
X6603796Y3131007D01*
X6593484Y3121964D01*
X6584492Y3111703D01*
X6576872Y3100324D01*
X6570827Y3088030D01*
X6566408Y3075076D01*
X6563766Y3061665D01*
X6562852Y3048000D01*
X6563766Y3034334D01*
X6566408Y3020923D01*
X6570827Y3007969D01*
X6576872Y2995676D01*
X6584492Y2984296D01*
X6593484Y2974035D01*
X6603796Y2964992D01*
X6615175Y2957372D01*
X6627469Y2951327D01*
X6640423Y2946958D01*
X6653834Y2944266D01*
G37*
G36*
X6667500Y3197352D02*
G01*
X6681165Y3198266D01*
X6694576Y3200958D01*
X6707530Y3205327D01*
X6719824Y3211372D01*
X6731203Y3218992D01*
X6741464Y3228035D01*
X6750507Y3238296D01*
X6758076Y3249676D01*
X6764172Y3261969D01*
X6768541Y3274923D01*
X6771233Y3288334D01*
X6772097Y3302000D01*
X6771233Y3315665D01*
X6768541Y3329076D01*
X6764172Y3342030D01*
X6758076Y3354324D01*
X6750507Y3365703D01*
X6741464Y3375964D01*
X6731203Y3385007D01*
X6719824Y3392627D01*
X6707530Y3398672D01*
X6694576Y3403041D01*
X6681165Y3405733D01*
X6667500Y3406597D01*
X6653834Y3405733D01*
X6640423Y3403041D01*
X6627469Y3398672D01*
X6615175Y3392627D01*
X6603796Y3385007D01*
X6593484Y3375964D01*
X6584492Y3365703D01*
X6576872Y3354324D01*
X6570827Y3342030D01*
X6566408Y3329076D01*
X6563766Y3315665D01*
X6562852Y3302000D01*
X6563766Y3288334D01*
X6566408Y3274923D01*
X6570827Y3261969D01*
X6576872Y3249676D01*
X6584492Y3238296D01*
X6593484Y3228035D01*
X6603796Y3218992D01*
X6615175Y3211372D01*
X6627469Y3205327D01*
X6640423Y3200958D01*
X6653834Y3198266D01*
G37*
G36*
X7740142Y3200146D02*
G01*
X7753807Y3200146D01*
X7767320Y3201974D01*
X7780477Y3205581D01*
X7793024Y3210864D01*
X7804759Y3217824D01*
X7815478Y3226308D01*
X7824927Y3236061D01*
X7833055Y3247085D01*
X7839608Y3259023D01*
X7844485Y3271774D01*
X7847634Y3285032D01*
X7849006Y3298596D01*
X7848549Y3312210D01*
X7846314Y3325672D01*
X7842250Y3338677D01*
X7836509Y3351072D01*
X7829194Y3362553D01*
X7820355Y3372967D01*
X7810246Y3382111D01*
X7799019Y3389833D01*
X7786827Y3395979D01*
X7773974Y3400450D01*
X7760614Y3403193D01*
X7747000Y3404057D01*
X7733385Y3403193D01*
X7720025Y3400450D01*
X7707122Y3395979D01*
X7694980Y3389833D01*
X7683703Y3382111D01*
X7673594Y3372967D01*
X7664805Y3362553D01*
X7657439Y3351072D01*
X7651699Y3338677D01*
X7647686Y3325672D01*
X7645400Y3312210D01*
X7644942Y3298596D01*
X7646314Y3285032D01*
X7649464Y3271774D01*
X7654391Y3259023D01*
X7660944Y3247085D01*
X7669022Y3236061D01*
X7678521Y3226308D01*
X7689189Y3217824D01*
X7700924Y3210864D01*
X7713522Y3205581D01*
X7726629Y3201974D01*
G37*
G36*
X7994142Y3200146D02*
G01*
X8007807Y3200146D01*
X8021320Y3201974D01*
X8034477Y3205581D01*
X8047024Y3210864D01*
X8058759Y3217824D01*
X8069478Y3226308D01*
X8078927Y3236061D01*
X8087055Y3247085D01*
X8093608Y3259023D01*
X8098485Y3271774D01*
X8101634Y3285032D01*
X8103006Y3298596D01*
X8102549Y3312210D01*
X8100314Y3325672D01*
X8096250Y3338677D01*
X8090509Y3351072D01*
X8083194Y3362553D01*
X8074355Y3372967D01*
X8064246Y3382111D01*
X8053019Y3389833D01*
X8040827Y3395979D01*
X8027974Y3400450D01*
X8014614Y3403193D01*
X8001000Y3404057D01*
X7987385Y3403193D01*
X7974025Y3400450D01*
X7961122Y3395979D01*
X7948980Y3389833D01*
X7937703Y3382111D01*
X7927594Y3372967D01*
X7918805Y3362553D01*
X7911439Y3351072D01*
X7905699Y3338677D01*
X7901686Y3325672D01*
X7899400Y3312210D01*
X7898942Y3298596D01*
X7900314Y3285032D01*
X7903464Y3271774D01*
X7908391Y3259023D01*
X7914944Y3247085D01*
X7923022Y3236061D01*
X7932521Y3226308D01*
X7943189Y3217824D01*
X7954924Y3210864D01*
X7967522Y3205581D01*
X7980629Y3201974D01*
G37*
G36*
X9010142Y3200146D02*
G01*
X9023807Y3200146D01*
X9037320Y3201974D01*
X9050477Y3205581D01*
X9063024Y3210864D01*
X9074759Y3217824D01*
X9085478Y3226308D01*
X9094927Y3236061D01*
X9103055Y3247085D01*
X9109608Y3259023D01*
X9114485Y3271774D01*
X9117634Y3285032D01*
X9119006Y3298596D01*
X9118549Y3312210D01*
X9116314Y3325672D01*
X9112250Y3338677D01*
X9106509Y3351072D01*
X9099194Y3362553D01*
X9090355Y3372967D01*
X9080246Y3382111D01*
X9069019Y3389833D01*
X9056827Y3395979D01*
X9043974Y3400450D01*
X9030614Y3403193D01*
X9017000Y3404057D01*
X9003385Y3403193D01*
X8990025Y3400450D01*
X8977122Y3395979D01*
X8964980Y3389833D01*
X8953703Y3382111D01*
X8943594Y3372967D01*
X8934805Y3362553D01*
X8927439Y3351072D01*
X8921699Y3338677D01*
X8917686Y3325672D01*
X8915400Y3312210D01*
X8914942Y3298596D01*
X8916314Y3285032D01*
X8919464Y3271774D01*
X8924391Y3259023D01*
X8930944Y3247085D01*
X8939022Y3236061D01*
X8948521Y3226308D01*
X8959189Y3217824D01*
X8970924Y3210864D01*
X8983522Y3205581D01*
X8996629Y3201974D01*
G37*
G36*
X8248142Y3200146D02*
G01*
X8261807Y3200146D01*
X8275320Y3201974D01*
X8288477Y3205581D01*
X8301024Y3210864D01*
X8312759Y3217824D01*
X8323478Y3226308D01*
X8332927Y3236061D01*
X8341055Y3247085D01*
X8347608Y3259023D01*
X8352485Y3271774D01*
X8355634Y3285032D01*
X8357006Y3298596D01*
X8356549Y3312210D01*
X8354314Y3325672D01*
X8350250Y3338677D01*
X8344509Y3351072D01*
X8337194Y3362553D01*
X8328355Y3372967D01*
X8318246Y3382111D01*
X8307019Y3389833D01*
X8294827Y3395979D01*
X8281974Y3400450D01*
X8268614Y3403193D01*
X8255000Y3404057D01*
X8241385Y3403193D01*
X8228025Y3400450D01*
X8215122Y3395979D01*
X8202980Y3389833D01*
X8191703Y3382111D01*
X8181594Y3372967D01*
X8172805Y3362553D01*
X8165439Y3351072D01*
X8159699Y3338677D01*
X8155686Y3325672D01*
X8153400Y3312210D01*
X8152942Y3298596D01*
X8154314Y3285032D01*
X8157464Y3271774D01*
X8162391Y3259023D01*
X8168944Y3247085D01*
X8177022Y3236061D01*
X8186521Y3226308D01*
X8197189Y3217824D01*
X8208924Y3210864D01*
X8221522Y3205581D01*
X8234629Y3201974D01*
G37*
G36*
X8502142Y3200146D02*
G01*
X8515807Y3200146D01*
X8529320Y3201974D01*
X8542477Y3205581D01*
X8555024Y3210864D01*
X8566759Y3217824D01*
X8577478Y3226308D01*
X8586927Y3236061D01*
X8595055Y3247085D01*
X8601608Y3259023D01*
X8606485Y3271774D01*
X8609634Y3285032D01*
X8611006Y3298596D01*
X8610549Y3312210D01*
X8608314Y3325672D01*
X8604250Y3338677D01*
X8598509Y3351072D01*
X8591194Y3362553D01*
X8582355Y3372967D01*
X8572246Y3382111D01*
X8561019Y3389833D01*
X8548827Y3395979D01*
X8535974Y3400450D01*
X8522614Y3403193D01*
X8509000Y3404057D01*
X8495385Y3403193D01*
X8482025Y3400450D01*
X8469122Y3395979D01*
X8456980Y3389833D01*
X8445703Y3382111D01*
X8435594Y3372967D01*
X8426805Y3362553D01*
X8419439Y3351072D01*
X8413699Y3338677D01*
X8409686Y3325672D01*
X8407400Y3312210D01*
X8406942Y3298596D01*
X8408314Y3285032D01*
X8411464Y3271774D01*
X8416391Y3259023D01*
X8422944Y3247085D01*
X8431022Y3236061D01*
X8440521Y3226308D01*
X8451189Y3217824D01*
X8462924Y3210864D01*
X8475522Y3205581D01*
X8488629Y3201974D01*
G37*
G36*
X7486142Y3200146D02*
G01*
X7499807Y3200146D01*
X7513320Y3201974D01*
X7526477Y3205581D01*
X7539024Y3210864D01*
X7550759Y3217824D01*
X7561478Y3226308D01*
X7570927Y3236061D01*
X7579055Y3247085D01*
X7585608Y3259023D01*
X7590485Y3271774D01*
X7593634Y3285032D01*
X7595006Y3298596D01*
X7594549Y3312210D01*
X7592314Y3325672D01*
X7588250Y3338677D01*
X7582509Y3351072D01*
X7575194Y3362553D01*
X7566355Y3372967D01*
X7556246Y3382111D01*
X7545019Y3389833D01*
X7532827Y3395979D01*
X7519974Y3400450D01*
X7506614Y3403193D01*
X7493000Y3404057D01*
X7479385Y3403193D01*
X7466025Y3400450D01*
X7453122Y3395979D01*
X7440980Y3389833D01*
X7429703Y3382111D01*
X7419594Y3372967D01*
X7410805Y3362553D01*
X7403439Y3351072D01*
X7397699Y3338677D01*
X7393686Y3325672D01*
X7391400Y3312210D01*
X7390942Y3298596D01*
X7392314Y3285032D01*
X7395464Y3271774D01*
X7400391Y3259023D01*
X7406944Y3247085D01*
X7415022Y3236061D01*
X7424521Y3226308D01*
X7435189Y3217824D01*
X7446924Y3210864D01*
X7459522Y3205581D01*
X7472629Y3201974D01*
G37*
G36*
X8756142Y3200146D02*
G01*
X8769807Y3200146D01*
X8783320Y3201974D01*
X8796477Y3205581D01*
X8809024Y3210864D01*
X8820759Y3217824D01*
X8831478Y3226308D01*
X8840927Y3236061D01*
X8849055Y3247085D01*
X8855608Y3259023D01*
X8860485Y3271774D01*
X8863634Y3285032D01*
X8865006Y3298596D01*
X8864549Y3312210D01*
X8862314Y3325672D01*
X8858250Y3338677D01*
X8852509Y3351072D01*
X8845194Y3362553D01*
X8836355Y3372967D01*
X8826246Y3382111D01*
X8815019Y3389833D01*
X8802827Y3395979D01*
X8789974Y3400450D01*
X8776614Y3403193D01*
X8763000Y3404057D01*
X8749385Y3403193D01*
X8736025Y3400450D01*
X8723122Y3395979D01*
X8710980Y3389833D01*
X8699703Y3382111D01*
X8689594Y3372967D01*
X8680805Y3362553D01*
X8673439Y3351072D01*
X8667699Y3338677D01*
X8663686Y3325672D01*
X8661400Y3312210D01*
X8660942Y3298596D01*
X8662314Y3285032D01*
X8665464Y3271774D01*
X8670391Y3259023D01*
X8676944Y3247085D01*
X8685022Y3236061D01*
X8694521Y3226308D01*
X8705189Y3217824D01*
X8716924Y3210864D01*
X8729522Y3205581D01*
X8742629Y3201974D01*
G37*
G36*
X7283450Y3210204D02*
G01*
X7285024Y3210864D01*
X7296759Y3217824D01*
X7307478Y3226308D01*
X7316927Y3236061D01*
X7325055Y3247085D01*
X7330795Y3257550D01*
X7283450Y3257550D01*
G37*
G36*
X7194550Y3210204D02*
G01*
X7194550Y3257550D01*
X7147204Y3257550D01*
X7152944Y3247085D01*
X7161022Y3236061D01*
X7170521Y3226308D01*
X7181189Y3217824D01*
X7192924Y3210864D01*
G37*
G36*
X7147306Y3346450D02*
G01*
X7194550Y3346450D01*
X7194550Y3393643D01*
X7186980Y3389833D01*
X7175703Y3382111D01*
X7165594Y3372967D01*
X7156805Y3362553D01*
X7149439Y3351072D01*
G37*
G36*
X7283450Y3346450D02*
G01*
X7330643Y3346450D01*
X7328509Y3351072D01*
X7321194Y3362553D01*
X7312355Y3372967D01*
X7302246Y3382111D01*
X7291019Y3389833D01*
X7283450Y3393643D01*
G37*
G36*
X6527800Y3568192D02*
G01*
X6543192Y3569157D01*
X6558330Y3571900D01*
X6573012Y3576472D01*
X6587032Y3582822D01*
X6600240Y3590798D01*
X6612331Y3600297D01*
X6623202Y3611168D01*
X6632702Y3623259D01*
X6640677Y3636467D01*
X6647027Y3650487D01*
X6651599Y3665169D01*
X6654342Y3680307D01*
X6655308Y3695700D01*
X6654342Y3711092D01*
X6651599Y3726230D01*
X6647027Y3740912D01*
X6640677Y3754932D01*
X6632702Y3768140D01*
X6623202Y3780231D01*
X6612331Y3791102D01*
X6600240Y3800601D01*
X6587032Y3808577D01*
X6573012Y3814927D01*
X6558330Y3819499D01*
X6543192Y3822242D01*
X6527800Y3823208D01*
X6512407Y3822242D01*
X6497269Y3819499D01*
X6482588Y3814927D01*
X6468567Y3808577D01*
X6455359Y3800601D01*
X6443268Y3791102D01*
X6432397Y3780231D01*
X6422898Y3768140D01*
X6414922Y3754932D01*
X6408572Y3740912D01*
X6404000Y3726230D01*
X6401257Y3711092D01*
X6400292Y3695700D01*
X6401257Y3680307D01*
X6404000Y3665169D01*
X6408572Y3650487D01*
X6414922Y3636467D01*
X6422898Y3623259D01*
X6432397Y3611168D01*
X6443268Y3600297D01*
X6455359Y3590798D01*
X6468567Y3582822D01*
X6482588Y3576472D01*
X6497269Y3571900D01*
X6512407Y3569157D01*
G37*
G36*
X10414000Y3593592D02*
G01*
X10438180Y3594557D01*
X10462260Y3597503D01*
X10485983Y3602329D01*
X10509250Y3609086D01*
X10531906Y3617671D01*
X10553801Y3628034D01*
X10574782Y3640175D01*
X10594746Y3653942D01*
X10613491Y3669284D01*
X10630966Y3686048D01*
X10647070Y3704183D01*
X10661599Y3723538D01*
X10674553Y3744010D01*
X10685830Y3765499D01*
X10695330Y3787800D01*
X10703001Y3810762D01*
X10708792Y3834282D01*
X10712704Y3858209D01*
X10714634Y3882390D01*
X10714634Y3906621D01*
X10712704Y3930751D01*
X10708792Y3954678D01*
X10703001Y3978198D01*
X10695330Y4001160D01*
X10685830Y4023461D01*
X10674553Y4044950D01*
X10661599Y4065422D01*
X10647070Y4084777D01*
X10630966Y4102912D01*
X10613491Y4119727D01*
X10594746Y4135018D01*
X10574782Y4148785D01*
X10553801Y4160926D01*
X10531906Y4171289D01*
X10509250Y4179874D01*
X10485983Y4186631D01*
X10462260Y4191508D01*
X10438180Y4194403D01*
X10414000Y4195368D01*
X10389768Y4194403D01*
X10365689Y4191508D01*
X10341965Y4186631D01*
X10318699Y4179874D01*
X10296042Y4171289D01*
X10274147Y4160926D01*
X10253167Y4148785D01*
X10233202Y4135018D01*
X10214457Y4119727D01*
X10196982Y4102912D01*
X10180878Y4084777D01*
X10166350Y4065422D01*
X10153396Y4044950D01*
X10142118Y4023461D01*
X10132618Y4001160D01*
X10124948Y3978198D01*
X10119156Y3954678D01*
X10115296Y3930751D01*
X10113314Y3906621D01*
X10113314Y3882390D01*
X10115296Y3858209D01*
X10119156Y3834282D01*
X10124948Y3810762D01*
X10132618Y3787800D01*
X10142118Y3765499D01*
X10153396Y3744010D01*
X10166350Y3723538D01*
X10180878Y3704183D01*
X10196982Y3686048D01*
X10214457Y3669284D01*
X10233202Y3653942D01*
X10253167Y3640175D01*
X10274147Y3628034D01*
X10296042Y3617671D01*
X10318699Y3609086D01*
X10341965Y3602329D01*
X10365689Y3597503D01*
X10389768Y3594557D01*
G37*
G36*
X7937500Y3644392D02*
G01*
X7951114Y3645306D01*
X7964474Y3648049D01*
X7977327Y3652520D01*
X7989519Y3658666D01*
X8000746Y3666388D01*
X8010855Y3675532D01*
X8019694Y3685946D01*
X8027009Y3697427D01*
X8032750Y3709822D01*
X8036814Y3722827D01*
X8039049Y3736289D01*
X8039506Y3749903D01*
X8038134Y3763467D01*
X8034985Y3776726D01*
X8030108Y3789476D01*
X8023555Y3801414D01*
X8015427Y3812387D01*
X8005978Y3822192D01*
X7995259Y3830675D01*
X7983524Y3837584D01*
X7970977Y3842918D01*
X7957820Y3846525D01*
X7944307Y3848354D01*
X7930642Y3848354D01*
X7917129Y3846525D01*
X7904022Y3842918D01*
X7891424Y3837584D01*
X7879689Y3830675D01*
X7869021Y3822192D01*
X7859522Y3812387D01*
X7851444Y3801414D01*
X7844891Y3789476D01*
X7839964Y3776726D01*
X7836814Y3763467D01*
X7835442Y3749903D01*
X7835900Y3736289D01*
X7838186Y3722827D01*
X7842199Y3709822D01*
X7847939Y3697427D01*
X7855305Y3685946D01*
X7864094Y3675532D01*
X7874203Y3666388D01*
X7885480Y3658666D01*
X7897622Y3652520D01*
X7910525Y3648049D01*
X7923885Y3645306D01*
G37*
G36*
X7981950Y3908806D02*
G01*
X7989519Y3912666D01*
X8000746Y3920388D01*
X8010855Y3929532D01*
X8019694Y3939946D01*
X8027009Y3951427D01*
X8029143Y3956050D01*
X7981950Y3956050D01*
G37*
G36*
X7893050Y3908806D02*
G01*
X7893050Y3956050D01*
X7845806Y3956050D01*
X7847939Y3951427D01*
X7855305Y3939946D01*
X7864094Y3929532D01*
X7874203Y3920388D01*
X7885480Y3912666D01*
G37*
G36*
X7981950Y4044950D02*
G01*
X8029295Y4044950D01*
X8023555Y4055414D01*
X8015427Y4066387D01*
X8005978Y4076192D01*
X7995259Y4084675D01*
X7983524Y4091584D01*
X7981950Y4092295D01*
G37*
G36*
X7845704Y4044950D02*
G01*
X7893050Y4044950D01*
X7893050Y4092295D01*
X7891424Y4091584D01*
X7879689Y4084675D01*
X7869021Y4076192D01*
X7859522Y4066387D01*
X7851444Y4055414D01*
G37*
G36*
X10414000Y1688592D02*
G01*
X10438180Y1689557D01*
X10462260Y1692503D01*
X10485983Y1697329D01*
X10509250Y1704086D01*
X10531906Y1712671D01*
X10553801Y1723034D01*
X10574782Y1735175D01*
X10594746Y1748942D01*
X10613491Y1764284D01*
X10630966Y1781048D01*
X10647070Y1799183D01*
X10661599Y1818538D01*
X10674553Y1839061D01*
X10685830Y1860499D01*
X10695330Y1882800D01*
X10703001Y1905762D01*
X10708792Y1929282D01*
X10712704Y1953209D01*
X10714634Y1977389D01*
X10714634Y2001621D01*
X10712704Y2025751D01*
X10708792Y2049678D01*
X10703001Y2073198D01*
X10695330Y2096211D01*
X10685830Y2118461D01*
X10674553Y2139950D01*
X10661599Y2160422D01*
X10647070Y2179777D01*
X10630966Y2197912D01*
X10613491Y2214727D01*
X10594746Y2230018D01*
X10574782Y2243785D01*
X10553801Y2255926D01*
X10531906Y2266289D01*
X10509250Y2274925D01*
X10485983Y2281631D01*
X10462260Y2286508D01*
X10438180Y2289403D01*
X10414000Y2290368D01*
X10389768Y2289403D01*
X10365689Y2286508D01*
X10341965Y2281631D01*
X10318699Y2274925D01*
X10296042Y2266289D01*
X10274147Y2255926D01*
X10253167Y2243785D01*
X10233202Y2230018D01*
X10214457Y2214727D01*
X10196982Y2197912D01*
X10180878Y2179777D01*
X10166350Y2160422D01*
X10153396Y2139950D01*
X10142118Y2118461D01*
X10132618Y2096211D01*
X10124948Y2073198D01*
X10119156Y2049678D01*
X10115296Y2025751D01*
X10113314Y2001621D01*
X10113314Y1977389D01*
X10115296Y1953209D01*
X10119156Y1929282D01*
X10124948Y1905762D01*
X10132618Y1882800D01*
X10142118Y1860499D01*
X10153396Y1839061D01*
X10166350Y1818538D01*
X10180878Y1799183D01*
X10196982Y1781048D01*
X10214457Y1764284D01*
X10233202Y1748942D01*
X10253167Y1735175D01*
X10274147Y1723034D01*
X10296042Y1712671D01*
X10318699Y1704086D01*
X10341965Y1697329D01*
X10365689Y1692503D01*
X10389768Y1689557D01*
G37*
G36*
X7004050Y4099204D02*
G01*
X7004050Y4146550D01*
X6956704Y4146550D01*
X6962444Y4136085D01*
X6970522Y4125061D01*
X6980021Y4115257D01*
X6990689Y4106824D01*
X7002424Y4099864D01*
G37*
G36*
X6159500Y4152392D02*
G01*
X6173114Y4153306D01*
X6186474Y4156049D01*
X6199378Y4160520D01*
X6211519Y4166666D01*
X6222746Y4174388D01*
X6232906Y4183532D01*
X6241694Y4193946D01*
X6249009Y4205427D01*
X6254750Y4217822D01*
X6258814Y4230827D01*
X6261049Y4244289D01*
X6261506Y4257903D01*
X6260185Y4271467D01*
X6256985Y4284726D01*
X6252108Y4297476D01*
X6245555Y4309414D01*
X6237478Y4320387D01*
X6227978Y4330192D01*
X6217259Y4338675D01*
X6205524Y4345635D01*
X6192977Y4350918D01*
X6179820Y4354525D01*
X6166307Y4356354D01*
X6152692Y4356354D01*
X6139180Y4354525D01*
X6126022Y4350918D01*
X6113475Y4345635D01*
X6101740Y4338675D01*
X6091021Y4330192D01*
X6081522Y4320387D01*
X6073444Y4309414D01*
X6066891Y4297476D01*
X6062014Y4284726D01*
X6058814Y4271467D01*
X6057493Y4257903D01*
X6057950Y4244289D01*
X6060186Y4230827D01*
X6064250Y4217822D01*
X6069990Y4205427D01*
X6077305Y4193946D01*
X6086094Y4183532D01*
X6096254Y4174388D01*
X6107480Y4166666D01*
X6119622Y4160520D01*
X6132525Y4156049D01*
X6145885Y4153306D01*
G37*
G36*
X6369050Y4162856D02*
G01*
X6369050Y4210050D01*
X6321856Y4210050D01*
X6323990Y4205427D01*
X6331305Y4193946D01*
X6340094Y4183532D01*
X6350254Y4174388D01*
X6361480Y4166666D01*
G37*
G36*
X6457950Y4162856D02*
G01*
X6465519Y4166666D01*
X6476746Y4174388D01*
X6486906Y4183532D01*
X6495694Y4193946D01*
X6503009Y4205427D01*
X6505143Y4210050D01*
X6457950Y4210050D01*
G37*
G36*
X6956806Y4235450D02*
G01*
X7004050Y4235450D01*
X7004050Y4282643D01*
X6996480Y4278833D01*
X6985203Y4271111D01*
X6975094Y4261967D01*
X6966305Y4251553D01*
X6958939Y4240072D01*
G37*
G36*
X7092950Y4235450D02*
G01*
X7140143Y4235450D01*
X7138009Y4240072D01*
X7130694Y4251553D01*
X7121855Y4261967D01*
X7111746Y4271111D01*
X7100519Y4278833D01*
X7092950Y4282643D01*
G37*
G36*
X6321704Y4298950D02*
G01*
X6369050Y4298950D01*
X6369050Y4346295D01*
X6367475Y4345635D01*
X6355740Y4338675D01*
X6345021Y4330192D01*
X6335522Y4320387D01*
X6327444Y4309414D01*
G37*
G36*
X6457950Y4298950D02*
G01*
X6505295Y4298950D01*
X6499555Y4309414D01*
X6491478Y4320387D01*
X6481978Y4330192D01*
X6471259Y4338675D01*
X6459524Y4345635D01*
X6457950Y4346295D01*
G37*
G36*
X10414000Y4313580D02*
G01*
X10438180Y4314545D01*
X10462260Y4317492D01*
X10485983Y4322318D01*
X10509250Y4329074D01*
X10531906Y4337659D01*
X10553801Y4348073D01*
X10574782Y4360164D01*
X10594746Y4373930D01*
X10613491Y4389272D01*
X10630966Y4406036D01*
X10647070Y4424172D01*
X10661599Y4443577D01*
X10674553Y4464050D01*
X10685830Y4485487D01*
X10695330Y4507788D01*
X10703001Y4530750D01*
X10708792Y4554321D01*
X10712704Y4578197D01*
X10714634Y4602378D01*
X10714634Y4626610D01*
X10712704Y4650740D01*
X10708792Y4674666D01*
X10703001Y4698187D01*
X10695330Y4721199D01*
X10685830Y4743500D01*
X10674553Y4764938D01*
X10661599Y4785410D01*
X10647070Y4804765D01*
X10630966Y4822952D01*
X10613491Y4839716D01*
X10594746Y4855057D01*
X10574782Y4868824D01*
X10553801Y4880914D01*
X10531906Y4891328D01*
X10509250Y4899914D01*
X10485983Y4906619D01*
X10462260Y4911496D01*
X10438180Y4914392D01*
X10414000Y4915408D01*
X10389768Y4914392D01*
X10365689Y4911496D01*
X10341965Y4906619D01*
X10318699Y4899914D01*
X10296042Y4891328D01*
X10274147Y4880914D01*
X10253167Y4868824D01*
X10233202Y4855057D01*
X10214457Y4839716D01*
X10196982Y4822952D01*
X10180878Y4804765D01*
X10166350Y4785410D01*
X10153396Y4764938D01*
X10142118Y4743500D01*
X10132618Y4721199D01*
X10124948Y4698187D01*
X10119156Y4674666D01*
X10115296Y4650740D01*
X10113314Y4626610D01*
X10113314Y4602378D01*
X10115296Y4578197D01*
X10119156Y4554321D01*
X10124948Y4530750D01*
X10132618Y4507788D01*
X10142118Y4485487D01*
X10153396Y4464050D01*
X10166350Y4443577D01*
X10180878Y4424172D01*
X10196982Y4406036D01*
X10214457Y4389272D01*
X10233202Y4373930D01*
X10253167Y4360164D01*
X10274147Y4348073D01*
X10296042Y4337659D01*
X10318699Y4329074D01*
X10341965Y4322318D01*
X10365689Y4317492D01*
X10389768Y4314545D01*
G37*
G36*
X7866583Y4325366D02*
G01*
X7881366Y4325366D01*
X7895996Y4327144D01*
X7910322Y4330750D01*
X7924088Y4336084D01*
X7937093Y4343095D01*
X7949133Y4351578D01*
X7960055Y4361535D01*
X7969656Y4372762D01*
X7977784Y4385056D01*
X7984388Y4398264D01*
X7989265Y4412183D01*
X7992414Y4426610D01*
X7993786Y4441291D01*
X7993329Y4456074D01*
X7991094Y4470654D01*
X7987030Y4484827D01*
X7981289Y4498441D01*
X7973923Y4511192D01*
X7965033Y4522978D01*
X7954721Y4533595D01*
X7943240Y4542840D01*
X7930692Y4550613D01*
X7917281Y4556760D01*
X7903209Y4561230D01*
X7888731Y4563973D01*
X7874000Y4564837D01*
X7859268Y4563973D01*
X7844739Y4561230D01*
X7830667Y4556760D01*
X7817256Y4550613D01*
X7804708Y4542840D01*
X7793228Y4533595D01*
X7782966Y4522978D01*
X7774076Y4511192D01*
X7766659Y4498441D01*
X7760919Y4484827D01*
X7756906Y4470654D01*
X7754620Y4456074D01*
X7754162Y4441291D01*
X7755534Y4426610D01*
X7758684Y4412183D01*
X7763611Y4398264D01*
X7770164Y4385056D01*
X7778343Y4372762D01*
X7787944Y4361535D01*
X7798816Y4351578D01*
X7810906Y4343095D01*
X7823860Y4336084D01*
X7837627Y4330750D01*
X7851952Y4327144D01*
G37*
G36*
X7041642Y4343146D02*
G01*
X7055307Y4343146D01*
X7068820Y4344974D01*
X7081977Y4348530D01*
X7094524Y4353864D01*
X7106259Y4360824D01*
X7116978Y4369257D01*
X7126427Y4379061D01*
X7134555Y4390085D01*
X7141108Y4402023D01*
X7145985Y4414723D01*
X7149134Y4428032D01*
X7150506Y4441596D01*
X7150049Y4455210D01*
X7147814Y4468672D01*
X7143750Y4481677D01*
X7138009Y4494072D01*
X7130694Y4505553D01*
X7121855Y4515967D01*
X7111746Y4525111D01*
X7100519Y4532833D01*
X7088327Y4538980D01*
X7075474Y4543450D01*
X7062114Y4546142D01*
X7048500Y4547057D01*
X7034885Y4546142D01*
X7021525Y4543450D01*
X7008622Y4538980D01*
X6996480Y4532833D01*
X6985203Y4525111D01*
X6975094Y4515967D01*
X6966305Y4505553D01*
X6958939Y4494072D01*
X6953199Y4481677D01*
X6949186Y4468672D01*
X6946900Y4455210D01*
X6946442Y4441596D01*
X6947814Y4428032D01*
X6950964Y4414723D01*
X6955891Y4402023D01*
X6962444Y4390085D01*
X6970522Y4379061D01*
X6980021Y4369257D01*
X6990689Y4360824D01*
X7002424Y4353864D01*
X7015022Y4348530D01*
X7028129Y4344974D01*
G37*
G36*
X9200337Y4548073D02*
G01*
X9243415Y4548073D01*
X9249714Y4548784D01*
X9255201Y4550714D01*
X9260078Y4553762D01*
X9264192Y4557877D01*
X9267291Y4562754D01*
X9269171Y4568240D01*
X9269882Y4574540D01*
X9269882Y4630115D01*
X9200337Y4630115D01*
G37*
G36*
X9044533Y4548073D02*
G01*
X9087612Y4548073D01*
X9087612Y4630115D01*
X9021724Y4630115D01*
X9018016Y4630826D01*
X9014815Y4632858D01*
X9012580Y4635906D01*
X9011615Y4639564D01*
X9012224Y4643882D01*
X9014968Y4658817D01*
X9015882Y4674311D01*
X9015882Y4723688D01*
X9014968Y4739182D01*
X9012021Y4754676D01*
X9011615Y4758436D01*
X9012580Y4762093D01*
X9014815Y4765141D01*
X9018016Y4767122D01*
X9021724Y4767834D01*
X9087612Y4767834D01*
X9087612Y4849876D01*
X9044533Y4849876D01*
X9038234Y4849164D01*
X9032748Y4847285D01*
X9027871Y4844186D01*
X9023756Y4840122D01*
X9020708Y4835194D01*
X9018778Y4829759D01*
X9018066Y4823409D01*
X9018066Y4791456D01*
X9017152Y4787188D01*
X9014510Y4783683D01*
X9010650Y4781651D01*
X9006281Y4781397D01*
X9002217Y4783023D01*
X8999220Y4786172D01*
X8993581Y4795520D01*
X8984234Y4807458D01*
X8973464Y4818227D01*
X8961475Y4827574D01*
X8948470Y4835448D01*
X8934602Y4841697D01*
X8920124Y4846218D01*
X8905138Y4848961D01*
X8890000Y4849876D01*
X8874810Y4848961D01*
X8859875Y4846218D01*
X8845346Y4841697D01*
X8831478Y4835448D01*
X8818473Y4827574D01*
X8806484Y4818227D01*
X8795766Y4807458D01*
X8786368Y4795520D01*
X8778494Y4782515D01*
X8772245Y4768596D01*
X8770010Y4765395D01*
X8766759Y4763312D01*
X8763000Y4762601D01*
X8759190Y4763312D01*
X8755938Y4765395D01*
X8753703Y4768596D01*
X8747455Y4782515D01*
X8739581Y4795520D01*
X8730234Y4807458D01*
X8719464Y4818227D01*
X8707475Y4827574D01*
X8694470Y4835448D01*
X8680602Y4841697D01*
X8666124Y4846218D01*
X8651138Y4848961D01*
X8636000Y4849876D01*
X8620810Y4848961D01*
X8605875Y4846218D01*
X8591346Y4841697D01*
X8577478Y4835448D01*
X8564473Y4827574D01*
X8552484Y4818227D01*
X8541766Y4807458D01*
X8532368Y4795520D01*
X8524494Y4782515D01*
X8518296Y4768646D01*
X8513775Y4754118D01*
X8511032Y4739182D01*
X8510066Y4723688D01*
X8510066Y4674311D01*
X8511032Y4658817D01*
X8513775Y4643882D01*
X8518296Y4629353D01*
X8524494Y4615484D01*
X8532368Y4602480D01*
X8541766Y4590491D01*
X8552484Y4579772D01*
X8564473Y4570374D01*
X8577478Y4562500D01*
X8591346Y4556302D01*
X8605875Y4551781D01*
X8620810Y4549038D01*
X8636000Y4548124D01*
X8651138Y4549038D01*
X8666124Y4551781D01*
X8680602Y4556302D01*
X8694470Y4562500D01*
X8707475Y4570374D01*
X8719464Y4579772D01*
X8730234Y4590491D01*
X8739581Y4602480D01*
X8747455Y4615484D01*
X8753703Y4629404D01*
X8755938Y4632553D01*
X8759190Y4634687D01*
X8763000Y4635398D01*
X8766759Y4634687D01*
X8770010Y4632553D01*
X8772245Y4629404D01*
X8778494Y4615484D01*
X8786368Y4602480D01*
X8795766Y4590491D01*
X8806484Y4579772D01*
X8818473Y4570374D01*
X8831478Y4562500D01*
X8845346Y4556302D01*
X8859875Y4551781D01*
X8874810Y4549038D01*
X8890000Y4548124D01*
X8905138Y4549038D01*
X8920124Y4551781D01*
X8934602Y4556302D01*
X8948470Y4562500D01*
X8961475Y4570374D01*
X8973464Y4579772D01*
X8984234Y4590491D01*
X8993581Y4602480D01*
X8999220Y4611776D01*
X9002217Y4614976D01*
X9006281Y4616551D01*
X9010650Y4616348D01*
X9014510Y4614265D01*
X9017152Y4610811D01*
X9018066Y4606544D01*
X9018066Y4574540D01*
X9018778Y4568240D01*
X9020708Y4562754D01*
X9023756Y4557877D01*
X9027871Y4553762D01*
X9032748Y4550714D01*
X9038234Y4548784D01*
G37*
G36*
X8983573Y5483809D02*
G01*
X9061653Y5483809D01*
X9061653Y5561888D01*
X9057741Y5560009D01*
X9041790Y5550052D01*
X9026906Y5538520D01*
X9013240Y5525566D01*
X9000998Y5511241D01*
X8990228Y5495798D01*
G37*
G36*
X6159500Y5422392D02*
G01*
X6173114Y5423306D01*
X6186474Y5426049D01*
X6199378Y5430520D01*
X6211519Y5436666D01*
X6222746Y5444388D01*
X6232906Y5453532D01*
X6241694Y5463946D01*
X6249009Y5475427D01*
X6254750Y5487822D01*
X6258814Y5500827D01*
X6261049Y5514289D01*
X6261506Y5527903D01*
X6260185Y5541467D01*
X6256985Y5554726D01*
X6252108Y5567476D01*
X6245555Y5579414D01*
X6237478Y5590387D01*
X6227978Y5600192D01*
X6217259Y5608675D01*
X6205524Y5615635D01*
X6192977Y5620918D01*
X6179820Y5624525D01*
X6166307Y5626354D01*
X6152692Y5626354D01*
X6139180Y5624525D01*
X6126022Y5620918D01*
X6113475Y5615635D01*
X6101740Y5608675D01*
X6091021Y5600192D01*
X6081522Y5590387D01*
X6073444Y5579414D01*
X6066891Y5567476D01*
X6062014Y5554726D01*
X6058814Y5541467D01*
X6057493Y5527903D01*
X6057950Y5514289D01*
X6060186Y5500827D01*
X6064250Y5487822D01*
X6069990Y5475427D01*
X6077305Y5463946D01*
X6086094Y5453532D01*
X6096254Y5444388D01*
X6107480Y5436666D01*
X6119622Y5430520D01*
X6132525Y5426049D01*
X6145885Y5423306D01*
G37*
G36*
X6413500Y5422392D02*
G01*
X6427114Y5423306D01*
X6440474Y5426049D01*
X6453378Y5430520D01*
X6465519Y5436666D01*
X6476746Y5444388D01*
X6486906Y5453532D01*
X6495694Y5463946D01*
X6503009Y5475427D01*
X6508750Y5487822D01*
X6512814Y5500827D01*
X6515049Y5514289D01*
X6515506Y5527903D01*
X6514185Y5541467D01*
X6510985Y5554726D01*
X6506108Y5567476D01*
X6499555Y5579414D01*
X6491478Y5590387D01*
X6481978Y5600192D01*
X6471259Y5608675D01*
X6459524Y5615635D01*
X6446977Y5620918D01*
X6433820Y5624525D01*
X6420307Y5626354D01*
X6406692Y5626354D01*
X6393180Y5624525D01*
X6380022Y5620918D01*
X6367475Y5615635D01*
X6355740Y5608675D01*
X6345021Y5600192D01*
X6335522Y5590387D01*
X6327444Y5579414D01*
X6320891Y5567476D01*
X6316014Y5554726D01*
X6312814Y5541467D01*
X6311493Y5527903D01*
X6311950Y5514289D01*
X6314186Y5500827D01*
X6318250Y5487822D01*
X6323990Y5475427D01*
X6331305Y5463946D01*
X6340094Y5453532D01*
X6350254Y5444388D01*
X6361480Y5436666D01*
X6373622Y5430520D01*
X6386525Y5426049D01*
X6399885Y5423306D01*
G37*
G36*
X9200337Y4767834D02*
G01*
X9269882Y4767834D01*
X9269882Y4823409D01*
X9269171Y4829759D01*
X9267291Y4835194D01*
X9264192Y4840122D01*
X9260078Y4844186D01*
X9255201Y4847285D01*
X9249714Y4849164D01*
X9243415Y4849876D01*
X9200337Y4849876D01*
G37*
G36*
X7605318Y5419852D02*
G01*
X7761630Y5419852D01*
X7767980Y5420563D01*
X7773416Y5422442D01*
X7778343Y5425541D01*
X7782407Y5429656D01*
X7785506Y5434533D01*
X7787436Y5440019D01*
X7788148Y5446318D01*
X7788148Y5602681D01*
X7787436Y5608980D01*
X7785506Y5614466D01*
X7782407Y5619343D01*
X7778343Y5623458D01*
X7773416Y5626506D01*
X7767980Y5628436D01*
X7761630Y5629148D01*
X7605318Y5629148D01*
X7598968Y5628436D01*
X7593533Y5626506D01*
X7588656Y5623458D01*
X7584541Y5619343D01*
X7581442Y5614466D01*
X7579563Y5608980D01*
X7578852Y5602681D01*
X7578852Y5446318D01*
X7579563Y5440019D01*
X7581442Y5434533D01*
X7584541Y5429656D01*
X7588656Y5425541D01*
X7593533Y5422442D01*
X7598968Y5420563D01*
G37*
G36*
X7866583Y5087366D02*
G01*
X7881366Y5087366D01*
X7895996Y5089144D01*
X7910322Y5092750D01*
X7924088Y5098084D01*
X7937093Y5105095D01*
X7949133Y5113578D01*
X7960055Y5123535D01*
X7969656Y5134762D01*
X7977784Y5147056D01*
X7984388Y5160264D01*
X7989265Y5174183D01*
X7992414Y5188610D01*
X7993786Y5203291D01*
X7993329Y5218074D01*
X7991094Y5232654D01*
X7987030Y5246827D01*
X7981289Y5260441D01*
X7973923Y5273192D01*
X7965033Y5284978D01*
X7954721Y5295595D01*
X7943240Y5304840D01*
X7930692Y5312613D01*
X7917281Y5318760D01*
X7903209Y5323230D01*
X7888731Y5325973D01*
X7874000Y5326837D01*
X7859268Y5325973D01*
X7844739Y5323230D01*
X7830667Y5318760D01*
X7817256Y5312613D01*
X7804708Y5304840D01*
X7793228Y5295595D01*
X7782966Y5284978D01*
X7774076Y5273192D01*
X7766659Y5260441D01*
X7760919Y5246827D01*
X7756906Y5232654D01*
X7754620Y5218074D01*
X7754162Y5203291D01*
X7755534Y5188610D01*
X7758684Y5174183D01*
X7763611Y5160264D01*
X7770164Y5147056D01*
X7778343Y5134762D01*
X7787944Y5123535D01*
X7798816Y5113578D01*
X7810906Y5105095D01*
X7823860Y5098084D01*
X7837627Y5092750D01*
X7851952Y5089144D01*
G37*
G36*
X9647986Y5211572D02*
G01*
X9666782Y5212537D01*
X9685375Y5215382D01*
X9703612Y5220106D01*
X9721291Y5226659D01*
X9738207Y5234940D01*
X9754158Y5244896D01*
X9769043Y5256428D01*
X9782708Y5269382D01*
X9795002Y5283708D01*
X9805720Y5299151D01*
X9814864Y5315610D01*
X9822281Y5332933D01*
X9827920Y5350865D01*
X9831730Y5369306D01*
X9833610Y5388051D01*
X9833610Y5406898D01*
X9831730Y5425643D01*
X9827920Y5444083D01*
X9822281Y5462016D01*
X9814864Y5479338D01*
X9805720Y5495798D01*
X9795002Y5511241D01*
X9782708Y5525566D01*
X9769043Y5538520D01*
X9754158Y5550052D01*
X9738207Y5560009D01*
X9721291Y5568289D01*
X9703612Y5574842D01*
X9685375Y5579567D01*
X9666782Y5582412D01*
X9647986Y5583377D01*
X9629190Y5582412D01*
X9610547Y5579567D01*
X9592310Y5574842D01*
X9574682Y5568289D01*
X9557766Y5560009D01*
X9541764Y5550052D01*
X9526879Y5538520D01*
X9513265Y5525566D01*
X9500971Y5511241D01*
X9490202Y5495798D01*
X9481058Y5479338D01*
X9473641Y5462016D01*
X9468002Y5444083D01*
X9464243Y5425643D01*
X9462312Y5406898D01*
X9462312Y5388051D01*
X9464243Y5369306D01*
X9468002Y5350865D01*
X9473641Y5332933D01*
X9481058Y5315610D01*
X9490202Y5299151D01*
X9500971Y5283708D01*
X9513265Y5269382D01*
X9526879Y5256428D01*
X9541764Y5244896D01*
X9557766Y5234940D01*
X9574682Y5226659D01*
X9592310Y5220106D01*
X9610547Y5215382D01*
X9629190Y5212537D01*
G37*
G36*
X9061653Y5233060D02*
G01*
X9061653Y5311140D01*
X8983573Y5311140D01*
X8990228Y5299151D01*
X9000998Y5283708D01*
X9013240Y5269382D01*
X9026906Y5256428D01*
X9041790Y5244896D01*
X9057741Y5234940D01*
G37*
G36*
X9234322Y5233060D02*
G01*
X9238183Y5234940D01*
X9254185Y5244896D01*
X9269069Y5256428D01*
X9282734Y5269382D01*
X9294977Y5283708D01*
X9305747Y5299151D01*
X9312402Y5311140D01*
X9234322Y5311140D01*
G37*
G36*
X10547299Y5262168D02*
G01*
X10572546Y5263642D01*
X10597591Y5267045D01*
X10622280Y5272379D01*
X10646511Y5279644D01*
X10670082Y5288737D01*
X10692892Y5299659D01*
X10714786Y5312308D01*
X10735614Y5326583D01*
X10755274Y5342432D01*
X10773664Y5359806D01*
X10790631Y5378500D01*
X10806125Y5398516D01*
X10820044Y5419598D01*
X10832236Y5441746D01*
X10842701Y5464759D01*
X10851337Y5488482D01*
X10858093Y5512866D01*
X10862970Y5537657D01*
X10865916Y5562752D01*
X10866882Y5588000D01*
X10865916Y5613247D01*
X10862970Y5638342D01*
X10858093Y5663133D01*
X10851337Y5687517D01*
X10842701Y5711240D01*
X10832236Y5734253D01*
X10820044Y5756402D01*
X10806125Y5777484D01*
X10790631Y5797499D01*
X10773664Y5816193D01*
X10755274Y5833567D01*
X10735614Y5849416D01*
X10714786Y5863691D01*
X10692892Y5876340D01*
X10670082Y5887262D01*
X10646511Y5896356D01*
X10622280Y5903620D01*
X10597591Y5908954D01*
X10572546Y5912358D01*
X10547299Y5913831D01*
X10522051Y5913323D01*
X10496905Y5910884D01*
X10472013Y5906516D01*
X10447528Y5900216D01*
X10423601Y5892038D01*
X10400436Y5882030D01*
X10378033Y5870244D01*
X10356646Y5856782D01*
X10336377Y5841644D01*
X10317378Y5825032D01*
X10299649Y5806998D01*
X10283393Y5787644D01*
X10268712Y5767070D01*
X10255656Y5745429D01*
X10244328Y5722874D01*
X10234777Y5699455D01*
X10227056Y5675376D01*
X10221214Y5650788D01*
X10217302Y5625846D01*
X10215321Y5600649D01*
X10215321Y5575350D01*
X10217302Y5550154D01*
X10221214Y5525211D01*
X10227056Y5500624D01*
X10234777Y5476544D01*
X10244328Y5453126D01*
X10255656Y5430570D01*
X10268712Y5408930D01*
X10283393Y5388356D01*
X10299649Y5369001D01*
X10317378Y5350967D01*
X10336377Y5334355D01*
X10356646Y5319217D01*
X10378033Y5305755D01*
X10400436Y5293969D01*
X10423601Y5283962D01*
X10447528Y5275783D01*
X10472013Y5269484D01*
X10496905Y5265115D01*
X10522051Y5262676D01*
G37*
G36*
X8445500Y5289042D02*
G01*
X8459622Y5289956D01*
X8473541Y5292750D01*
X8487003Y5297322D01*
X8499703Y5303570D01*
X8511489Y5311444D01*
X8522157Y5320792D01*
X8531504Y5331460D01*
X8539378Y5343296D01*
X8545677Y5355996D01*
X8550198Y5369407D01*
X8552992Y5383326D01*
X8553907Y5397500D01*
X8552992Y5411622D01*
X8550198Y5425541D01*
X8545677Y5439003D01*
X8539378Y5451703D01*
X8531504Y5463489D01*
X8522157Y5474157D01*
X8511489Y5483504D01*
X8499703Y5491378D01*
X8487003Y5497677D01*
X8473541Y5502249D01*
X8459622Y5504992D01*
X8445500Y5505907D01*
X8431326Y5504992D01*
X8417407Y5502249D01*
X8403996Y5497677D01*
X8391245Y5491378D01*
X8379459Y5483504D01*
X8368792Y5474157D01*
X8359444Y5463489D01*
X8351570Y5451703D01*
X8345322Y5439003D01*
X8340750Y5425541D01*
X8337956Y5411622D01*
X8337042Y5397500D01*
X8337956Y5383326D01*
X8340750Y5369407D01*
X8345322Y5355996D01*
X8351570Y5343296D01*
X8359444Y5331460D01*
X8368792Y5320792D01*
X8379459Y5311444D01*
X8391245Y5303570D01*
X8403996Y5297322D01*
X8417407Y5292750D01*
X8431326Y5289956D01*
G37*
G36*
X8191500Y5289042D02*
G01*
X8205622Y5289956D01*
X8219541Y5292750D01*
X8233003Y5297322D01*
X8245703Y5303570D01*
X8257489Y5311444D01*
X8268157Y5320792D01*
X8277504Y5331460D01*
X8285378Y5343296D01*
X8291677Y5355996D01*
X8296198Y5369407D01*
X8298992Y5383326D01*
X8299907Y5397500D01*
X8298992Y5411622D01*
X8296198Y5425541D01*
X8291677Y5439003D01*
X8285378Y5451703D01*
X8277504Y5463489D01*
X8268157Y5474157D01*
X8257489Y5483504D01*
X8245703Y5491378D01*
X8233003Y5497677D01*
X8219541Y5502249D01*
X8205622Y5504992D01*
X8191500Y5505907D01*
X8177326Y5504992D01*
X8163407Y5502249D01*
X8149996Y5497677D01*
X8137245Y5491378D01*
X8125459Y5483504D01*
X8114792Y5474157D01*
X8105444Y5463489D01*
X8097570Y5451703D01*
X8091322Y5439003D01*
X8086750Y5425541D01*
X8083956Y5411622D01*
X8083042Y5397500D01*
X8083956Y5383326D01*
X8086750Y5369407D01*
X8091322Y5355996D01*
X8097570Y5343296D01*
X8105444Y5331460D01*
X8114792Y5320792D01*
X8125459Y5311444D01*
X8137245Y5303570D01*
X8149996Y5297322D01*
X8163407Y5292750D01*
X8177326Y5289956D01*
G37*
G36*
X7175500Y5419852D02*
G01*
X7189165Y5420766D01*
X7202576Y5423408D01*
X7215530Y5427827D01*
X7227773Y5433872D01*
X7239152Y5441492D01*
X7249464Y5450484D01*
X7258507Y5460796D01*
X7266076Y5472176D01*
X7272121Y5484469D01*
X7276541Y5497423D01*
X7279233Y5510834D01*
X7280097Y5524500D01*
X7279233Y5538165D01*
X7276541Y5551576D01*
X7272121Y5564530D01*
X7266076Y5576824D01*
X7258507Y5588203D01*
X7249464Y5598464D01*
X7239152Y5607507D01*
X7227773Y5615076D01*
X7215530Y5621172D01*
X7202576Y5625541D01*
X7189165Y5628233D01*
X7175500Y5629097D01*
X7161834Y5628233D01*
X7148423Y5625541D01*
X7135469Y5621172D01*
X7123175Y5615076D01*
X7111796Y5607507D01*
X7101484Y5598464D01*
X7092492Y5588203D01*
X7084872Y5576824D01*
X7078827Y5564530D01*
X7074408Y5551576D01*
X7071766Y5538165D01*
X7070852Y5524500D01*
X7071766Y5510834D01*
X7074408Y5497423D01*
X7078827Y5484469D01*
X7084872Y5472176D01*
X7092492Y5460796D01*
X7101484Y5450484D01*
X7111796Y5441492D01*
X7123175Y5433872D01*
X7135469Y5427827D01*
X7148423Y5423408D01*
X7161834Y5420766D01*
G37*
G36*
X7429500Y5419852D02*
G01*
X7443165Y5420766D01*
X7456576Y5423408D01*
X7469530Y5427827D01*
X7481773Y5433872D01*
X7493152Y5441492D01*
X7503464Y5450484D01*
X7512507Y5460796D01*
X7520076Y5472176D01*
X7526121Y5484469D01*
X7530541Y5497423D01*
X7533233Y5510834D01*
X7534097Y5524500D01*
X7533233Y5538165D01*
X7530541Y5551576D01*
X7526121Y5564530D01*
X7520076Y5576824D01*
X7512507Y5588203D01*
X7503464Y5598464D01*
X7493152Y5607507D01*
X7481773Y5615076D01*
X7469530Y5621172D01*
X7456576Y5625541D01*
X7443165Y5628233D01*
X7429500Y5629097D01*
X7415834Y5628233D01*
X7402423Y5625541D01*
X7389469Y5621172D01*
X7377175Y5615076D01*
X7365796Y5607507D01*
X7355484Y5598464D01*
X7346492Y5588203D01*
X7338872Y5576824D01*
X7332827Y5564530D01*
X7328408Y5551576D01*
X7325766Y5538165D01*
X7324852Y5524500D01*
X7325766Y5510834D01*
X7328408Y5497423D01*
X7332827Y5484469D01*
X7338872Y5472176D01*
X7346492Y5460796D01*
X7355484Y5450484D01*
X7365796Y5441492D01*
X7377175Y5433872D01*
X7389469Y5427827D01*
X7402423Y5423408D01*
X7415834Y5420766D01*
G37*
G36*
X7092950Y4099204D02*
G01*
X7094524Y4099864D01*
X7106259Y4106824D01*
X7116978Y4115257D01*
X7126427Y4125061D01*
X7134555Y4136085D01*
X7140295Y4146550D01*
X7092950Y4146550D01*
G37*

%LPD*%
D10*
X5651500Y5524500D02*
G01*
X5588000Y5524500D01*
X4508500Y4445000D01*
X4508500Y4000500D01*
X4635500Y3873500D01*
X4635500Y2159000D01*
X5905500Y5524500D02*
G01*
X5905500Y4445005D01*
X5778487Y4317992D01*
X5778487Y4063992D01*
X6095987Y3746492D01*
X6095987Y2222494D01*
X6222987Y2095494D01*
X6222987Y2031994D01*
X6349987Y1904994D01*
X6349987Y761997D01*
X6731000Y380984D01*
X6731000Y190500D01*
X4635489Y2158994D02*
G01*
X4635489Y2031997D01*
X4952989Y1714497D01*
X5206989Y1714497D01*
X5397489Y1523997D01*
X5397489Y1270010D01*
X6477000Y190500D01*
D11*
G01*
X6667487Y2539994D03*
D12*
G01*
X6667500Y2794000D03*
G01*
X6667500Y3048000D03*
G01*
X6667500Y3302000D03*
D11*
G01*
X4254492Y2539994D03*
D12*
G01*
X4254474Y2794000D03*
G01*
X4254474Y3048000D03*
G01*
X4254474Y3302000D03*
D13*
G01*
X381000Y5588000D03*
D14*
G01*
X152400Y5588000D03*
G01*
X215900Y5740400D03*
G01*
X381000Y5816600D03*
G01*
X609600Y5588000D03*
G01*
X546100Y5753100D03*
G01*
X533400Y5422900D03*
G01*
X381000Y5359400D03*
G01*
X215900Y5435600D03*
D13*
G01*
X10541000Y5588000D03*
D14*
G01*
X10312400Y5588000D03*
G01*
X10375900Y5740400D03*
G01*
X10541000Y5816600D03*
G01*
X10769600Y5588000D03*
G01*
X10706100Y5753100D03*
G01*
X10693400Y5422900D03*
G01*
X10541000Y5359400D03*
G01*
X10375900Y5435600D03*
D13*
G01*
X10541000Y381000D03*
D14*
G01*
X10312400Y381000D03*
G01*
X10375900Y533400D03*
G01*
X10541000Y609600D03*
G01*
X10769600Y381000D03*
G01*
X10706100Y546100D03*
G01*
X10693400Y215900D03*
G01*
X10541000Y152400D03*
G01*
X10375900Y228600D03*
D13*
G01*
X381000Y381000D03*
D14*
G01*
X152400Y381000D03*
G01*
X215900Y533400D03*
G01*
X381000Y609600D03*
G01*
X609600Y381000D03*
G01*
X546100Y546100D03*
G01*
X533400Y215900D03*
G01*
X381000Y152400D03*
G01*
X215900Y228600D03*
D15*
G01*
X5905500Y4254500D03*
G01*
X6159500Y4254500D03*
G01*
X6413500Y4254500D03*
G01*
X5651500Y4254500D03*
G01*
X5397500Y4254500D03*
G01*
X5143500Y4254500D03*
G01*
X4889500Y4254500D03*
G01*
X4635500Y4254500D03*
G01*
X4635500Y5524500D03*
G01*
X4889500Y5524500D03*
G01*
X5143500Y5524500D03*
G01*
X5397500Y5524500D03*
G01*
X5651500Y5524500D03*
G01*
X5905500Y5524500D03*
G01*
X6159500Y5524500D03*
G01*
X6413500Y5524500D03*
D16*
G01*
X9647986Y5397500D03*
G01*
X9147987Y5397500D03*
D12*
G01*
X7175474Y5524500D03*
G01*
X7429474Y5524500D03*
D17*
G01*
X7683474Y5524500D03*
D18*
G01*
X8191474Y5397500D03*
G01*
X8445474Y5397500D03*
D15*
G01*
X4000500Y4508500D03*
G01*
X4000500Y4762500D03*
D19*
G01*
X10413974Y3894480D03*
G01*
X10413974Y4614494D03*
D20*
G01*
X7873974Y4445000D03*
G01*
X7873974Y5207000D03*
D15*
G01*
X7048474Y4191000D03*
G01*
X7048474Y4445000D03*
G01*
X7937474Y4000500D03*
G01*
X7937474Y3746500D03*
D21*
G01*
X5143500Y254000D03*
G01*
X5143500Y508000D03*
G01*
X5143500Y762000D03*
G01*
X5143500Y1016000D03*
G01*
X5143500Y1270000D03*
G01*
X5143500Y1524000D03*
G01*
X4127500Y254000D03*
G01*
X4127500Y508000D03*
G01*
X4127500Y762000D03*
G01*
X4127500Y1016000D03*
G01*
X4127500Y1270000D03*
D22*
G01*
X4127500Y1524000D03*
D20*
G01*
X5969000Y1714500D03*
G01*
X6223000Y1714500D03*
G01*
X6477000Y1714500D03*
G01*
X6731000Y1714500D03*
G01*
X6985000Y1714500D03*
G01*
X7239000Y1714500D03*
G01*
X7493000Y1714500D03*
G01*
X7747000Y1714500D03*
G01*
X8001000Y1714500D03*
G01*
X8255000Y1714500D03*
G01*
X8509000Y1714500D03*
G01*
X8763000Y1714500D03*
G01*
X8763000Y190500D03*
G01*
X8509000Y190500D03*
G01*
X8255000Y190500D03*
G01*
X8001000Y190500D03*
G01*
X7747000Y190500D03*
G01*
X7493000Y190500D03*
G01*
X7239000Y190500D03*
G01*
X6985000Y190500D03*
G01*
X6731000Y190500D03*
G01*
X6477000Y190500D03*
G01*
X6223000Y190500D03*
G01*
X5969000Y190500D03*
D15*
G01*
X7747000Y3302000D03*
G01*
X7493000Y3302000D03*
G01*
X7239000Y3302000D03*
G01*
X8001000Y3302000D03*
G01*
X8255000Y3302000D03*
G01*
X8509000Y3302000D03*
G01*
X8763000Y3302000D03*
G01*
X9017000Y3302000D03*
G01*
X9017000Y2032000D03*
G01*
X8763000Y2032000D03*
G01*
X8509000Y2032000D03*
G01*
X8255000Y2032000D03*
G01*
X8001000Y2032000D03*
G01*
X7747000Y2032000D03*
G01*
X7493000Y2032000D03*
G01*
X7239000Y2032000D03*
D23*
G01*
X4813300Y2044700D03*
G01*
X5067300Y2044700D03*
G01*
X5321300Y2044700D03*
G01*
X5575300Y2044700D03*
G01*
X5829300Y2044700D03*
G01*
X6083300Y2044700D03*
G01*
X5067300Y3822700D03*
G01*
X5321300Y3822700D03*
G01*
X5575300Y3822700D03*
G01*
X5829300Y3822700D03*
D24*
G01*
X8889974Y4698974D03*
G01*
X8635974Y4698974D03*
D25*
G01*
X9143982Y4698989D03*
D15*
G01*
X1143000Y253974D03*
G01*
X1143000Y507974D03*
G01*
X1143000Y761974D03*
G01*
X1143000Y1015974D03*
G01*
X1143000Y1269974D03*
G01*
X1143000Y1523974D03*
G01*
X1143000Y1777974D03*
G01*
X1143000Y2031974D03*
G01*
X1143000Y2285974D03*
G01*
X1143000Y2539974D03*
G01*
X1143000Y2793974D03*
G01*
X1143000Y3047974D03*
G01*
X1143000Y3301974D03*
G01*
X1143000Y3555974D03*
G01*
X1143000Y3809974D03*
G01*
X1143000Y4063974D03*
G01*
X1143000Y4317974D03*
G01*
X1143000Y4571974D03*
G01*
X1143000Y4825974D03*
G01*
X3429000Y253974D03*
G01*
X3429000Y507974D03*
G01*
X3429000Y761974D03*
G01*
X3429000Y1015974D03*
G01*
X3429000Y1269974D03*
G01*
X3429000Y1523974D03*
G01*
X3429000Y1777974D03*
G01*
X3429000Y2031974D03*
G01*
X3429000Y2285974D03*
G01*
X3429000Y2539974D03*
G01*
X3429000Y2793974D03*
G01*
X3429000Y3047974D03*
G01*
X3429000Y3301974D03*
G01*
X3429000Y3555974D03*
G01*
X3429000Y3809974D03*
G01*
X3429000Y4063974D03*
G01*
X3429000Y4317974D03*
G01*
X3429000Y4571974D03*
G01*
X3429000Y4825974D03*
D19*
G01*
X10413974Y1989505D03*
G01*
X10413974Y2709519D03*
D26*
G01*
X6413500Y508000D03*
G01*
X5397500Y1841500D03*
G01*
X5334000Y1778000D03*
M02*
