G04 Layer: TopLayer*
G04 EasyEDA v6.5.22, 2024-01-02 20:54:04*
G04 984ccde9b92444d3820f456cd2862b94,da3b0543d5484e77bd98afd5aefff037,10*
G04 Gerber Generator version 0.2*
G04 Scale: 100 percent, Rotated: No, Reflected: No *
G04 Dimensions in millimeters *
G04 leading zeros omitted , absolute positions ,4 integer and 5 decimal *
%FSLAX45Y45*%
%MOMM*%

%AMMACRO1*21,1,$1,$2,0,0,$3*%
%ADD10C,0.2540*%
%ADD11C,1.5000*%
%ADD12MACRO1,1.5748X1.5748X90.0000*%
%ADD13C,1.5748*%
%ADD14C,6.0000*%
%ADD15C,0.8000*%
%ADD16C,1.5240*%
%ADD17C,3.2000*%
%ADD18R,1.5748X1.5748*%
%ADD19C,1.6510*%
%ADD20C,5.5000*%
%ADD21C,1.8796*%
%ADD22C,1.8000*%
%ADD23R,1.8000X1.8000*%
%ADD24C,1.9304*%
%ADD25O,1.9999959999999999X2.4999949999999997*%
%ADD26MACRO1,2.0015X2.4994X0.0000*%
%ADD27C,0.6096*%
%ADD28C,0.0131*%

%LPD*%
G36*
X10301935Y914908D02*
G01*
X10298023Y915669D01*
X10294721Y917905D01*
X9426854Y1785772D01*
X9424670Y1789074D01*
X9423908Y1792935D01*
X9423908Y5932932D01*
X9424670Y5936792D01*
X9426854Y5940094D01*
X9430156Y5942330D01*
X9434068Y5943092D01*
X10540339Y5943092D01*
X10566654Y5942126D01*
X10591850Y5939383D01*
X10616793Y5934862D01*
X10641380Y5928563D01*
X10665409Y5920536D01*
X10688828Y5910834D01*
X10711484Y5899454D01*
X10733227Y5886500D01*
X10754055Y5872022D01*
X10773765Y5856071D01*
X10792307Y5838799D01*
X10809579Y5820206D01*
X10825429Y5800496D01*
X10839856Y5779668D01*
X10852759Y5757824D01*
X10864088Y5735167D01*
X10873790Y5711748D01*
X10881766Y5687669D01*
X10888014Y5663133D01*
X10892485Y5638139D01*
X10895177Y5612942D01*
X10896092Y5587339D01*
X10896092Y925068D01*
X10895279Y921156D01*
X10893094Y917905D01*
X10889792Y915669D01*
X10885932Y914908D01*
G37*

%LPC*%
G36*
X9734346Y5483809D02*
G01*
X9812375Y5483809D01*
X9805720Y5495798D01*
X9795002Y5511241D01*
X9782708Y5525566D01*
X9769043Y5538520D01*
X9754158Y5550052D01*
X9738207Y5560009D01*
X9734346Y5561888D01*
G37*
G36*
X9483547Y5483809D02*
G01*
X9561626Y5483809D01*
X9561626Y5561888D01*
X9557766Y5560009D01*
X9541764Y5550052D01*
X9526879Y5538520D01*
X9513265Y5525566D01*
X9500971Y5511241D01*
X9490202Y5495798D01*
G37*
G36*
X10414000Y2408580D02*
G01*
X10438180Y2409545D01*
X10462260Y2412492D01*
X10485983Y2417318D01*
X10509250Y2424074D01*
X10531906Y2432659D01*
X10553801Y2443073D01*
X10574782Y2455164D01*
X10594746Y2468930D01*
X10613491Y2484272D01*
X10630966Y2501036D01*
X10647070Y2519172D01*
X10661599Y2538577D01*
X10674553Y2559050D01*
X10685830Y2580487D01*
X10695330Y2602788D01*
X10703001Y2625750D01*
X10708792Y2649321D01*
X10712704Y2673197D01*
X10714634Y2697378D01*
X10714634Y2721610D01*
X10712704Y2745740D01*
X10708792Y2769666D01*
X10703001Y2793187D01*
X10695330Y2816199D01*
X10685830Y2838500D01*
X10674553Y2859938D01*
X10661599Y2880410D01*
X10647070Y2899816D01*
X10630966Y2917952D01*
X10613491Y2934716D01*
X10594746Y2950057D01*
X10574782Y2963824D01*
X10553801Y2975914D01*
X10531906Y2986328D01*
X10509250Y2994914D01*
X10485983Y3001619D01*
X10462260Y3006496D01*
X10438180Y3009392D01*
X10414000Y3010408D01*
X10389768Y3009392D01*
X10365689Y3006496D01*
X10341965Y3001619D01*
X10318699Y2994914D01*
X10296042Y2986328D01*
X10274147Y2975914D01*
X10253167Y2963824D01*
X10233202Y2950057D01*
X10214457Y2934716D01*
X10196982Y2917952D01*
X10180878Y2899816D01*
X10166350Y2880410D01*
X10153396Y2859938D01*
X10142118Y2838500D01*
X10132618Y2816199D01*
X10124948Y2793187D01*
X10119156Y2769666D01*
X10115296Y2745740D01*
X10113314Y2721610D01*
X10113314Y2697378D01*
X10115296Y2673197D01*
X10119156Y2649321D01*
X10124948Y2625750D01*
X10132618Y2602788D01*
X10142118Y2580487D01*
X10153396Y2559050D01*
X10166350Y2538577D01*
X10180878Y2519172D01*
X10196982Y2501036D01*
X10214457Y2484272D01*
X10233202Y2468930D01*
X10253167Y2455164D01*
X10274147Y2443073D01*
X10296042Y2432659D01*
X10318699Y2424074D01*
X10341965Y2417318D01*
X10365689Y2412492D01*
X10389768Y2409545D01*
G37*
G36*
X10557814Y2133346D02*
G01*
X10678007Y2133346D01*
X10674553Y2139950D01*
X10661599Y2160422D01*
X10647070Y2179777D01*
X10630966Y2197912D01*
X10613491Y2214727D01*
X10594746Y2230018D01*
X10574782Y2243785D01*
X10557814Y2253589D01*
G37*
G36*
X10149941Y2133346D02*
G01*
X10270134Y2133346D01*
X10270134Y2253589D01*
X10253167Y2243785D01*
X10233202Y2230018D01*
X10214457Y2214727D01*
X10196982Y2197912D01*
X10180878Y2179777D01*
X10166350Y2160422D01*
X10153396Y2139950D01*
G37*
G36*
X10547299Y5262168D02*
G01*
X10572546Y5263642D01*
X10597591Y5267045D01*
X10622280Y5272379D01*
X10646511Y5279644D01*
X10670082Y5288737D01*
X10692892Y5299659D01*
X10714786Y5312308D01*
X10735614Y5326583D01*
X10755274Y5342432D01*
X10773664Y5359806D01*
X10790631Y5378500D01*
X10806125Y5398516D01*
X10820044Y5419598D01*
X10832236Y5441746D01*
X10842701Y5464759D01*
X10851337Y5488482D01*
X10858093Y5512866D01*
X10862970Y5537657D01*
X10865916Y5562752D01*
X10866882Y5588000D01*
X10865916Y5613247D01*
X10862970Y5638342D01*
X10858093Y5663133D01*
X10851337Y5687517D01*
X10842701Y5711240D01*
X10832236Y5734253D01*
X10820044Y5756402D01*
X10806125Y5777484D01*
X10790631Y5797499D01*
X10773664Y5816193D01*
X10755274Y5833567D01*
X10735614Y5849416D01*
X10714786Y5863691D01*
X10692892Y5876340D01*
X10670082Y5887262D01*
X10646511Y5896356D01*
X10622280Y5903620D01*
X10597591Y5908954D01*
X10572546Y5912358D01*
X10547299Y5913831D01*
X10522051Y5913323D01*
X10496905Y5910884D01*
X10472013Y5906516D01*
X10447528Y5900216D01*
X10423601Y5892038D01*
X10400436Y5882030D01*
X10378033Y5870244D01*
X10356646Y5856782D01*
X10336377Y5841644D01*
X10317378Y5825032D01*
X10299649Y5806998D01*
X10283393Y5787644D01*
X10268712Y5767070D01*
X10255656Y5745429D01*
X10244328Y5722874D01*
X10234777Y5699455D01*
X10227056Y5675376D01*
X10221214Y5650788D01*
X10217302Y5625846D01*
X10215321Y5600649D01*
X10215321Y5575350D01*
X10217302Y5550154D01*
X10221214Y5525211D01*
X10227056Y5500624D01*
X10234777Y5476544D01*
X10244328Y5453126D01*
X10255656Y5430570D01*
X10268712Y5408930D01*
X10283393Y5388356D01*
X10299649Y5369001D01*
X10317378Y5350967D01*
X10336377Y5334355D01*
X10356646Y5319217D01*
X10378033Y5305755D01*
X10400436Y5293969D01*
X10423601Y5283962D01*
X10447528Y5275783D01*
X10472013Y5269484D01*
X10496905Y5265115D01*
X10522051Y5262676D01*
G37*
G36*
X10270134Y3630371D02*
G01*
X10270134Y3750614D01*
X10149941Y3750614D01*
X10153396Y3744010D01*
X10166350Y3723538D01*
X10180878Y3704183D01*
X10196982Y3686048D01*
X10214457Y3669284D01*
X10233202Y3653942D01*
X10253167Y3640175D01*
G37*
G36*
X10557814Y3630371D02*
G01*
X10574782Y3640175D01*
X10594746Y3653942D01*
X10613491Y3669284D01*
X10630966Y3686048D01*
X10647070Y3704183D01*
X10661599Y3723538D01*
X10674553Y3744010D01*
X10678007Y3750614D01*
X10557814Y3750614D01*
G37*
G36*
X9561626Y5233060D02*
G01*
X9561626Y5311140D01*
X9483547Y5311140D01*
X9490202Y5299151D01*
X9500971Y5283708D01*
X9513265Y5269382D01*
X9526879Y5256428D01*
X9541764Y5244896D01*
X9557766Y5234940D01*
G37*
G36*
X9734346Y5233060D02*
G01*
X9738207Y5234940D01*
X9754158Y5244896D01*
X9769043Y5256428D01*
X9782708Y5269382D01*
X9795002Y5283708D01*
X9805720Y5299151D01*
X9812375Y5311140D01*
X9734346Y5311140D01*
G37*
G36*
X10557814Y1725371D02*
G01*
X10574782Y1735175D01*
X10594746Y1748942D01*
X10613491Y1764284D01*
X10630966Y1781048D01*
X10647070Y1799183D01*
X10661599Y1818538D01*
X10674553Y1839061D01*
X10678007Y1845614D01*
X10557814Y1845614D01*
G37*
G36*
X10270134Y1725371D02*
G01*
X10270134Y1845614D01*
X10149941Y1845614D01*
X10153396Y1839061D01*
X10166350Y1818538D01*
X10180878Y1799183D01*
X10196982Y1781048D01*
X10214457Y1764284D01*
X10233202Y1748942D01*
X10253167Y1735175D01*
G37*
G36*
X10414000Y4313580D02*
G01*
X10438180Y4314545D01*
X10462260Y4317492D01*
X10485983Y4322318D01*
X10509250Y4329074D01*
X10531906Y4337659D01*
X10553801Y4348073D01*
X10574782Y4360164D01*
X10594746Y4373930D01*
X10613491Y4389272D01*
X10630966Y4406036D01*
X10647070Y4424172D01*
X10661599Y4443577D01*
X10674553Y4464050D01*
X10685830Y4485487D01*
X10695330Y4507788D01*
X10703001Y4530750D01*
X10708792Y4554321D01*
X10712704Y4578197D01*
X10714634Y4602378D01*
X10714634Y4626610D01*
X10712704Y4650740D01*
X10708792Y4674666D01*
X10703001Y4698187D01*
X10695330Y4721199D01*
X10685830Y4743500D01*
X10674553Y4764938D01*
X10661599Y4785410D01*
X10647070Y4804765D01*
X10630966Y4822952D01*
X10613491Y4839716D01*
X10594746Y4855057D01*
X10574782Y4868824D01*
X10553801Y4880914D01*
X10531906Y4891328D01*
X10509250Y4899914D01*
X10485983Y4906619D01*
X10462260Y4911496D01*
X10438180Y4914392D01*
X10414000Y4915408D01*
X10389768Y4914392D01*
X10365689Y4911496D01*
X10341965Y4906619D01*
X10318699Y4899914D01*
X10296042Y4891328D01*
X10274147Y4880914D01*
X10253167Y4868824D01*
X10233202Y4855057D01*
X10214457Y4839716D01*
X10196982Y4822952D01*
X10180878Y4804765D01*
X10166350Y4785410D01*
X10153396Y4764938D01*
X10142118Y4743500D01*
X10132618Y4721199D01*
X10124948Y4698187D01*
X10119156Y4674666D01*
X10115296Y4650740D01*
X10113314Y4626610D01*
X10113314Y4602378D01*
X10115296Y4578197D01*
X10119156Y4554321D01*
X10124948Y4530750D01*
X10132618Y4507788D01*
X10142118Y4485487D01*
X10153396Y4464050D01*
X10166350Y4443577D01*
X10180878Y4424172D01*
X10196982Y4406036D01*
X10214457Y4389272D01*
X10233202Y4373930D01*
X10253167Y4360164D01*
X10274147Y4348073D01*
X10296042Y4337659D01*
X10318699Y4329074D01*
X10341965Y4322318D01*
X10365689Y4317492D01*
X10389768Y4314545D01*
G37*
G36*
X10557814Y4038346D02*
G01*
X10678007Y4038346D01*
X10674553Y4044950D01*
X10661599Y4065422D01*
X10647070Y4084777D01*
X10630966Y4102912D01*
X10613491Y4119727D01*
X10594746Y4135018D01*
X10574782Y4148785D01*
X10557814Y4158589D01*
G37*
G36*
X10149941Y4038346D02*
G01*
X10270134Y4038346D01*
X10270134Y4158589D01*
X10253167Y4148785D01*
X10233202Y4135018D01*
X10214457Y4119727D01*
X10196982Y4102912D01*
X10180878Y4084777D01*
X10166350Y4065422D01*
X10153396Y4044950D01*
G37*

%LPD*%
G36*
X381254Y25908D02*
G01*
X355295Y26873D01*
X330098Y29616D01*
X305155Y34137D01*
X280619Y40436D01*
X256590Y48463D01*
X233171Y58166D01*
X210515Y69545D01*
X188722Y82499D01*
X167944Y96977D01*
X148234Y112877D01*
X129692Y130200D01*
X112420Y148742D01*
X96520Y168503D01*
X82092Y189331D01*
X69189Y211175D01*
X57861Y233832D01*
X48209Y257251D01*
X40233Y281330D01*
X33985Y305866D01*
X29514Y330809D01*
X26822Y356006D01*
X25908Y381609D01*
X25908Y5587390D01*
X26873Y5613704D01*
X29616Y5638901D01*
X34137Y5663793D01*
X40436Y5688380D01*
X48463Y5712409D01*
X58166Y5735828D01*
X69545Y5758484D01*
X82499Y5780278D01*
X96977Y5801055D01*
X112877Y5820765D01*
X130200Y5839307D01*
X148742Y5856579D01*
X168503Y5872429D01*
X189331Y5886907D01*
X211175Y5899810D01*
X233832Y5911138D01*
X257251Y5920790D01*
X281330Y5928766D01*
X305866Y5935014D01*
X330809Y5939485D01*
X356057Y5942177D01*
X381609Y5943092D01*
X9387840Y5943092D01*
X9391700Y5942330D01*
X9395002Y5940094D01*
X9397187Y5936792D01*
X9398000Y5932932D01*
X9398000Y1779016D01*
X9398711Y1777288D01*
X10286288Y889711D01*
X10287965Y889000D01*
X10885932Y889000D01*
X10889792Y888237D01*
X10893094Y886002D01*
X10895279Y882700D01*
X10896092Y878840D01*
X10896092Y381609D01*
X10895126Y355295D01*
X10892383Y330098D01*
X10887862Y305155D01*
X10881563Y280619D01*
X10873536Y256590D01*
X10863783Y233171D01*
X10852454Y210515D01*
X10839500Y188722D01*
X10825022Y167944D01*
X10809071Y148183D01*
X10791799Y129692D01*
X10773206Y112420D01*
X10753496Y96520D01*
X10732617Y82092D01*
X10710824Y69189D01*
X10688167Y57861D01*
X10664698Y48209D01*
X10640669Y40233D01*
X10616082Y33985D01*
X10591139Y29514D01*
X10565942Y26822D01*
X10540339Y25908D01*
G37*

%LPC*%
G36*
X7081621Y5570220D02*
G01*
X7129780Y5570220D01*
X7129780Y5618327D01*
X7123175Y5615076D01*
X7111796Y5607507D01*
X7101484Y5598464D01*
X7092492Y5588203D01*
X7084872Y5576824D01*
G37*
G36*
X10547299Y55168D02*
G01*
X10572546Y56641D01*
X10597591Y60045D01*
X10622280Y65379D01*
X10646511Y72644D01*
X10670082Y81737D01*
X10692892Y92659D01*
X10714786Y105308D01*
X10735614Y119583D01*
X10755274Y135432D01*
X10773664Y152806D01*
X10790631Y171500D01*
X10806125Y191516D01*
X10820044Y212598D01*
X10832236Y234746D01*
X10842701Y257759D01*
X10851337Y281482D01*
X10858093Y305866D01*
X10862970Y330657D01*
X10865916Y355752D01*
X10866882Y381000D01*
X10865916Y406247D01*
X10862970Y431342D01*
X10858093Y456133D01*
X10851337Y480517D01*
X10842701Y504240D01*
X10832236Y527253D01*
X10820044Y549402D01*
X10806125Y570484D01*
X10790631Y590499D01*
X10773664Y609193D01*
X10755274Y626567D01*
X10735614Y642416D01*
X10714786Y656691D01*
X10692892Y669340D01*
X10670082Y680262D01*
X10646511Y689356D01*
X10622280Y696620D01*
X10597591Y701954D01*
X10572546Y705358D01*
X10547299Y706831D01*
X10522051Y706323D01*
X10496905Y703884D01*
X10472013Y699516D01*
X10447528Y693216D01*
X10423601Y685038D01*
X10400436Y675030D01*
X10378033Y663244D01*
X10356646Y649782D01*
X10336377Y634644D01*
X10317378Y618032D01*
X10299649Y599998D01*
X10283393Y580644D01*
X10268712Y560070D01*
X10255656Y538429D01*
X10244328Y515874D01*
X10234777Y492455D01*
X10227056Y468376D01*
X10221214Y443788D01*
X10217302Y418846D01*
X10215321Y393649D01*
X10215321Y368350D01*
X10217302Y343154D01*
X10221214Y318211D01*
X10227056Y293624D01*
X10234777Y269544D01*
X10244328Y246125D01*
X10255656Y223570D01*
X10268712Y201930D01*
X10283393Y181356D01*
X10299649Y162001D01*
X10317378Y143967D01*
X10336377Y127355D01*
X10356646Y112217D01*
X10378033Y98755D01*
X10400436Y86969D01*
X10423601Y76962D01*
X10447528Y68783D01*
X10472013Y62484D01*
X10496905Y58115D01*
X10522051Y55676D01*
G37*
G36*
X8247583Y70866D02*
G01*
X8262366Y70866D01*
X8276996Y72694D01*
X8291322Y76250D01*
X8305088Y81584D01*
X8318093Y88595D01*
X8330133Y97129D01*
X8341055Y107035D01*
X8350656Y118262D01*
X8358784Y130556D01*
X8365388Y143764D01*
X8370265Y157683D01*
X8372043Y165811D01*
X8373618Y169418D01*
X8376412Y172161D01*
X8380018Y173634D01*
X8383930Y173634D01*
X8387537Y172161D01*
X8390331Y169418D01*
X8391906Y165811D01*
X8393684Y157683D01*
X8398611Y143764D01*
X8405164Y130556D01*
X8413343Y118262D01*
X8422944Y107035D01*
X8433816Y97129D01*
X8445906Y88595D01*
X8458860Y81584D01*
X8472627Y76250D01*
X8486952Y72694D01*
X8501583Y70866D01*
X8516366Y70866D01*
X8530996Y72694D01*
X8545322Y76250D01*
X8559088Y81584D01*
X8572093Y88595D01*
X8584133Y97129D01*
X8595055Y107035D01*
X8604656Y118262D01*
X8612784Y130556D01*
X8619388Y143764D01*
X8624265Y157683D01*
X8626043Y165811D01*
X8627618Y169418D01*
X8630412Y172161D01*
X8634018Y173634D01*
X8637930Y173634D01*
X8641537Y172161D01*
X8644331Y169418D01*
X8645906Y165811D01*
X8647684Y157683D01*
X8652611Y143764D01*
X8659164Y130556D01*
X8667343Y118262D01*
X8676944Y107035D01*
X8687816Y97129D01*
X8699906Y88595D01*
X8712860Y81584D01*
X8726627Y76250D01*
X8740952Y72694D01*
X8755583Y70866D01*
X8770366Y70866D01*
X8784996Y72694D01*
X8799322Y76250D01*
X8813088Y81584D01*
X8826093Y88595D01*
X8838133Y97129D01*
X8849055Y107035D01*
X8858656Y118262D01*
X8866784Y130556D01*
X8873388Y143764D01*
X8878265Y157683D01*
X8881414Y172110D01*
X8882786Y186791D01*
X8882329Y201574D01*
X8880094Y216154D01*
X8876030Y230327D01*
X8870289Y243941D01*
X8862923Y256692D01*
X8854033Y268478D01*
X8843721Y279095D01*
X8832240Y288340D01*
X8819692Y296113D01*
X8806281Y302260D01*
X8792210Y306730D01*
X8777732Y309473D01*
X8763000Y310388D01*
X8748268Y309473D01*
X8733739Y306730D01*
X8719667Y302260D01*
X8706256Y296113D01*
X8693708Y288340D01*
X8682228Y279095D01*
X8671966Y268478D01*
X8663076Y256692D01*
X8655659Y243941D01*
X8649919Y230327D01*
X8645753Y215646D01*
X8643721Y211836D01*
X8640216Y209194D01*
X8636000Y208279D01*
X8631732Y209194D01*
X8628278Y211836D01*
X8626195Y215646D01*
X8622030Y230327D01*
X8616289Y243941D01*
X8608923Y256692D01*
X8600033Y268478D01*
X8589721Y279095D01*
X8578240Y288340D01*
X8565692Y296113D01*
X8552281Y302260D01*
X8538210Y306730D01*
X8523732Y309473D01*
X8509000Y310388D01*
X8494268Y309473D01*
X8479739Y306730D01*
X8465667Y302260D01*
X8452256Y296113D01*
X8439708Y288340D01*
X8428228Y279095D01*
X8417966Y268478D01*
X8409076Y256692D01*
X8401659Y243941D01*
X8395919Y230327D01*
X8391753Y215646D01*
X8389721Y211836D01*
X8386216Y209194D01*
X8382000Y208279D01*
X8377732Y209194D01*
X8374278Y211836D01*
X8372195Y215646D01*
X8368030Y230327D01*
X8362289Y243941D01*
X8354923Y256692D01*
X8346033Y268478D01*
X8335721Y279095D01*
X8324240Y288340D01*
X8311692Y296113D01*
X8298281Y302260D01*
X8284209Y306730D01*
X8269731Y309473D01*
X8255000Y310388D01*
X8240268Y309473D01*
X8225739Y306730D01*
X8211667Y302260D01*
X8198256Y296113D01*
X8185708Y288340D01*
X8174228Y279095D01*
X8163966Y268478D01*
X8155076Y256692D01*
X8147659Y243941D01*
X8141919Y230327D01*
X8137906Y216154D01*
X8135620Y201574D01*
X8135162Y186791D01*
X8136534Y172110D01*
X8139684Y157683D01*
X8144611Y143764D01*
X8151164Y130556D01*
X8159343Y118262D01*
X8168944Y107035D01*
X8179816Y97129D01*
X8191906Y88595D01*
X8204860Y81584D01*
X8218627Y76250D01*
X8232952Y72694D01*
G37*
G36*
X7221220Y5570220D02*
G01*
X7269327Y5570220D01*
X7266076Y5576824D01*
X7258507Y5588203D01*
X7249464Y5598464D01*
X7239152Y5607507D01*
X7227773Y5615076D01*
X7221220Y5618327D01*
G37*
G36*
X5051704Y5568950D02*
G01*
X5099050Y5568950D01*
X5099050Y5616295D01*
X5097475Y5615635D01*
X5085740Y5608675D01*
X5075021Y5600192D01*
X5065522Y5590387D01*
X5057444Y5579414D01*
G37*
G36*
X5961583Y70866D02*
G01*
X5976366Y70866D01*
X5990996Y72694D01*
X6005322Y76250D01*
X6019088Y81584D01*
X6032093Y88595D01*
X6044133Y97129D01*
X6055055Y107035D01*
X6064656Y118262D01*
X6072784Y130556D01*
X6079388Y143764D01*
X6084265Y157683D01*
X6086043Y165811D01*
X6087618Y169418D01*
X6090412Y172161D01*
X6094018Y173634D01*
X6097930Y173634D01*
X6101537Y172161D01*
X6104331Y169418D01*
X6105906Y165811D01*
X6107684Y157683D01*
X6112611Y143764D01*
X6119164Y130556D01*
X6127343Y118262D01*
X6136944Y107035D01*
X6147816Y97129D01*
X6159906Y88595D01*
X6172860Y81584D01*
X6186627Y76250D01*
X6200952Y72694D01*
X6215583Y70866D01*
X6230366Y70866D01*
X6244996Y72694D01*
X6259322Y76250D01*
X6273088Y81584D01*
X6286093Y88595D01*
X6298133Y97129D01*
X6309055Y107035D01*
X6318656Y118262D01*
X6326784Y130556D01*
X6333388Y143764D01*
X6338265Y157683D01*
X6340043Y165811D01*
X6341618Y169418D01*
X6344412Y172161D01*
X6348018Y173634D01*
X6351930Y173634D01*
X6355537Y172161D01*
X6358331Y169418D01*
X6359906Y165811D01*
X6361684Y157683D01*
X6366611Y143764D01*
X6373164Y130556D01*
X6381343Y118262D01*
X6390944Y107035D01*
X6401816Y97129D01*
X6413906Y88595D01*
X6426860Y81584D01*
X6440627Y76250D01*
X6454952Y72694D01*
X6469583Y70866D01*
X6484366Y70866D01*
X6498996Y72694D01*
X6513322Y76250D01*
X6527088Y81584D01*
X6540093Y88595D01*
X6552133Y97129D01*
X6563055Y107035D01*
X6572656Y118262D01*
X6580784Y130556D01*
X6587388Y143764D01*
X6592265Y157683D01*
X6594043Y165811D01*
X6595618Y169418D01*
X6598412Y172161D01*
X6602018Y173634D01*
X6605930Y173634D01*
X6609537Y172161D01*
X6612331Y169418D01*
X6613906Y165811D01*
X6615684Y157683D01*
X6620611Y143764D01*
X6627164Y130556D01*
X6635343Y118262D01*
X6644944Y107035D01*
X6655816Y97129D01*
X6667906Y88595D01*
X6680860Y81584D01*
X6694627Y76250D01*
X6708952Y72694D01*
X6723583Y70866D01*
X6738366Y70866D01*
X6752996Y72694D01*
X6767322Y76250D01*
X6781088Y81584D01*
X6794093Y88595D01*
X6806133Y97129D01*
X6817055Y107035D01*
X6826656Y118262D01*
X6834784Y130556D01*
X6841388Y143764D01*
X6846265Y157683D01*
X6848043Y165811D01*
X6849618Y169418D01*
X6852412Y172161D01*
X6856018Y173634D01*
X6859930Y173634D01*
X6863537Y172161D01*
X6866331Y169418D01*
X6867906Y165811D01*
X6869684Y157683D01*
X6874611Y143764D01*
X6881164Y130556D01*
X6889343Y118262D01*
X6898944Y107035D01*
X6909816Y97129D01*
X6921906Y88595D01*
X6934860Y81584D01*
X6948627Y76250D01*
X6962952Y72694D01*
X6977583Y70866D01*
X6992366Y70866D01*
X7006996Y72694D01*
X7021322Y76250D01*
X7035088Y81584D01*
X7048093Y88595D01*
X7060133Y97129D01*
X7071055Y107035D01*
X7080656Y118262D01*
X7088784Y130556D01*
X7095388Y143764D01*
X7100265Y157683D01*
X7102043Y165811D01*
X7103618Y169418D01*
X7106412Y172161D01*
X7110018Y173634D01*
X7113930Y173634D01*
X7117537Y172161D01*
X7120331Y169418D01*
X7121906Y165811D01*
X7123684Y157683D01*
X7128611Y143764D01*
X7135164Y130556D01*
X7143343Y118262D01*
X7152944Y107035D01*
X7163816Y97129D01*
X7175906Y88595D01*
X7188860Y81584D01*
X7202627Y76250D01*
X7216952Y72694D01*
X7231583Y70866D01*
X7246366Y70866D01*
X7260996Y72694D01*
X7275322Y76250D01*
X7289088Y81584D01*
X7302093Y88595D01*
X7314133Y97129D01*
X7325055Y107035D01*
X7334656Y118262D01*
X7342784Y130556D01*
X7349388Y143764D01*
X7354265Y157683D01*
X7356043Y165811D01*
X7357618Y169418D01*
X7360412Y172161D01*
X7364018Y173634D01*
X7367930Y173634D01*
X7371537Y172161D01*
X7374331Y169418D01*
X7375906Y165811D01*
X7377684Y157683D01*
X7382611Y143764D01*
X7389164Y130556D01*
X7397343Y118262D01*
X7406944Y107035D01*
X7417816Y97129D01*
X7429906Y88595D01*
X7442860Y81584D01*
X7456627Y76250D01*
X7470952Y72694D01*
X7485583Y70866D01*
X7500366Y70866D01*
X7514996Y72694D01*
X7529322Y76250D01*
X7543088Y81584D01*
X7556093Y88595D01*
X7568133Y97129D01*
X7579055Y107035D01*
X7588656Y118262D01*
X7596784Y130556D01*
X7603388Y143764D01*
X7608265Y157683D01*
X7610043Y165811D01*
X7611618Y169418D01*
X7614412Y172161D01*
X7618018Y173634D01*
X7621930Y173634D01*
X7625537Y172161D01*
X7628331Y169418D01*
X7629906Y165811D01*
X7631684Y157683D01*
X7636611Y143764D01*
X7643164Y130556D01*
X7651343Y118262D01*
X7660944Y107035D01*
X7671816Y97129D01*
X7683906Y88595D01*
X7696860Y81584D01*
X7710627Y76250D01*
X7724952Y72694D01*
X7739583Y70866D01*
X7754366Y70866D01*
X7768996Y72694D01*
X7783322Y76250D01*
X7797088Y81584D01*
X7810093Y88595D01*
X7822133Y97129D01*
X7833055Y107035D01*
X7842656Y118262D01*
X7850784Y130556D01*
X7857388Y143764D01*
X7862265Y157683D01*
X7865414Y172110D01*
X7866786Y186791D01*
X7866329Y201574D01*
X7864043Y216255D01*
X7860030Y230327D01*
X7854289Y243941D01*
X7846923Y256692D01*
X7838033Y268478D01*
X7827721Y279095D01*
X7816240Y288340D01*
X7803692Y296113D01*
X7790281Y302260D01*
X7776209Y306730D01*
X7761731Y309473D01*
X7747000Y310388D01*
X7732268Y309473D01*
X7717739Y306730D01*
X7703667Y302260D01*
X7690256Y296113D01*
X7677708Y288340D01*
X7666228Y279095D01*
X7655966Y268478D01*
X7647076Y256692D01*
X7639659Y243941D01*
X7633919Y230327D01*
X7629753Y215646D01*
X7627721Y211836D01*
X7624216Y209194D01*
X7620000Y208279D01*
X7615732Y209194D01*
X7612278Y211836D01*
X7610195Y215646D01*
X7606030Y230327D01*
X7600289Y243941D01*
X7592923Y256692D01*
X7584033Y268478D01*
X7573721Y279095D01*
X7562240Y288340D01*
X7549692Y296113D01*
X7536281Y302260D01*
X7522209Y306730D01*
X7507731Y309473D01*
X7493000Y310388D01*
X7478268Y309473D01*
X7463739Y306730D01*
X7449667Y302260D01*
X7436256Y296113D01*
X7423708Y288340D01*
X7412228Y279095D01*
X7401966Y268478D01*
X7393076Y256692D01*
X7385659Y243941D01*
X7379919Y230327D01*
X7375753Y215646D01*
X7373721Y211836D01*
X7370216Y209194D01*
X7366000Y208279D01*
X7361732Y209194D01*
X7358278Y211836D01*
X7356195Y215646D01*
X7352030Y230327D01*
X7346289Y243941D01*
X7338923Y256692D01*
X7330033Y268478D01*
X7319721Y279095D01*
X7308240Y288340D01*
X7295692Y296113D01*
X7282281Y302260D01*
X7268209Y306730D01*
X7253731Y309473D01*
X7239000Y310388D01*
X7224268Y309473D01*
X7209739Y306730D01*
X7195667Y302260D01*
X7182256Y296113D01*
X7169708Y288340D01*
X7158228Y279095D01*
X7147966Y268478D01*
X7139076Y256692D01*
X7131659Y243941D01*
X7125919Y230327D01*
X7121753Y215646D01*
X7119721Y211836D01*
X7116216Y209194D01*
X7112000Y208279D01*
X7107732Y209194D01*
X7104278Y211836D01*
X7102195Y215646D01*
X7098030Y230327D01*
X7092289Y243941D01*
X7084923Y256692D01*
X7076033Y268478D01*
X7065721Y279095D01*
X7054240Y288340D01*
X7041692Y296113D01*
X7028281Y302260D01*
X7014209Y306730D01*
X6999731Y309473D01*
X6985000Y310388D01*
X6970268Y309473D01*
X6955739Y306730D01*
X6941667Y302260D01*
X6928256Y296113D01*
X6915708Y288340D01*
X6904228Y279095D01*
X6893966Y268478D01*
X6885076Y256692D01*
X6877659Y243941D01*
X6871919Y230327D01*
X6867753Y215646D01*
X6865721Y211836D01*
X6862216Y209194D01*
X6858000Y208279D01*
X6853732Y209194D01*
X6850278Y211836D01*
X6848195Y215646D01*
X6844030Y230327D01*
X6838289Y243941D01*
X6830923Y256692D01*
X6822033Y268478D01*
X6811721Y279095D01*
X6800240Y288340D01*
X6787692Y296113D01*
X6774281Y302260D01*
X6760209Y306730D01*
X6745731Y309473D01*
X6731000Y310388D01*
X6716268Y309473D01*
X6701739Y306730D01*
X6687667Y302260D01*
X6674256Y296113D01*
X6661708Y288340D01*
X6650228Y279095D01*
X6639966Y268478D01*
X6631076Y256692D01*
X6623659Y243941D01*
X6617919Y230327D01*
X6613753Y215646D01*
X6611721Y211836D01*
X6608216Y209194D01*
X6604000Y208279D01*
X6599732Y209194D01*
X6596278Y211836D01*
X6594195Y215646D01*
X6590030Y230327D01*
X6584289Y243941D01*
X6576923Y256692D01*
X6568033Y268478D01*
X6557721Y279095D01*
X6546240Y288340D01*
X6533692Y296113D01*
X6520281Y302260D01*
X6506209Y306730D01*
X6491732Y309473D01*
X6477000Y310388D01*
X6462268Y309473D01*
X6447739Y306730D01*
X6433667Y302260D01*
X6420256Y296113D01*
X6407708Y288340D01*
X6396228Y279095D01*
X6385966Y268478D01*
X6377076Y256692D01*
X6369659Y243941D01*
X6363919Y230327D01*
X6359753Y215646D01*
X6357721Y211836D01*
X6354216Y209194D01*
X6350000Y208279D01*
X6345732Y209194D01*
X6342278Y211836D01*
X6340195Y215646D01*
X6336030Y230327D01*
X6330289Y243941D01*
X6322923Y256692D01*
X6314033Y268478D01*
X6303721Y279095D01*
X6292240Y288340D01*
X6279692Y296113D01*
X6266281Y302260D01*
X6252210Y306730D01*
X6237732Y309473D01*
X6223000Y310388D01*
X6208268Y309473D01*
X6193739Y306730D01*
X6179667Y302260D01*
X6166256Y296113D01*
X6153708Y288340D01*
X6142228Y279095D01*
X6131966Y268478D01*
X6123076Y256692D01*
X6115659Y243941D01*
X6109919Y230327D01*
X6105753Y215646D01*
X6103721Y211836D01*
X6100216Y209194D01*
X6096000Y208279D01*
X6091732Y209194D01*
X6088278Y211836D01*
X6086195Y215646D01*
X6082030Y230327D01*
X6076289Y243941D01*
X6068923Y256692D01*
X6060033Y268478D01*
X6049721Y279095D01*
X6038240Y288340D01*
X6025692Y296113D01*
X6013500Y301701D01*
X6010402Y303936D01*
X6008319Y307187D01*
X6007608Y310946D01*
X6007608Y424332D01*
X6008370Y428193D01*
X6010605Y431495D01*
X6045504Y466394D01*
X6048806Y468630D01*
X6052667Y469392D01*
X6368491Y469392D01*
X6372402Y468630D01*
X6375704Y466394D01*
X6377279Y464820D01*
X6385306Y459181D01*
X6394196Y455066D01*
X6403695Y452526D01*
X6413500Y451662D01*
X6423253Y452526D01*
X6432753Y455066D01*
X6441643Y459181D01*
X6449720Y464820D01*
X6456629Y471779D01*
X6462268Y479806D01*
X6466433Y488746D01*
X6468973Y498195D01*
X6469837Y508000D01*
X6468973Y517804D01*
X6466433Y527253D01*
X6462268Y536194D01*
X6456629Y544220D01*
X6449720Y551180D01*
X6441643Y556818D01*
X6432753Y560933D01*
X6423253Y563473D01*
X6413500Y564337D01*
X6403695Y563473D01*
X6394196Y560933D01*
X6385306Y556818D01*
X6377279Y551180D01*
X6375704Y549605D01*
X6372402Y547370D01*
X6368491Y546608D01*
X6033008Y546608D01*
X6024981Y545795D01*
X6017717Y543610D01*
X6011062Y540054D01*
X6004814Y534924D01*
X5942076Y472185D01*
X5936945Y465937D01*
X5933389Y459282D01*
X5931204Y452018D01*
X5930392Y443992D01*
X5930392Y310946D01*
X5929680Y307187D01*
X5927598Y303936D01*
X5924499Y301701D01*
X5912256Y296113D01*
X5899708Y288340D01*
X5888228Y279095D01*
X5877966Y268478D01*
X5869076Y256692D01*
X5861659Y243941D01*
X5855919Y230327D01*
X5851906Y216154D01*
X5849620Y201574D01*
X5849162Y186791D01*
X5850534Y172110D01*
X5853684Y157683D01*
X5858611Y143764D01*
X5865164Y130556D01*
X5873343Y118262D01*
X5882944Y107035D01*
X5893816Y97129D01*
X5905906Y88595D01*
X5918860Y81584D01*
X5932627Y76250D01*
X5946952Y72694D01*
G37*
G36*
X5441950Y5568950D02*
G01*
X5489295Y5568950D01*
X5483555Y5579414D01*
X5475478Y5590387D01*
X5465978Y5600192D01*
X5455259Y5608675D01*
X5443524Y5615635D01*
X5441950Y5616295D01*
G37*
G36*
X5305704Y5568950D02*
G01*
X5353050Y5568950D01*
X5353050Y5616295D01*
X5351475Y5615635D01*
X5339740Y5608675D01*
X5329021Y5600192D01*
X5319522Y5590387D01*
X5311444Y5579414D01*
G37*
G36*
X5187950Y5568950D02*
G01*
X5235295Y5568950D01*
X5229555Y5579414D01*
X5221478Y5590387D01*
X5211978Y5600192D01*
X5201259Y5608675D01*
X5189524Y5615635D01*
X5187950Y5616295D01*
G37*
G36*
X5099050Y5432856D02*
G01*
X5099050Y5480050D01*
X5051856Y5480050D01*
X5053990Y5475427D01*
X5061305Y5463946D01*
X5070094Y5453532D01*
X5080254Y5444388D01*
X5091480Y5436666D01*
G37*
G36*
X5187950Y5432856D02*
G01*
X5195519Y5436666D01*
X5206746Y5444388D01*
X5216906Y5453532D01*
X5225694Y5463946D01*
X5233009Y5475427D01*
X5235143Y5480050D01*
X5187950Y5480050D01*
G37*
G36*
X5353050Y5432856D02*
G01*
X5353050Y5480050D01*
X5305856Y5480050D01*
X5307990Y5475427D01*
X5315305Y5463946D01*
X5324094Y5453532D01*
X5334254Y5444388D01*
X5345480Y5436666D01*
G37*
G36*
X5441950Y5432856D02*
G01*
X5449519Y5436666D01*
X5460746Y5444388D01*
X5470906Y5453532D01*
X5479694Y5463946D01*
X5487009Y5475427D01*
X5489143Y5480050D01*
X5441950Y5480050D01*
G37*
G36*
X7947659Y83362D02*
G01*
X7947659Y137160D01*
X7893913Y137160D01*
X7897164Y130556D01*
X7905343Y118262D01*
X7914944Y107035D01*
X7925816Y97129D01*
X7937906Y88595D01*
G37*
G36*
X8054340Y83362D02*
G01*
X8064093Y88595D01*
X8076133Y97129D01*
X8087055Y107035D01*
X8096656Y118262D01*
X8104784Y130556D01*
X8108086Y137160D01*
X8054340Y137160D01*
G37*
G36*
X4127500Y138125D02*
G01*
X4142028Y139039D01*
X4156303Y141732D01*
X4170172Y146253D01*
X4183329Y152450D01*
X4195622Y160223D01*
X4206798Y169519D01*
X4216806Y180136D01*
X4225340Y191922D01*
X4232351Y204673D01*
X4237685Y218186D01*
X4241342Y232257D01*
X4243171Y246735D01*
X4243171Y261264D01*
X4241342Y275691D01*
X4237685Y289814D01*
X4232351Y303326D01*
X4225340Y316077D01*
X4216806Y327863D01*
X4206798Y338480D01*
X4195622Y347776D01*
X4183329Y355549D01*
X4170172Y361746D01*
X4156303Y366268D01*
X4142028Y368960D01*
X4127500Y369874D01*
X4112971Y368960D01*
X4098696Y366268D01*
X4084828Y361746D01*
X4071670Y355549D01*
X4059377Y347776D01*
X4048150Y338480D01*
X4038193Y327863D01*
X4029659Y316077D01*
X4022648Y303326D01*
X4017264Y289814D01*
X4013657Y275691D01*
X4011828Y261264D01*
X4011828Y246735D01*
X4013657Y232257D01*
X4017264Y218186D01*
X4022648Y204673D01*
X4029659Y191922D01*
X4038193Y180136D01*
X4048150Y169519D01*
X4059377Y160223D01*
X4071670Y152450D01*
X4084828Y146253D01*
X4098696Y141732D01*
X4112971Y139039D01*
G37*
G36*
X5143500Y138125D02*
G01*
X5158028Y139039D01*
X5172303Y141732D01*
X5186172Y146253D01*
X5199329Y152450D01*
X5211622Y160223D01*
X5222798Y169519D01*
X5232806Y180136D01*
X5241340Y191922D01*
X5248351Y204673D01*
X5253685Y218186D01*
X5257342Y232257D01*
X5259171Y246735D01*
X5259171Y261264D01*
X5257342Y275691D01*
X5253685Y289814D01*
X5248351Y303326D01*
X5241340Y316077D01*
X5232806Y327863D01*
X5222798Y338480D01*
X5211622Y347776D01*
X5199329Y355549D01*
X5186172Y361746D01*
X5172303Y366268D01*
X5158028Y368960D01*
X5143500Y369874D01*
X5128971Y368960D01*
X5114696Y366268D01*
X5100828Y361746D01*
X5087670Y355549D01*
X5075377Y347776D01*
X5064150Y338480D01*
X5054193Y327863D01*
X5045659Y316077D01*
X5038648Y303326D01*
X5033264Y289814D01*
X5029657Y275691D01*
X5027828Y261264D01*
X5027828Y246735D01*
X5029657Y232257D01*
X5033264Y218186D01*
X5038648Y204673D01*
X5045659Y191922D01*
X5054193Y180136D01*
X5064150Y169519D01*
X5075377Y160223D01*
X5087670Y152450D01*
X5100828Y146253D01*
X5114696Y141732D01*
X5128971Y139039D01*
G37*
G36*
X3425596Y151942D02*
G01*
X3439210Y152400D01*
X3452672Y154686D01*
X3465677Y158750D01*
X3478072Y164490D01*
X3489553Y171805D01*
X3499967Y180594D01*
X3509111Y190703D01*
X3516833Y201980D01*
X3522979Y214121D01*
X3527450Y227025D01*
X3530193Y240385D01*
X3531057Y254000D01*
X3530193Y267614D01*
X3527450Y280974D01*
X3522979Y293827D01*
X3516833Y306019D01*
X3509111Y317246D01*
X3499967Y327355D01*
X3489553Y336194D01*
X3478072Y343509D01*
X3465677Y349250D01*
X3452672Y353314D01*
X3439210Y355549D01*
X3425596Y356006D01*
X3412032Y354634D01*
X3398774Y351485D01*
X3386023Y346608D01*
X3374085Y340055D01*
X3363061Y331927D01*
X3353308Y322478D01*
X3344824Y311759D01*
X3337864Y300024D01*
X3332581Y287477D01*
X3328974Y274320D01*
X3327146Y260807D01*
X3327146Y247192D01*
X3328974Y233679D01*
X3332581Y220522D01*
X3337864Y207975D01*
X3344824Y196240D01*
X3353308Y185521D01*
X3363061Y176022D01*
X3374085Y167944D01*
X3386023Y161391D01*
X3398774Y156514D01*
X3412032Y153314D01*
G37*
G36*
X1098550Y162204D02*
G01*
X1098550Y209550D01*
X1051204Y209550D01*
X1051864Y207975D01*
X1058824Y196240D01*
X1067308Y185521D01*
X1077061Y176022D01*
X1088085Y167944D01*
G37*
G36*
X1187450Y162356D02*
G01*
X1192072Y164490D01*
X1203553Y171805D01*
X1213967Y180594D01*
X1223111Y190703D01*
X1230833Y201980D01*
X1234643Y209550D01*
X1187450Y209550D01*
G37*
G36*
X7129780Y5430621D02*
G01*
X7129780Y5478780D01*
X7081621Y5478780D01*
X7084872Y5472176D01*
X7092492Y5460796D01*
X7101484Y5450484D01*
X7111796Y5441492D01*
X7123175Y5433872D01*
G37*
G36*
X7221220Y5430621D02*
G01*
X7227773Y5433872D01*
X7239152Y5441492D01*
X7249464Y5450484D01*
X7258507Y5460796D01*
X7266076Y5472176D01*
X7269327Y5478780D01*
X7221220Y5478780D01*
G37*
G36*
X6159500Y5422392D02*
G01*
X6173114Y5423306D01*
X6186474Y5426049D01*
X6199378Y5430520D01*
X6211519Y5436666D01*
X6222746Y5444388D01*
X6232906Y5453532D01*
X6241694Y5463946D01*
X6249009Y5475427D01*
X6254750Y5487822D01*
X6258814Y5500827D01*
X6261049Y5514289D01*
X6261506Y5527903D01*
X6260185Y5541467D01*
X6256985Y5554726D01*
X6252108Y5567476D01*
X6245555Y5579414D01*
X6237478Y5590387D01*
X6227978Y5600192D01*
X6217259Y5608675D01*
X6205524Y5615635D01*
X6192977Y5620918D01*
X6179820Y5624525D01*
X6166307Y5626354D01*
X6152692Y5626354D01*
X6139180Y5624525D01*
X6126022Y5620918D01*
X6113475Y5615635D01*
X6101740Y5608675D01*
X6091021Y5600192D01*
X6081522Y5590387D01*
X6073444Y5579414D01*
X6066891Y5567476D01*
X6062014Y5554726D01*
X6058814Y5541467D01*
X6057493Y5527903D01*
X6057950Y5514289D01*
X6060186Y5500827D01*
X6064250Y5487822D01*
X6069990Y5475427D01*
X6077305Y5463946D01*
X6086094Y5453532D01*
X6096254Y5444388D01*
X6107480Y5436666D01*
X6119622Y5430520D01*
X6132525Y5426049D01*
X6145885Y5423306D01*
G37*
G36*
X5905500Y5422392D02*
G01*
X5919114Y5423306D01*
X5932474Y5426049D01*
X5945378Y5430520D01*
X5957519Y5436666D01*
X5968746Y5444388D01*
X5978906Y5453532D01*
X5987694Y5463946D01*
X5995009Y5475427D01*
X6000750Y5487822D01*
X6004814Y5500827D01*
X6007049Y5514289D01*
X6007506Y5527903D01*
X6006185Y5541467D01*
X6002985Y5554726D01*
X5998108Y5567476D01*
X5991555Y5579414D01*
X5983478Y5590387D01*
X5973978Y5600192D01*
X5963259Y5608675D01*
X5951524Y5615635D01*
X5938977Y5620918D01*
X5925820Y5624525D01*
X5912307Y5626354D01*
X5898692Y5626354D01*
X5885180Y5624525D01*
X5872022Y5620918D01*
X5859475Y5615635D01*
X5847740Y5608675D01*
X5837021Y5600192D01*
X5827522Y5590387D01*
X5819444Y5579414D01*
X5812891Y5567476D01*
X5808014Y5554726D01*
X5804814Y5541467D01*
X5803493Y5527903D01*
X5803950Y5514289D01*
X5806186Y5500827D01*
X5810250Y5487822D01*
X5815990Y5475427D01*
X5823305Y5463946D01*
X5832094Y5453532D01*
X5842254Y5444388D01*
X5853480Y5436666D01*
X5865622Y5430520D01*
X5878525Y5426049D01*
X5891885Y5423306D01*
G37*
G36*
X5651500Y5422392D02*
G01*
X5665114Y5423306D01*
X5678474Y5426049D01*
X5691378Y5430520D01*
X5703519Y5436666D01*
X5714746Y5444388D01*
X5724906Y5453532D01*
X5733694Y5463946D01*
X5741009Y5475427D01*
X5746750Y5487822D01*
X5750814Y5500827D01*
X5753049Y5514289D01*
X5753506Y5527903D01*
X5752185Y5541467D01*
X5748985Y5554726D01*
X5744108Y5567476D01*
X5737555Y5579414D01*
X5729478Y5590387D01*
X5719978Y5600192D01*
X5709259Y5608675D01*
X5697524Y5615635D01*
X5684977Y5620918D01*
X5671820Y5624525D01*
X5658307Y5626354D01*
X5644692Y5626354D01*
X5631180Y5624525D01*
X5618022Y5620918D01*
X5605475Y5615635D01*
X5593740Y5608675D01*
X5583021Y5600192D01*
X5573522Y5590387D01*
X5565444Y5579414D01*
X5558891Y5567476D01*
X5554014Y5554726D01*
X5550814Y5541467D01*
X5549493Y5527903D01*
X5549950Y5514289D01*
X5552186Y5500827D01*
X5556250Y5487822D01*
X5561990Y5475427D01*
X5569305Y5463946D01*
X5578094Y5453532D01*
X5588254Y5444388D01*
X5599480Y5436666D01*
X5611622Y5430520D01*
X5624525Y5426049D01*
X5637885Y5423306D01*
G37*
G36*
X6413500Y5422392D02*
G01*
X6427114Y5423306D01*
X6440474Y5426049D01*
X6453378Y5430520D01*
X6465519Y5436666D01*
X6476746Y5444388D01*
X6486906Y5453532D01*
X6495694Y5463946D01*
X6503009Y5475427D01*
X6508750Y5487822D01*
X6512814Y5500827D01*
X6515049Y5514289D01*
X6515506Y5527903D01*
X6514185Y5541467D01*
X6510985Y5554726D01*
X6506108Y5567476D01*
X6499555Y5579414D01*
X6491478Y5590387D01*
X6481978Y5600192D01*
X6471259Y5608675D01*
X6459524Y5615635D01*
X6446977Y5620918D01*
X6433820Y5624525D01*
X6420307Y5626354D01*
X6406692Y5626354D01*
X6393180Y5624525D01*
X6380022Y5620918D01*
X6367475Y5615635D01*
X6355740Y5608675D01*
X6345021Y5600192D01*
X6335522Y5590387D01*
X6327444Y5579414D01*
X6320891Y5567476D01*
X6316014Y5554726D01*
X6312814Y5541467D01*
X6311493Y5527903D01*
X6311950Y5514289D01*
X6314186Y5500827D01*
X6318250Y5487822D01*
X6323990Y5475427D01*
X6331305Y5463946D01*
X6340094Y5453532D01*
X6350254Y5444388D01*
X6361480Y5436666D01*
X6373622Y5430520D01*
X6386525Y5426049D01*
X6399885Y5423306D01*
G37*
G36*
X7605318Y5419852D02*
G01*
X7761630Y5419852D01*
X7767980Y5420563D01*
X7773416Y5422442D01*
X7778343Y5425541D01*
X7782407Y5429656D01*
X7785506Y5434533D01*
X7787436Y5440019D01*
X7788148Y5446318D01*
X7788148Y5602681D01*
X7787436Y5608980D01*
X7785506Y5614466D01*
X7782407Y5619343D01*
X7778343Y5623458D01*
X7773416Y5626506D01*
X7767980Y5628436D01*
X7761630Y5629148D01*
X7605318Y5629148D01*
X7598968Y5628436D01*
X7593533Y5626506D01*
X7588656Y5623458D01*
X7584541Y5619343D01*
X7581442Y5614466D01*
X7579563Y5608980D01*
X7578852Y5602681D01*
X7578852Y5446318D01*
X7579563Y5440019D01*
X7581442Y5434533D01*
X7584541Y5429656D01*
X7588656Y5425541D01*
X7593533Y5422442D01*
X7598968Y5420563D01*
G37*
G36*
X7429500Y5419852D02*
G01*
X7443165Y5420766D01*
X7456576Y5423408D01*
X7469530Y5427827D01*
X7481773Y5433872D01*
X7493152Y5441492D01*
X7503464Y5450484D01*
X7512507Y5460796D01*
X7520076Y5472176D01*
X7526121Y5484469D01*
X7530541Y5497423D01*
X7533233Y5510834D01*
X7534097Y5524500D01*
X7533233Y5538165D01*
X7530541Y5551576D01*
X7526121Y5564530D01*
X7520076Y5576824D01*
X7512507Y5588203D01*
X7503464Y5598464D01*
X7493152Y5607507D01*
X7481773Y5615076D01*
X7469530Y5621172D01*
X7456576Y5625541D01*
X7443165Y5628233D01*
X7429500Y5629097D01*
X7415834Y5628233D01*
X7402423Y5625541D01*
X7389469Y5621172D01*
X7377175Y5615076D01*
X7365796Y5607507D01*
X7355484Y5598464D01*
X7346492Y5588203D01*
X7338872Y5576824D01*
X7332827Y5564530D01*
X7328408Y5551576D01*
X7325766Y5538165D01*
X7324852Y5524500D01*
X7325766Y5510834D01*
X7328408Y5497423D01*
X7332827Y5484469D01*
X7338872Y5472176D01*
X7346492Y5460796D01*
X7355484Y5450484D01*
X7365796Y5441492D01*
X7377175Y5433872D01*
X7389469Y5427827D01*
X7402423Y5423408D01*
X7415834Y5420766D01*
G37*
G36*
X8445500Y5289042D02*
G01*
X8459622Y5289956D01*
X8473541Y5292750D01*
X8487003Y5297322D01*
X8499703Y5303570D01*
X8511489Y5311444D01*
X8522157Y5320792D01*
X8531504Y5331460D01*
X8539378Y5343296D01*
X8545677Y5355996D01*
X8550198Y5369407D01*
X8552992Y5383326D01*
X8553907Y5397500D01*
X8552992Y5411622D01*
X8550198Y5425541D01*
X8545677Y5439003D01*
X8539378Y5451703D01*
X8531504Y5463489D01*
X8522157Y5474157D01*
X8511489Y5483504D01*
X8499703Y5491378D01*
X8487003Y5497677D01*
X8473541Y5502249D01*
X8459622Y5504992D01*
X8445500Y5505907D01*
X8431326Y5504992D01*
X8417407Y5502249D01*
X8403996Y5497677D01*
X8391245Y5491378D01*
X8379459Y5483504D01*
X8368792Y5474157D01*
X8359444Y5463489D01*
X8351570Y5451703D01*
X8345322Y5439003D01*
X8340750Y5425541D01*
X8337956Y5411622D01*
X8337042Y5397500D01*
X8337956Y5383326D01*
X8340750Y5369407D01*
X8345322Y5355996D01*
X8351570Y5343296D01*
X8359444Y5331460D01*
X8368792Y5320792D01*
X8379459Y5311444D01*
X8391245Y5303570D01*
X8403996Y5297322D01*
X8417407Y5292750D01*
X8431326Y5289956D01*
G37*
G36*
X8054340Y243840D02*
G01*
X8108340Y243840D01*
X8100923Y256692D01*
X8092033Y268478D01*
X8081721Y279095D01*
X8070240Y288340D01*
X8057692Y296113D01*
X8054340Y297637D01*
G37*
G36*
X7893659Y243840D02*
G01*
X7947659Y243840D01*
X7947659Y297637D01*
X7944256Y296113D01*
X7931708Y288340D01*
X7920228Y279095D01*
X7909966Y268478D01*
X7901076Y256692D01*
G37*
G36*
X1187450Y298450D02*
G01*
X1234643Y298450D01*
X1230833Y306019D01*
X1223111Y317246D01*
X1213967Y327355D01*
X1203553Y336194D01*
X1192072Y343509D01*
X1187450Y345643D01*
G37*
G36*
X1051204Y298450D02*
G01*
X1098550Y298450D01*
X1098550Y345795D01*
X1088085Y340055D01*
X1077061Y331927D01*
X1067308Y322478D01*
X1058824Y311759D01*
X1051864Y300024D01*
G37*
G36*
X5143500Y392125D02*
G01*
X5158028Y393039D01*
X5172303Y395732D01*
X5186172Y400253D01*
X5199329Y406450D01*
X5211622Y414223D01*
X5222798Y423519D01*
X5232806Y434136D01*
X5241340Y445922D01*
X5248351Y458673D01*
X5253685Y472185D01*
X5257342Y486257D01*
X5259171Y500735D01*
X5259171Y515264D01*
X5257342Y529691D01*
X5253685Y543814D01*
X5248351Y557326D01*
X5241340Y570077D01*
X5232806Y581863D01*
X5222798Y592480D01*
X5211622Y601776D01*
X5199329Y609549D01*
X5186172Y615746D01*
X5172303Y620268D01*
X5158028Y622960D01*
X5143500Y623874D01*
X5128971Y622960D01*
X5114696Y620268D01*
X5100828Y615746D01*
X5087670Y609549D01*
X5075377Y601776D01*
X5064150Y592480D01*
X5054193Y581863D01*
X5045659Y570077D01*
X5038648Y557326D01*
X5033264Y543814D01*
X5029657Y529691D01*
X5027828Y515264D01*
X5027828Y500735D01*
X5029657Y486257D01*
X5033264Y472185D01*
X5038648Y458673D01*
X5045659Y445922D01*
X5054193Y434136D01*
X5064150Y423519D01*
X5075377Y414223D01*
X5087670Y406450D01*
X5100828Y400253D01*
X5114696Y395732D01*
X5128971Y393039D01*
G37*
G36*
X4127500Y392125D02*
G01*
X4142028Y393039D01*
X4156303Y395732D01*
X4170172Y400253D01*
X4183329Y406450D01*
X4195622Y414223D01*
X4206798Y423519D01*
X4216806Y434136D01*
X4225340Y445922D01*
X4232351Y458673D01*
X4237685Y472185D01*
X4241342Y486257D01*
X4243171Y500735D01*
X4243171Y515264D01*
X4241342Y529691D01*
X4237685Y543814D01*
X4232351Y557326D01*
X4225340Y570077D01*
X4216806Y581863D01*
X4206798Y592480D01*
X4195622Y601776D01*
X4183329Y609549D01*
X4170172Y615746D01*
X4156303Y620268D01*
X4142028Y622960D01*
X4127500Y623874D01*
X4112971Y622960D01*
X4098696Y620268D01*
X4084828Y615746D01*
X4071670Y609549D01*
X4059377Y601776D01*
X4048150Y592480D01*
X4038193Y581863D01*
X4029659Y570077D01*
X4022648Y557326D01*
X4017264Y543814D01*
X4013657Y529691D01*
X4011828Y515264D01*
X4011828Y500735D01*
X4013657Y486257D01*
X4017264Y472185D01*
X4022648Y458673D01*
X4029659Y445922D01*
X4038193Y434136D01*
X4048150Y423519D01*
X4059377Y414223D01*
X4071670Y406450D01*
X4084828Y400253D01*
X4098696Y395732D01*
X4112971Y393039D01*
G37*
G36*
X1139596Y405942D02*
G01*
X1153210Y406400D01*
X1166672Y408686D01*
X1179677Y412750D01*
X1192072Y418490D01*
X1203553Y425805D01*
X1213967Y434593D01*
X1223111Y444703D01*
X1230833Y455980D01*
X1236980Y468122D01*
X1241450Y481025D01*
X1244193Y494385D01*
X1245057Y508000D01*
X1244193Y521614D01*
X1241450Y534974D01*
X1236980Y547827D01*
X1230833Y560019D01*
X1223111Y571246D01*
X1213967Y581355D01*
X1203553Y590194D01*
X1192072Y597509D01*
X1179677Y603250D01*
X1166672Y607314D01*
X1153210Y609549D01*
X1139596Y610006D01*
X1126032Y608634D01*
X1112774Y605485D01*
X1100023Y600608D01*
X1088085Y594055D01*
X1077061Y585927D01*
X1067308Y576478D01*
X1058824Y565759D01*
X1051864Y554024D01*
X1046581Y541477D01*
X1042974Y528320D01*
X1041146Y514807D01*
X1041146Y501192D01*
X1042974Y487680D01*
X1046581Y474522D01*
X1051864Y461975D01*
X1058824Y450240D01*
X1067308Y439521D01*
X1077061Y430022D01*
X1088085Y421944D01*
X1100023Y415391D01*
X1112774Y410514D01*
X1126032Y407314D01*
G37*
G36*
X3425596Y405942D02*
G01*
X3439210Y406400D01*
X3452672Y408686D01*
X3465677Y412750D01*
X3478072Y418490D01*
X3489553Y425805D01*
X3499967Y434593D01*
X3509111Y444703D01*
X3516833Y455980D01*
X3522979Y468122D01*
X3527450Y481025D01*
X3530193Y494385D01*
X3531057Y508000D01*
X3530193Y521614D01*
X3527450Y534974D01*
X3522979Y547827D01*
X3516833Y560019D01*
X3509111Y571246D01*
X3499967Y581355D01*
X3489553Y590194D01*
X3478072Y597509D01*
X3465677Y603250D01*
X3452672Y607314D01*
X3439210Y609549D01*
X3425596Y610006D01*
X3412032Y608634D01*
X3398774Y605485D01*
X3386023Y600608D01*
X3374085Y594055D01*
X3363061Y585927D01*
X3353308Y576478D01*
X3344824Y565759D01*
X3337864Y554024D01*
X3332581Y541477D01*
X3328974Y528320D01*
X3327146Y514807D01*
X3327146Y501192D01*
X3328974Y487680D01*
X3332581Y474522D01*
X3337864Y461975D01*
X3344824Y450240D01*
X3353308Y439521D01*
X3363061Y430022D01*
X3374085Y421944D01*
X3386023Y415391D01*
X3398774Y410514D01*
X3412032Y407314D01*
G37*
G36*
X387299Y5262168D02*
G01*
X412546Y5263642D01*
X437591Y5267045D01*
X462280Y5272379D01*
X486511Y5279644D01*
X510082Y5288737D01*
X532892Y5299659D01*
X554786Y5312308D01*
X575614Y5326583D01*
X595274Y5342432D01*
X613664Y5359806D01*
X630631Y5378500D01*
X646125Y5398516D01*
X660044Y5419598D01*
X672236Y5441746D01*
X682701Y5464759D01*
X691337Y5488482D01*
X698093Y5512866D01*
X702970Y5537657D01*
X705916Y5562752D01*
X706882Y5588000D01*
X705916Y5613247D01*
X702970Y5638342D01*
X698093Y5663133D01*
X691337Y5687517D01*
X682701Y5711240D01*
X672236Y5734253D01*
X660044Y5756402D01*
X646125Y5777484D01*
X630631Y5797499D01*
X613664Y5816193D01*
X595274Y5833567D01*
X575614Y5849416D01*
X554786Y5863691D01*
X532892Y5876340D01*
X510082Y5887262D01*
X486511Y5896356D01*
X462280Y5903620D01*
X437591Y5908954D01*
X412546Y5912358D01*
X387299Y5913831D01*
X362051Y5913323D01*
X336905Y5910884D01*
X312013Y5906516D01*
X287528Y5900216D01*
X263601Y5892038D01*
X240436Y5882030D01*
X218033Y5870244D01*
X196646Y5856782D01*
X176377Y5841644D01*
X157378Y5825032D01*
X139649Y5806998D01*
X123393Y5787644D01*
X108712Y5767070D01*
X95656Y5745429D01*
X84328Y5722874D01*
X74777Y5699455D01*
X67056Y5675376D01*
X61214Y5650788D01*
X57302Y5625846D01*
X55321Y5600649D01*
X55321Y5575350D01*
X57302Y5550154D01*
X61214Y5525211D01*
X67056Y5500624D01*
X74777Y5476544D01*
X84328Y5453126D01*
X95656Y5430570D01*
X108712Y5408930D01*
X123393Y5388356D01*
X139649Y5369001D01*
X157378Y5350967D01*
X176377Y5334355D01*
X196646Y5319217D01*
X218033Y5305755D01*
X240436Y5293969D01*
X263601Y5283962D01*
X287528Y5275783D01*
X312013Y5269484D01*
X336905Y5265115D01*
X362051Y5262676D01*
G37*
G36*
X4127500Y646125D02*
G01*
X4142028Y647039D01*
X4156303Y649732D01*
X4170172Y654253D01*
X4183329Y660450D01*
X4195622Y668223D01*
X4206798Y677519D01*
X4216806Y688136D01*
X4225340Y699922D01*
X4232351Y712673D01*
X4237685Y726186D01*
X4241342Y740257D01*
X4243171Y754735D01*
X4243171Y769264D01*
X4241342Y783691D01*
X4237685Y797814D01*
X4232351Y811326D01*
X4225340Y824077D01*
X4216806Y835863D01*
X4206798Y846480D01*
X4195622Y855776D01*
X4183329Y863549D01*
X4170172Y869746D01*
X4156303Y874268D01*
X4142028Y876960D01*
X4127500Y877874D01*
X4112971Y876960D01*
X4098696Y874268D01*
X4084828Y869746D01*
X4071670Y863549D01*
X4059377Y855776D01*
X4048150Y846480D01*
X4038193Y835863D01*
X4029659Y824077D01*
X4022648Y811326D01*
X4017264Y797814D01*
X4013657Y783691D01*
X4011828Y769264D01*
X4011828Y754735D01*
X4013657Y740257D01*
X4017264Y726186D01*
X4022648Y712673D01*
X4029659Y699922D01*
X4038193Y688136D01*
X4048150Y677519D01*
X4059377Y668223D01*
X4071670Y660450D01*
X4084828Y654253D01*
X4098696Y649732D01*
X4112971Y647039D01*
G37*
G36*
X5143500Y646125D02*
G01*
X5158028Y647039D01*
X5172303Y649732D01*
X5186172Y654253D01*
X5199329Y660450D01*
X5211622Y668223D01*
X5222798Y677519D01*
X5232806Y688136D01*
X5241340Y699922D01*
X5248351Y712673D01*
X5253685Y726186D01*
X5257342Y740257D01*
X5259171Y754735D01*
X5259171Y769264D01*
X5257342Y783691D01*
X5253685Y797814D01*
X5248351Y811326D01*
X5241340Y824077D01*
X5232806Y835863D01*
X5222798Y846480D01*
X5211622Y855776D01*
X5199329Y863549D01*
X5186172Y869746D01*
X5172303Y874268D01*
X5158028Y876960D01*
X5143500Y877874D01*
X5128971Y876960D01*
X5114696Y874268D01*
X5100828Y869746D01*
X5087670Y863549D01*
X5075377Y855776D01*
X5064150Y846480D01*
X5054193Y835863D01*
X5045659Y824077D01*
X5038648Y811326D01*
X5033264Y797814D01*
X5029657Y783691D01*
X5027828Y769264D01*
X5027828Y754735D01*
X5029657Y740257D01*
X5033264Y726186D01*
X5038648Y712673D01*
X5045659Y699922D01*
X5054193Y688136D01*
X5064150Y677519D01*
X5075377Y668223D01*
X5087670Y660450D01*
X5100828Y654253D01*
X5114696Y649732D01*
X5128971Y647039D01*
G37*
G36*
X1139596Y659942D02*
G01*
X1153210Y660400D01*
X1166672Y662686D01*
X1179677Y666750D01*
X1192072Y672490D01*
X1203553Y679805D01*
X1213967Y688594D01*
X1223111Y698703D01*
X1230833Y709980D01*
X1236980Y722122D01*
X1241450Y735025D01*
X1244193Y748385D01*
X1245057Y762000D01*
X1244193Y775614D01*
X1241450Y788974D01*
X1236980Y801827D01*
X1230833Y814019D01*
X1223111Y825246D01*
X1213967Y835355D01*
X1203553Y844194D01*
X1192072Y851509D01*
X1179677Y857250D01*
X1166672Y861314D01*
X1153210Y863549D01*
X1139596Y864006D01*
X1126032Y862634D01*
X1112774Y859485D01*
X1100023Y854608D01*
X1088085Y848055D01*
X1077061Y839927D01*
X1067308Y830478D01*
X1058824Y819759D01*
X1051864Y808024D01*
X1046581Y795477D01*
X1042974Y782320D01*
X1041146Y768807D01*
X1041146Y755192D01*
X1042974Y741680D01*
X1046581Y728522D01*
X1051864Y715975D01*
X1058824Y704240D01*
X1067308Y693521D01*
X1077061Y684022D01*
X1088085Y675944D01*
X1100023Y669391D01*
X1112774Y664514D01*
X1126032Y661314D01*
G37*
G36*
X3425596Y659942D02*
G01*
X3439210Y660400D01*
X3452672Y662686D01*
X3465677Y666750D01*
X3478072Y672490D01*
X3489553Y679805D01*
X3499967Y688594D01*
X3509111Y698703D01*
X3516833Y709980D01*
X3522979Y722122D01*
X3527450Y735025D01*
X3530193Y748385D01*
X3531057Y762000D01*
X3530193Y775614D01*
X3527450Y788974D01*
X3522979Y801827D01*
X3516833Y814019D01*
X3509111Y825246D01*
X3499967Y835355D01*
X3489553Y844194D01*
X3478072Y851509D01*
X3465677Y857250D01*
X3452672Y861314D01*
X3439210Y863549D01*
X3425596Y864006D01*
X3412032Y862634D01*
X3398774Y859485D01*
X3386023Y854608D01*
X3374085Y848055D01*
X3363061Y839927D01*
X3353308Y830478D01*
X3344824Y819759D01*
X3337864Y808024D01*
X3332581Y795477D01*
X3328974Y782320D01*
X3327146Y768807D01*
X3327146Y755192D01*
X3328974Y741680D01*
X3332581Y728522D01*
X3337864Y715975D01*
X3344824Y704240D01*
X3353308Y693521D01*
X3363061Y684022D01*
X3374085Y675944D01*
X3386023Y669391D01*
X3398774Y664514D01*
X3412032Y661314D01*
G37*
G36*
X4127500Y900125D02*
G01*
X4142028Y901039D01*
X4156303Y903732D01*
X4170172Y908253D01*
X4183329Y914450D01*
X4195622Y922223D01*
X4206798Y931519D01*
X4216806Y942136D01*
X4225340Y953922D01*
X4232351Y966673D01*
X4237685Y980186D01*
X4241342Y994257D01*
X4243171Y1008735D01*
X4243171Y1023264D01*
X4241342Y1037691D01*
X4237685Y1051814D01*
X4232351Y1065326D01*
X4225340Y1078077D01*
X4216806Y1089863D01*
X4206798Y1100480D01*
X4195622Y1109776D01*
X4183329Y1117549D01*
X4170172Y1123746D01*
X4156303Y1128268D01*
X4142028Y1130960D01*
X4127500Y1131874D01*
X4112971Y1130960D01*
X4098696Y1128268D01*
X4084828Y1123746D01*
X4071670Y1117549D01*
X4059377Y1109776D01*
X4048150Y1100480D01*
X4038193Y1089863D01*
X4029659Y1078077D01*
X4022648Y1065326D01*
X4017264Y1051814D01*
X4013657Y1037691D01*
X4011828Y1023264D01*
X4011828Y1008735D01*
X4013657Y994257D01*
X4017264Y980186D01*
X4022648Y966673D01*
X4029659Y953922D01*
X4038193Y942136D01*
X4048150Y931519D01*
X4059377Y922223D01*
X4071670Y914450D01*
X4084828Y908253D01*
X4098696Y903732D01*
X4112971Y901039D01*
G37*
G36*
X5092141Y912317D02*
G01*
X5092141Y964641D01*
X5039715Y964641D01*
X5045659Y953922D01*
X5054193Y942136D01*
X5064150Y931519D01*
X5075377Y922223D01*
X5087670Y914450D01*
G37*
G36*
X5194858Y912317D02*
G01*
X5199329Y914450D01*
X5211622Y922223D01*
X5222798Y931519D01*
X5232806Y942136D01*
X5241340Y953922D01*
X5247233Y964641D01*
X5194858Y964641D01*
G37*
G36*
X1139596Y913942D02*
G01*
X1153210Y914400D01*
X1166672Y916686D01*
X1179677Y920750D01*
X1192072Y926490D01*
X1203553Y933805D01*
X1213967Y942594D01*
X1223111Y952703D01*
X1230833Y963980D01*
X1236980Y976121D01*
X1241450Y989025D01*
X1244193Y1002385D01*
X1245057Y1016000D01*
X1244193Y1029614D01*
X1241450Y1042974D01*
X1236980Y1055827D01*
X1230833Y1068019D01*
X1223111Y1079246D01*
X1213967Y1089355D01*
X1203553Y1098194D01*
X1192072Y1105509D01*
X1179677Y1111250D01*
X1166672Y1115314D01*
X1153210Y1117549D01*
X1139596Y1118006D01*
X1126032Y1116634D01*
X1112774Y1113485D01*
X1100023Y1108608D01*
X1088085Y1102055D01*
X1077061Y1093927D01*
X1067308Y1084478D01*
X1058824Y1073759D01*
X1051864Y1062024D01*
X1046581Y1049477D01*
X1042974Y1036319D01*
X1041146Y1022807D01*
X1041146Y1009192D01*
X1042974Y995680D01*
X1046581Y982522D01*
X1051864Y969975D01*
X1058824Y958240D01*
X1067308Y947521D01*
X1077061Y938021D01*
X1088085Y929944D01*
X1100023Y923391D01*
X1112774Y918514D01*
X1126032Y915314D01*
G37*
G36*
X3425596Y913942D02*
G01*
X3439210Y914400D01*
X3452672Y916686D01*
X3465677Y920750D01*
X3478072Y926490D01*
X3489553Y933805D01*
X3499967Y942594D01*
X3509111Y952703D01*
X3516833Y963980D01*
X3522979Y976121D01*
X3527450Y989025D01*
X3530193Y1002385D01*
X3531057Y1016000D01*
X3530193Y1029614D01*
X3527450Y1042974D01*
X3522979Y1055827D01*
X3516833Y1068019D01*
X3509111Y1079246D01*
X3499967Y1089355D01*
X3489553Y1098194D01*
X3478072Y1105509D01*
X3465677Y1111250D01*
X3452672Y1115314D01*
X3439210Y1117549D01*
X3425596Y1118006D01*
X3412032Y1116634D01*
X3398774Y1113485D01*
X3386023Y1108608D01*
X3374085Y1102055D01*
X3363061Y1093927D01*
X3353308Y1084478D01*
X3344824Y1073759D01*
X3337864Y1062024D01*
X3332581Y1049477D01*
X3328974Y1036319D01*
X3327146Y1022807D01*
X3327146Y1009192D01*
X3328974Y995680D01*
X3332581Y982522D01*
X3337864Y969975D01*
X3344824Y958240D01*
X3353308Y947521D01*
X3363061Y938021D01*
X3374085Y929944D01*
X3386023Y923391D01*
X3398774Y918514D01*
X3412032Y915314D01*
G37*
G36*
X9147962Y5211572D02*
G01*
X9166809Y5212537D01*
X9185402Y5215382D01*
X9203639Y5220106D01*
X9221266Y5226659D01*
X9238183Y5234940D01*
X9254185Y5244896D01*
X9269069Y5256428D01*
X9282734Y5269382D01*
X9294977Y5283708D01*
X9305747Y5299151D01*
X9314891Y5315610D01*
X9322308Y5332933D01*
X9327946Y5350865D01*
X9331706Y5369306D01*
X9333636Y5388051D01*
X9333636Y5406898D01*
X9331706Y5425643D01*
X9327946Y5444083D01*
X9322308Y5462016D01*
X9314891Y5479338D01*
X9305747Y5495798D01*
X9294977Y5511241D01*
X9282734Y5525566D01*
X9269069Y5538520D01*
X9254185Y5550052D01*
X9238183Y5560009D01*
X9221266Y5568289D01*
X9203639Y5574842D01*
X9185402Y5579567D01*
X9166809Y5582412D01*
X9147962Y5583377D01*
X9129166Y5582412D01*
X9110573Y5579567D01*
X9092336Y5574842D01*
X9074658Y5568289D01*
X9057741Y5560009D01*
X9041790Y5550052D01*
X9026906Y5538520D01*
X9013240Y5525566D01*
X9000998Y5511241D01*
X8990228Y5495798D01*
X8981084Y5479338D01*
X8973667Y5462016D01*
X8968028Y5444083D01*
X8964218Y5425643D01*
X8962339Y5406898D01*
X8962339Y5388051D01*
X8964218Y5369306D01*
X8968028Y5350865D01*
X8973667Y5332933D01*
X8981084Y5315610D01*
X8990228Y5299151D01*
X9000998Y5283708D01*
X9013240Y5269382D01*
X9026906Y5256428D01*
X9041790Y5244896D01*
X9057741Y5234940D01*
X9074658Y5226659D01*
X9092336Y5220106D01*
X9110573Y5215382D01*
X9129166Y5212537D01*
G37*
G36*
X5039715Y1067358D02*
G01*
X5092141Y1067358D01*
X5092141Y1119682D01*
X5087670Y1117549D01*
X5075377Y1109776D01*
X5064150Y1100480D01*
X5054193Y1089863D01*
X5045659Y1078077D01*
G37*
G36*
X5194858Y1067358D02*
G01*
X5247233Y1067358D01*
X5241340Y1078077D01*
X5232806Y1089863D01*
X5222798Y1100480D01*
X5211622Y1109776D01*
X5199329Y1117549D01*
X5194858Y1119682D01*
G37*
G36*
X5271008Y1104392D02*
G01*
X8635492Y1104392D01*
X8643518Y1105204D01*
X8650732Y1107389D01*
X8657386Y1110945D01*
X8663635Y1116076D01*
X8789924Y1242364D01*
X8795054Y1248613D01*
X8798610Y1255268D01*
X8800795Y1262481D01*
X8801608Y1270508D01*
X8801608Y1594053D01*
X8802319Y1597812D01*
X8804402Y1601063D01*
X8807500Y1603298D01*
X8819692Y1608886D01*
X8832240Y1616659D01*
X8843721Y1625904D01*
X8854033Y1636522D01*
X8862923Y1648307D01*
X8870289Y1661058D01*
X8876030Y1674672D01*
X8880094Y1688846D01*
X8882329Y1703425D01*
X8882786Y1718208D01*
X8881414Y1732889D01*
X8878265Y1747316D01*
X8873388Y1761236D01*
X8866784Y1774443D01*
X8858656Y1786737D01*
X8849055Y1797964D01*
X8838133Y1807870D01*
X8826093Y1816404D01*
X8813088Y1823415D01*
X8799322Y1828749D01*
X8784996Y1832305D01*
X8770366Y1834134D01*
X8755583Y1834134D01*
X8740952Y1832305D01*
X8726627Y1828749D01*
X8712860Y1823415D01*
X8699906Y1816404D01*
X8687816Y1807870D01*
X8676944Y1797964D01*
X8667343Y1786737D01*
X8659164Y1774443D01*
X8652611Y1761236D01*
X8647684Y1747316D01*
X8645906Y1739138D01*
X8644331Y1735582D01*
X8641537Y1732838D01*
X8637930Y1731365D01*
X8634018Y1731365D01*
X8630412Y1732838D01*
X8627618Y1735582D01*
X8626043Y1739138D01*
X8624265Y1747316D01*
X8619388Y1761236D01*
X8612784Y1774443D01*
X8604656Y1786737D01*
X8595055Y1797964D01*
X8584133Y1807870D01*
X8572093Y1816404D01*
X8559088Y1823415D01*
X8545322Y1828749D01*
X8530996Y1832305D01*
X8516366Y1834134D01*
X8501583Y1834134D01*
X8486952Y1832305D01*
X8472627Y1828749D01*
X8458860Y1823415D01*
X8445906Y1816404D01*
X8433816Y1807870D01*
X8422944Y1797964D01*
X8413343Y1786737D01*
X8405164Y1774443D01*
X8398611Y1761236D01*
X8393684Y1747316D01*
X8391906Y1739138D01*
X8390331Y1735582D01*
X8387537Y1732838D01*
X8383930Y1731365D01*
X8380018Y1731365D01*
X8376412Y1732838D01*
X8373618Y1735582D01*
X8372043Y1739138D01*
X8370265Y1747316D01*
X8365388Y1761236D01*
X8358784Y1774443D01*
X8350656Y1786737D01*
X8341055Y1797964D01*
X8330133Y1807870D01*
X8318093Y1816404D01*
X8305088Y1823415D01*
X8291322Y1828749D01*
X8276996Y1832305D01*
X8262366Y1834134D01*
X8247583Y1834134D01*
X8232952Y1832305D01*
X8218627Y1828749D01*
X8204860Y1823415D01*
X8191906Y1816404D01*
X8179816Y1807870D01*
X8168944Y1797964D01*
X8159343Y1786737D01*
X8151164Y1774443D01*
X8144611Y1761236D01*
X8139684Y1747316D01*
X8137906Y1739138D01*
X8136331Y1735582D01*
X8133537Y1732838D01*
X8129930Y1731365D01*
X8126018Y1731365D01*
X8122412Y1732838D01*
X8119618Y1735582D01*
X8118043Y1739138D01*
X8116265Y1747316D01*
X8111388Y1761236D01*
X8104784Y1774443D01*
X8096656Y1786737D01*
X8087055Y1797964D01*
X8076133Y1807870D01*
X8064093Y1816404D01*
X8051088Y1823415D01*
X8037322Y1828749D01*
X8022996Y1832305D01*
X8008366Y1834134D01*
X7993583Y1834134D01*
X7978952Y1832305D01*
X7964627Y1828749D01*
X7950860Y1823415D01*
X7937906Y1816404D01*
X7925816Y1807870D01*
X7914944Y1797964D01*
X7905343Y1786737D01*
X7897164Y1774443D01*
X7890611Y1761236D01*
X7885684Y1747316D01*
X7883906Y1739138D01*
X7882331Y1735582D01*
X7879537Y1732838D01*
X7875930Y1731365D01*
X7872018Y1731365D01*
X7868412Y1732838D01*
X7865618Y1735582D01*
X7864043Y1739138D01*
X7862265Y1747316D01*
X7857388Y1761236D01*
X7850784Y1774443D01*
X7842656Y1786737D01*
X7833055Y1797964D01*
X7822133Y1807870D01*
X7810093Y1816404D01*
X7797088Y1823415D01*
X7783322Y1828749D01*
X7768996Y1832305D01*
X7754366Y1834134D01*
X7739583Y1834134D01*
X7724952Y1832305D01*
X7710627Y1828749D01*
X7696860Y1823415D01*
X7683906Y1816404D01*
X7671816Y1807870D01*
X7660944Y1797964D01*
X7651343Y1786737D01*
X7643164Y1774443D01*
X7636611Y1761236D01*
X7631684Y1747316D01*
X7629906Y1739138D01*
X7628331Y1735582D01*
X7625537Y1732838D01*
X7621930Y1731365D01*
X7618018Y1731365D01*
X7614412Y1732838D01*
X7611618Y1735582D01*
X7610043Y1739138D01*
X7608265Y1747316D01*
X7603388Y1761236D01*
X7596784Y1774443D01*
X7588656Y1786737D01*
X7579055Y1797964D01*
X7568133Y1807870D01*
X7556093Y1816404D01*
X7543088Y1823415D01*
X7529322Y1828749D01*
X7514996Y1832305D01*
X7500366Y1834134D01*
X7485583Y1834134D01*
X7470952Y1832305D01*
X7456627Y1828749D01*
X7442860Y1823415D01*
X7429906Y1816404D01*
X7417816Y1807870D01*
X7406944Y1797964D01*
X7397343Y1786737D01*
X7389164Y1774443D01*
X7382611Y1761236D01*
X7377684Y1747316D01*
X7375906Y1739138D01*
X7374331Y1735582D01*
X7371537Y1732838D01*
X7367930Y1731365D01*
X7364018Y1731365D01*
X7360412Y1732838D01*
X7357618Y1735582D01*
X7356043Y1739138D01*
X7354265Y1747316D01*
X7349388Y1761236D01*
X7342784Y1774443D01*
X7334656Y1786737D01*
X7325055Y1797964D01*
X7314133Y1807870D01*
X7302093Y1816404D01*
X7289088Y1823415D01*
X7275322Y1828749D01*
X7260996Y1832305D01*
X7246366Y1834134D01*
X7231583Y1834134D01*
X7216952Y1832305D01*
X7202627Y1828749D01*
X7188860Y1823415D01*
X7175906Y1816404D01*
X7163816Y1807870D01*
X7152944Y1797964D01*
X7143343Y1786737D01*
X7135164Y1774443D01*
X7128611Y1761236D01*
X7123684Y1747316D01*
X7121906Y1739138D01*
X7120331Y1735582D01*
X7117537Y1732838D01*
X7113930Y1731365D01*
X7110018Y1731365D01*
X7106412Y1732838D01*
X7103618Y1735582D01*
X7102043Y1739138D01*
X7100265Y1747316D01*
X7095388Y1761236D01*
X7088784Y1774443D01*
X7080656Y1786737D01*
X7071055Y1797964D01*
X7060133Y1807870D01*
X7048093Y1816404D01*
X7035088Y1823415D01*
X7021322Y1828749D01*
X7006996Y1832305D01*
X6992366Y1834134D01*
X6977583Y1834134D01*
X6962952Y1832305D01*
X6948627Y1828749D01*
X6934860Y1823415D01*
X6921906Y1816404D01*
X6909816Y1807870D01*
X6898944Y1797964D01*
X6889343Y1786737D01*
X6881164Y1774443D01*
X6874611Y1761236D01*
X6869684Y1747316D01*
X6867906Y1739138D01*
X6866331Y1735582D01*
X6863537Y1732838D01*
X6859930Y1731365D01*
X6856018Y1731365D01*
X6852412Y1732838D01*
X6849618Y1735582D01*
X6848043Y1739138D01*
X6846265Y1747316D01*
X6841388Y1761236D01*
X6834784Y1774443D01*
X6826656Y1786737D01*
X6817055Y1797964D01*
X6806133Y1807870D01*
X6794093Y1816404D01*
X6781088Y1823415D01*
X6767322Y1828749D01*
X6752996Y1832305D01*
X6738366Y1834134D01*
X6723583Y1834134D01*
X6708952Y1832305D01*
X6694627Y1828749D01*
X6680860Y1823415D01*
X6667906Y1816404D01*
X6655816Y1807870D01*
X6644944Y1797964D01*
X6635343Y1786737D01*
X6627164Y1774443D01*
X6620611Y1761236D01*
X6615684Y1747316D01*
X6613906Y1739138D01*
X6612331Y1735582D01*
X6609537Y1732838D01*
X6605930Y1731365D01*
X6602018Y1731365D01*
X6598412Y1732838D01*
X6595618Y1735582D01*
X6594043Y1739138D01*
X6592265Y1747316D01*
X6587388Y1761236D01*
X6580784Y1774443D01*
X6572656Y1786737D01*
X6563055Y1797964D01*
X6552133Y1807870D01*
X6540093Y1816404D01*
X6527088Y1823415D01*
X6513322Y1828749D01*
X6498996Y1832305D01*
X6484366Y1834134D01*
X6469583Y1834134D01*
X6454952Y1832305D01*
X6440627Y1828749D01*
X6426860Y1823415D01*
X6413906Y1816404D01*
X6401816Y1807870D01*
X6390944Y1797964D01*
X6381343Y1786737D01*
X6373164Y1774443D01*
X6366611Y1761236D01*
X6361684Y1747316D01*
X6359906Y1739138D01*
X6358331Y1735582D01*
X6355537Y1732838D01*
X6351930Y1731365D01*
X6348018Y1731365D01*
X6344412Y1732838D01*
X6341618Y1735582D01*
X6340043Y1739138D01*
X6338265Y1747316D01*
X6333388Y1761236D01*
X6326784Y1774443D01*
X6318656Y1786737D01*
X6309055Y1797964D01*
X6298133Y1807870D01*
X6286093Y1816404D01*
X6273088Y1823415D01*
X6259322Y1828749D01*
X6244996Y1832305D01*
X6230366Y1834134D01*
X6215583Y1834134D01*
X6200952Y1832305D01*
X6186627Y1828749D01*
X6172860Y1823415D01*
X6159906Y1816404D01*
X6147816Y1807870D01*
X6136944Y1797964D01*
X6127343Y1786737D01*
X6119164Y1774443D01*
X6112611Y1761236D01*
X6107684Y1747316D01*
X6105906Y1739138D01*
X6104331Y1735582D01*
X6101537Y1732838D01*
X6097930Y1731365D01*
X6094018Y1731365D01*
X6090412Y1732838D01*
X6087618Y1735582D01*
X6086043Y1739138D01*
X6084265Y1747316D01*
X6079388Y1761236D01*
X6072784Y1774443D01*
X6064656Y1786737D01*
X6055055Y1797964D01*
X6044133Y1807870D01*
X6032093Y1816404D01*
X6019088Y1823415D01*
X6005322Y1828749D01*
X5990996Y1832305D01*
X5976366Y1834134D01*
X5961583Y1834134D01*
X5946952Y1832305D01*
X5932627Y1828749D01*
X5918860Y1823415D01*
X5905906Y1816404D01*
X5893816Y1807870D01*
X5882944Y1797964D01*
X5873343Y1786737D01*
X5865164Y1774443D01*
X5858611Y1761236D01*
X5853684Y1747316D01*
X5850534Y1732889D01*
X5849162Y1718208D01*
X5849620Y1703425D01*
X5851906Y1688846D01*
X5855919Y1674672D01*
X5861659Y1661058D01*
X5869076Y1648307D01*
X5877966Y1636522D01*
X5888228Y1625904D01*
X5899708Y1616659D01*
X5912256Y1608886D01*
X5925667Y1602740D01*
X5939739Y1598269D01*
X5954268Y1595526D01*
X5969000Y1594612D01*
X5983732Y1595526D01*
X5998210Y1598269D01*
X6012281Y1602740D01*
X6025692Y1608886D01*
X6038240Y1616659D01*
X6049721Y1625904D01*
X6060033Y1636522D01*
X6068923Y1648307D01*
X6076289Y1661058D01*
X6082030Y1674672D01*
X6086195Y1689303D01*
X6088278Y1693164D01*
X6091732Y1695754D01*
X6096000Y1696720D01*
X6100216Y1695754D01*
X6103721Y1693164D01*
X6105753Y1689303D01*
X6109919Y1674672D01*
X6115659Y1661058D01*
X6123076Y1648307D01*
X6131966Y1636522D01*
X6142228Y1625904D01*
X6153708Y1616659D01*
X6166256Y1608886D01*
X6179667Y1602740D01*
X6193739Y1598269D01*
X6208268Y1595526D01*
X6223000Y1594612D01*
X6237732Y1595526D01*
X6252210Y1598269D01*
X6266281Y1602740D01*
X6279692Y1608886D01*
X6292240Y1616659D01*
X6303721Y1625904D01*
X6314033Y1636522D01*
X6322923Y1648307D01*
X6330289Y1661058D01*
X6336030Y1674672D01*
X6340195Y1689303D01*
X6342278Y1693164D01*
X6345732Y1695754D01*
X6350000Y1696720D01*
X6354216Y1695754D01*
X6357721Y1693164D01*
X6359753Y1689303D01*
X6363919Y1674672D01*
X6369659Y1661058D01*
X6377076Y1648307D01*
X6385966Y1636522D01*
X6396228Y1625904D01*
X6407708Y1616659D01*
X6420256Y1608886D01*
X6433667Y1602740D01*
X6447739Y1598269D01*
X6462268Y1595526D01*
X6477000Y1594612D01*
X6491732Y1595526D01*
X6506209Y1598269D01*
X6520281Y1602740D01*
X6533692Y1608886D01*
X6546240Y1616659D01*
X6557721Y1625904D01*
X6568033Y1636522D01*
X6576923Y1648307D01*
X6584289Y1661058D01*
X6590030Y1674672D01*
X6594195Y1689303D01*
X6596278Y1693164D01*
X6599732Y1695754D01*
X6604000Y1696720D01*
X6608216Y1695754D01*
X6611721Y1693164D01*
X6613753Y1689303D01*
X6617919Y1674672D01*
X6623659Y1661058D01*
X6631076Y1648307D01*
X6639966Y1636522D01*
X6650228Y1625904D01*
X6661708Y1616659D01*
X6674256Y1608886D01*
X6687667Y1602740D01*
X6701739Y1598269D01*
X6716268Y1595526D01*
X6731000Y1594612D01*
X6745731Y1595526D01*
X6760209Y1598269D01*
X6774281Y1602740D01*
X6787692Y1608886D01*
X6800240Y1616659D01*
X6811721Y1625904D01*
X6822033Y1636522D01*
X6830923Y1648307D01*
X6838289Y1661058D01*
X6844030Y1674672D01*
X6848195Y1689303D01*
X6850278Y1693164D01*
X6853732Y1695754D01*
X6858000Y1696720D01*
X6862216Y1695754D01*
X6865721Y1693164D01*
X6867753Y1689303D01*
X6871919Y1674672D01*
X6877659Y1661058D01*
X6885076Y1648307D01*
X6893966Y1636522D01*
X6904228Y1625904D01*
X6915708Y1616659D01*
X6928256Y1608886D01*
X6941667Y1602740D01*
X6955739Y1598269D01*
X6970268Y1595526D01*
X6985000Y1594612D01*
X6999731Y1595526D01*
X7014209Y1598269D01*
X7028281Y1602740D01*
X7041692Y1608886D01*
X7054240Y1616659D01*
X7065721Y1625904D01*
X7076033Y1636522D01*
X7084923Y1648307D01*
X7092289Y1661058D01*
X7098030Y1674672D01*
X7102195Y1689303D01*
X7104278Y1693164D01*
X7107732Y1695754D01*
X7112000Y1696720D01*
X7116216Y1695754D01*
X7119721Y1693164D01*
X7121753Y1689303D01*
X7125919Y1674672D01*
X7131659Y1661058D01*
X7139076Y1648307D01*
X7147966Y1636522D01*
X7158228Y1625904D01*
X7169708Y1616659D01*
X7182256Y1608886D01*
X7195667Y1602740D01*
X7209739Y1598269D01*
X7224268Y1595526D01*
X7239000Y1594612D01*
X7253731Y1595526D01*
X7268209Y1598269D01*
X7282281Y1602740D01*
X7295692Y1608886D01*
X7308240Y1616659D01*
X7319721Y1625904D01*
X7330033Y1636522D01*
X7338923Y1648307D01*
X7346289Y1661058D01*
X7352030Y1674672D01*
X7356195Y1689303D01*
X7358278Y1693164D01*
X7361732Y1695754D01*
X7366000Y1696720D01*
X7370216Y1695754D01*
X7373721Y1693164D01*
X7375753Y1689303D01*
X7379919Y1674672D01*
X7385659Y1661058D01*
X7393076Y1648307D01*
X7401966Y1636522D01*
X7412228Y1625904D01*
X7423708Y1616659D01*
X7436256Y1608886D01*
X7448499Y1603298D01*
X7451598Y1601063D01*
X7453680Y1597812D01*
X7454392Y1594053D01*
X7454392Y1480718D01*
X7453630Y1476806D01*
X7451394Y1473504D01*
X7352995Y1375105D01*
X7349693Y1372870D01*
X7345781Y1372108D01*
X5862167Y1372108D01*
X5858306Y1372870D01*
X5855004Y1375105D01*
X5693054Y1537004D01*
X5690870Y1540306D01*
X5690108Y1544218D01*
X5690108Y1884781D01*
X5690870Y1888693D01*
X5693054Y1891995D01*
X5745226Y1944166D01*
X5748172Y1946198D01*
X5751576Y1947113D01*
X5755081Y1946757D01*
X5758281Y1945233D01*
X5764834Y1940610D01*
X5778144Y1933498D01*
X5792165Y1928063D01*
X5806795Y1924354D01*
X5821730Y1922525D01*
X5836818Y1922525D01*
X5851804Y1924354D01*
X5866384Y1928063D01*
X5880455Y1933498D01*
X5893714Y1940610D01*
X5906008Y1949348D01*
X5917184Y1959457D01*
X5926988Y1970938D01*
X5935319Y1983486D01*
X5942025Y1996998D01*
X5946698Y2010308D01*
X5948832Y2013813D01*
X5952236Y2016252D01*
X5956300Y2017064D01*
X5960364Y2016252D01*
X5963716Y2013813D01*
X5965850Y2010308D01*
X5970574Y1996998D01*
X5977280Y1983486D01*
X5985611Y1970938D01*
X5995416Y1959457D01*
X6006541Y1949348D01*
X6018834Y1940610D01*
X6032144Y1933498D01*
X6046165Y1928063D01*
X6060795Y1924354D01*
X6075730Y1922525D01*
X6090818Y1922525D01*
X6105804Y1924354D01*
X6120384Y1928063D01*
X6134455Y1933498D01*
X6147714Y1940610D01*
X6160008Y1949348D01*
X6171184Y1959457D01*
X6180988Y1970938D01*
X6189319Y1983486D01*
X6196025Y1996998D01*
X6201003Y2011172D01*
X6204254Y2025904D01*
X6205626Y2040940D01*
X6205169Y2055977D01*
X6202883Y2070862D01*
X6198717Y2085390D01*
X6192875Y2099259D01*
X6185306Y2112314D01*
X6176264Y2124354D01*
X6165748Y2135174D01*
X6154013Y2144623D01*
X6141212Y2152548D01*
X6127496Y2158847D01*
X6113170Y2163419D01*
X6098336Y2166162D01*
X6083300Y2167128D01*
X6068263Y2166162D01*
X6053429Y2163419D01*
X6039053Y2158847D01*
X6025388Y2152548D01*
X6012586Y2144623D01*
X6000800Y2135174D01*
X5990336Y2124354D01*
X5981242Y2112314D01*
X5973724Y2099259D01*
X5967831Y2085390D01*
X5966053Y2079142D01*
X5964021Y2075281D01*
X5960516Y2072690D01*
X5956300Y2071725D01*
X5952032Y2072690D01*
X5948578Y2075281D01*
X5946495Y2079142D01*
X5944717Y2085390D01*
X5938875Y2099259D01*
X5931306Y2112314D01*
X5922264Y2124354D01*
X5911748Y2135174D01*
X5900013Y2144623D01*
X5887212Y2152548D01*
X5873496Y2158847D01*
X5859170Y2163419D01*
X5844336Y2166162D01*
X5829300Y2167128D01*
X5814263Y2166162D01*
X5799429Y2163419D01*
X5785053Y2158847D01*
X5771388Y2152548D01*
X5758586Y2144623D01*
X5746800Y2135174D01*
X5736336Y2124354D01*
X5727242Y2112314D01*
X5719724Y2099259D01*
X5713831Y2085390D01*
X5712053Y2079142D01*
X5710021Y2075281D01*
X5706516Y2072690D01*
X5702300Y2071725D01*
X5698032Y2072690D01*
X5694578Y2075281D01*
X5692495Y2079142D01*
X5690717Y2085390D01*
X5684875Y2099259D01*
X5677306Y2112314D01*
X5668264Y2124354D01*
X5657748Y2135174D01*
X5646013Y2144623D01*
X5633212Y2152548D01*
X5619496Y2158847D01*
X5605170Y2163419D01*
X5590336Y2166162D01*
X5575300Y2167128D01*
X5560263Y2166162D01*
X5545429Y2163419D01*
X5531053Y2158847D01*
X5517388Y2152548D01*
X5504586Y2144623D01*
X5492800Y2135174D01*
X5482336Y2124354D01*
X5473242Y2112314D01*
X5465724Y2099259D01*
X5459831Y2085390D01*
X5458053Y2079142D01*
X5456021Y2075281D01*
X5452516Y2072690D01*
X5448300Y2071725D01*
X5444032Y2072690D01*
X5440578Y2075281D01*
X5438495Y2079142D01*
X5436717Y2085390D01*
X5430875Y2099259D01*
X5423306Y2112314D01*
X5414264Y2124354D01*
X5403748Y2135174D01*
X5392013Y2144623D01*
X5379212Y2152548D01*
X5365496Y2158847D01*
X5351170Y2163419D01*
X5336336Y2166162D01*
X5321300Y2167128D01*
X5306263Y2166162D01*
X5291429Y2163419D01*
X5277053Y2158847D01*
X5263388Y2152548D01*
X5250586Y2144623D01*
X5238800Y2135174D01*
X5228336Y2124354D01*
X5219242Y2112314D01*
X5211724Y2099259D01*
X5205831Y2085390D01*
X5204053Y2079142D01*
X5202021Y2075281D01*
X5198516Y2072690D01*
X5194300Y2071725D01*
X5190032Y2072690D01*
X5186578Y2075281D01*
X5184495Y2079142D01*
X5182717Y2085390D01*
X5176875Y2099259D01*
X5169306Y2112314D01*
X5160264Y2124354D01*
X5149748Y2135174D01*
X5138013Y2144623D01*
X5125212Y2152548D01*
X5111496Y2158847D01*
X5097170Y2163419D01*
X5082336Y2166162D01*
X5067300Y2167128D01*
X5052263Y2166162D01*
X5037429Y2163419D01*
X5023053Y2158847D01*
X5009388Y2152548D01*
X4996586Y2144623D01*
X4984800Y2135174D01*
X4974336Y2124354D01*
X4965242Y2112314D01*
X4957724Y2099259D01*
X4951831Y2085390D01*
X4947716Y2070862D01*
X4945380Y2055977D01*
X4944922Y2040940D01*
X4946345Y2025904D01*
X4949545Y2011172D01*
X4954574Y1996998D01*
X4961280Y1983486D01*
X4969611Y1970938D01*
X4979416Y1959457D01*
X4990541Y1949348D01*
X5002834Y1940610D01*
X5016144Y1933498D01*
X5030165Y1928063D01*
X5044795Y1924354D01*
X5059730Y1922525D01*
X5074818Y1922525D01*
X5089804Y1924354D01*
X5104384Y1928063D01*
X5118455Y1933498D01*
X5131714Y1940610D01*
X5144008Y1949348D01*
X5155184Y1959457D01*
X5164988Y1970938D01*
X5173319Y1983486D01*
X5180025Y1996998D01*
X5184698Y2010308D01*
X5186832Y2013813D01*
X5190236Y2016252D01*
X5194300Y2017064D01*
X5198364Y2016252D01*
X5201716Y2013813D01*
X5203850Y2010308D01*
X5208574Y1996998D01*
X5215280Y1983486D01*
X5223611Y1970938D01*
X5233416Y1959457D01*
X5244541Y1949348D01*
X5256834Y1940610D01*
X5270144Y1933498D01*
X5284165Y1928063D01*
X5298795Y1924354D01*
X5313730Y1922525D01*
X5328818Y1922525D01*
X5343804Y1924354D01*
X5358384Y1928063D01*
X5372455Y1933498D01*
X5385714Y1940610D01*
X5398008Y1949348D01*
X5409184Y1959457D01*
X5418988Y1970938D01*
X5427319Y1983486D01*
X5434025Y1996998D01*
X5438698Y2010308D01*
X5440832Y2013813D01*
X5444236Y2016252D01*
X5448300Y2017064D01*
X5452364Y2016252D01*
X5455716Y2013813D01*
X5457850Y2010308D01*
X5462574Y1996998D01*
X5469280Y1983486D01*
X5477611Y1970938D01*
X5487416Y1959457D01*
X5498541Y1949348D01*
X5510834Y1940610D01*
X5524144Y1933498D01*
X5538165Y1928063D01*
X5541721Y1927148D01*
X5545683Y1925167D01*
X5548426Y1921662D01*
X5549392Y1917293D01*
X5549392Y1461008D01*
X5550154Y1452981D01*
X5552338Y1445768D01*
X5555945Y1439062D01*
X5561025Y1432864D01*
X5731459Y1262430D01*
X5733643Y1259179D01*
X5734405Y1255268D01*
X5733643Y1251356D01*
X5731459Y1248105D01*
X5728157Y1245870D01*
X5724245Y1245108D01*
X5481218Y1245108D01*
X5477306Y1245870D01*
X5474004Y1248105D01*
X5252821Y1469288D01*
X5250637Y1472539D01*
X5249824Y1476349D01*
X5250535Y1480210D01*
X5253685Y1488186D01*
X5257342Y1502257D01*
X5259171Y1516735D01*
X5259171Y1531264D01*
X5257342Y1545691D01*
X5253685Y1559814D01*
X5248351Y1573326D01*
X5241340Y1586077D01*
X5232806Y1597863D01*
X5222798Y1608480D01*
X5211622Y1617776D01*
X5199329Y1625549D01*
X5186172Y1631746D01*
X5172303Y1636268D01*
X5158028Y1638960D01*
X5143500Y1639874D01*
X5128971Y1638960D01*
X5114696Y1636268D01*
X5100828Y1631746D01*
X5087670Y1625549D01*
X5075377Y1617776D01*
X5064150Y1608480D01*
X5054193Y1597863D01*
X5045659Y1586077D01*
X5038648Y1573326D01*
X5033264Y1559814D01*
X5029657Y1545691D01*
X5027828Y1531264D01*
X5027828Y1516735D01*
X5029657Y1502257D01*
X5033264Y1488186D01*
X5038648Y1474673D01*
X5045659Y1461922D01*
X5054193Y1450136D01*
X5064150Y1439519D01*
X5075377Y1430223D01*
X5087670Y1422450D01*
X5100828Y1416253D01*
X5114696Y1411732D01*
X5128971Y1409039D01*
X5143500Y1408125D01*
X5158028Y1409039D01*
X5172303Y1411732D01*
X5186172Y1416253D01*
X5190845Y1417523D01*
X5194909Y1416812D01*
X5198364Y1414576D01*
X5413959Y1198930D01*
X5416143Y1195679D01*
X5416905Y1191768D01*
X5416143Y1187856D01*
X5413959Y1184605D01*
X5410657Y1182370D01*
X5406745Y1181608D01*
X5290718Y1181608D01*
X5286806Y1182370D01*
X5283504Y1184605D01*
X5252821Y1215288D01*
X5250637Y1218539D01*
X5249824Y1222349D01*
X5250535Y1226210D01*
X5253685Y1234186D01*
X5257342Y1248257D01*
X5259171Y1262735D01*
X5259171Y1277264D01*
X5257342Y1291691D01*
X5253685Y1305814D01*
X5248351Y1319326D01*
X5241340Y1332077D01*
X5232806Y1343863D01*
X5222798Y1354480D01*
X5211622Y1363776D01*
X5199329Y1371549D01*
X5186172Y1377746D01*
X5172303Y1382268D01*
X5158028Y1384960D01*
X5143500Y1385874D01*
X5128971Y1384960D01*
X5114696Y1382268D01*
X5100828Y1377746D01*
X5087670Y1371549D01*
X5075377Y1363776D01*
X5064150Y1354480D01*
X5054193Y1343863D01*
X5045659Y1332077D01*
X5038648Y1319326D01*
X5033264Y1305814D01*
X5029657Y1291691D01*
X5027828Y1277264D01*
X5027828Y1262735D01*
X5029657Y1248257D01*
X5033264Y1234186D01*
X5038648Y1220673D01*
X5045659Y1207922D01*
X5054193Y1196136D01*
X5064150Y1185519D01*
X5075377Y1176223D01*
X5087670Y1168450D01*
X5100828Y1162253D01*
X5114696Y1157732D01*
X5128971Y1155039D01*
X5143500Y1154125D01*
X5158028Y1155039D01*
X5172303Y1157732D01*
X5186172Y1162253D01*
X5190845Y1163523D01*
X5194909Y1162812D01*
X5198364Y1160576D01*
X5242864Y1116076D01*
X5249062Y1110945D01*
X5255768Y1107389D01*
X5262981Y1105204D01*
G37*
G36*
X4127500Y1154125D02*
G01*
X4142028Y1155039D01*
X4156303Y1157732D01*
X4170172Y1162253D01*
X4183329Y1168450D01*
X4195622Y1176223D01*
X4206798Y1185519D01*
X4216806Y1196136D01*
X4225340Y1207922D01*
X4232351Y1220673D01*
X4237685Y1234186D01*
X4241342Y1248257D01*
X4243171Y1262735D01*
X4243171Y1277264D01*
X4241342Y1291691D01*
X4237685Y1305814D01*
X4232351Y1319326D01*
X4225340Y1332077D01*
X4216806Y1343863D01*
X4206798Y1354480D01*
X4195622Y1363776D01*
X4183329Y1371549D01*
X4170172Y1377746D01*
X4156303Y1382268D01*
X4142028Y1384960D01*
X4127500Y1385874D01*
X4112971Y1384960D01*
X4098696Y1382268D01*
X4084828Y1377746D01*
X4071670Y1371549D01*
X4059377Y1363776D01*
X4048150Y1354480D01*
X4038193Y1343863D01*
X4029659Y1332077D01*
X4022648Y1319326D01*
X4017264Y1305814D01*
X4013657Y1291691D01*
X4011828Y1277264D01*
X4011828Y1262735D01*
X4013657Y1248257D01*
X4017264Y1234186D01*
X4022648Y1220673D01*
X4029659Y1207922D01*
X4038193Y1196136D01*
X4048150Y1185519D01*
X4059377Y1176223D01*
X4071670Y1168450D01*
X4084828Y1162253D01*
X4098696Y1157732D01*
X4112971Y1155039D01*
G37*
G36*
X7866583Y5087366D02*
G01*
X7881366Y5087366D01*
X7895996Y5089144D01*
X7910322Y5092750D01*
X7924088Y5098084D01*
X7937093Y5105095D01*
X7949133Y5113578D01*
X7960055Y5123535D01*
X7969656Y5134762D01*
X7977784Y5147056D01*
X7984388Y5160264D01*
X7989265Y5174183D01*
X7992414Y5188610D01*
X7993786Y5203291D01*
X7993329Y5218074D01*
X7991094Y5232654D01*
X7987030Y5246827D01*
X7984185Y5253583D01*
X7983372Y5257495D01*
X7984134Y5261406D01*
X7986318Y5264759D01*
X8076742Y5355132D01*
X8079943Y5357317D01*
X8083651Y5358130D01*
X8087461Y5357520D01*
X8090712Y5355539D01*
X8093049Y5352440D01*
X8097570Y5343296D01*
X8105444Y5331460D01*
X8114792Y5320792D01*
X8125459Y5311444D01*
X8137245Y5303570D01*
X8149996Y5297322D01*
X8163407Y5292750D01*
X8177326Y5289956D01*
X8191500Y5289042D01*
X8205622Y5289956D01*
X8219541Y5292750D01*
X8233003Y5297322D01*
X8245703Y5303570D01*
X8257489Y5311444D01*
X8268157Y5320792D01*
X8277504Y5331460D01*
X8285378Y5343296D01*
X8291677Y5355996D01*
X8296198Y5369407D01*
X8298992Y5383326D01*
X8299907Y5397500D01*
X8298992Y5411622D01*
X8296198Y5425541D01*
X8291677Y5439003D01*
X8285378Y5451703D01*
X8277504Y5463489D01*
X8268157Y5474157D01*
X8257489Y5483504D01*
X8245703Y5491378D01*
X8233003Y5497677D01*
X8219541Y5502249D01*
X8205622Y5504992D01*
X8191500Y5505907D01*
X8177326Y5504992D01*
X8163407Y5502249D01*
X8149996Y5497677D01*
X8137245Y5491378D01*
X8125459Y5483504D01*
X8114792Y5474157D01*
X8105444Y5463489D01*
X8097570Y5451703D01*
X8092694Y5441746D01*
X8090408Y5438749D01*
X8087258Y5436768D01*
X8083550Y5436108D01*
X8065008Y5436108D01*
X8056981Y5435295D01*
X8049717Y5433110D01*
X8043062Y5429554D01*
X8036814Y5424424D01*
X7931810Y5319420D01*
X7928356Y5317134D01*
X7924342Y5316423D01*
X7920380Y5317337D01*
X7917281Y5318760D01*
X7903209Y5323230D01*
X7888731Y5325973D01*
X7874000Y5326837D01*
X7859268Y5325973D01*
X7844739Y5323230D01*
X7830667Y5318760D01*
X7817256Y5312613D01*
X7804708Y5304840D01*
X7793228Y5295595D01*
X7782966Y5284978D01*
X7774076Y5273192D01*
X7766659Y5260441D01*
X7760919Y5246827D01*
X7756906Y5232654D01*
X7754620Y5218074D01*
X7754162Y5203291D01*
X7755534Y5188610D01*
X7758684Y5174183D01*
X7763611Y5160264D01*
X7770164Y5147056D01*
X7778343Y5134762D01*
X7787944Y5123535D01*
X7798816Y5113578D01*
X7810906Y5105095D01*
X7823860Y5098084D01*
X7837627Y5092750D01*
X7851952Y5089144D01*
G37*
G36*
X1139596Y1167942D02*
G01*
X1153210Y1168400D01*
X1166672Y1170686D01*
X1179677Y1174750D01*
X1192072Y1180490D01*
X1203553Y1187805D01*
X1213967Y1196594D01*
X1223111Y1206703D01*
X1230833Y1217980D01*
X1236980Y1230122D01*
X1241450Y1243025D01*
X1244193Y1256385D01*
X1245057Y1270000D01*
X1244193Y1283614D01*
X1241450Y1296974D01*
X1236980Y1309827D01*
X1230833Y1322019D01*
X1223111Y1333246D01*
X1213967Y1343355D01*
X1203553Y1352194D01*
X1192072Y1359509D01*
X1179677Y1365250D01*
X1166672Y1369314D01*
X1153210Y1371549D01*
X1139596Y1372006D01*
X1126032Y1370634D01*
X1112774Y1367485D01*
X1100023Y1362608D01*
X1088085Y1356055D01*
X1077061Y1347927D01*
X1067308Y1338478D01*
X1058824Y1327759D01*
X1051864Y1316024D01*
X1046581Y1303477D01*
X1042974Y1290320D01*
X1041146Y1276807D01*
X1041146Y1263192D01*
X1042974Y1249680D01*
X1046581Y1236522D01*
X1051864Y1223975D01*
X1058824Y1212240D01*
X1067308Y1201521D01*
X1077061Y1192022D01*
X1088085Y1183944D01*
X1100023Y1177391D01*
X1112774Y1172514D01*
X1126032Y1169314D01*
G37*
G36*
X3425596Y1167942D02*
G01*
X3439210Y1168400D01*
X3452672Y1170686D01*
X3465677Y1174750D01*
X3478072Y1180490D01*
X3489553Y1187805D01*
X3499967Y1196594D01*
X3509111Y1206703D01*
X3516833Y1217980D01*
X3522979Y1230122D01*
X3527450Y1243025D01*
X3530193Y1256385D01*
X3531057Y1270000D01*
X3530193Y1283614D01*
X3527450Y1296974D01*
X3522979Y1309827D01*
X3516833Y1322019D01*
X3509111Y1333246D01*
X3499967Y1343355D01*
X3489553Y1352194D01*
X3478072Y1359509D01*
X3465677Y1365250D01*
X3452672Y1369314D01*
X3439210Y1371549D01*
X3425596Y1372006D01*
X3412032Y1370634D01*
X3398774Y1367485D01*
X3386023Y1362608D01*
X3374085Y1356055D01*
X3363061Y1347927D01*
X3353308Y1338478D01*
X3344824Y1327759D01*
X3337864Y1316024D01*
X3332581Y1303477D01*
X3328974Y1290320D01*
X3327146Y1276807D01*
X3327146Y1263192D01*
X3328974Y1249680D01*
X3332581Y1236522D01*
X3337864Y1223975D01*
X3344824Y1212240D01*
X3353308Y1201521D01*
X3363061Y1192022D01*
X3374085Y1183944D01*
X3386023Y1177391D01*
X3398774Y1172514D01*
X3412032Y1169314D01*
G37*
G36*
X8692337Y4767834D02*
G01*
X8754211Y4767834D01*
X8753703Y4768596D01*
X8747455Y4782515D01*
X8739581Y4795520D01*
X8730234Y4807458D01*
X8719464Y4818227D01*
X8707475Y4827574D01*
X8694470Y4835448D01*
X8692337Y4836414D01*
G37*
G36*
X8518042Y4767834D02*
G01*
X8579612Y4767834D01*
X8579612Y4836414D01*
X8577478Y4835448D01*
X8564473Y4827574D01*
X8552484Y4818227D01*
X8541766Y4807458D01*
X8532368Y4795520D01*
X8524494Y4782515D01*
G37*
G36*
X3425596Y4723942D02*
G01*
X3439210Y4724400D01*
X3452672Y4726686D01*
X3465677Y4730750D01*
X3478072Y4736490D01*
X3489553Y4743805D01*
X3499967Y4752594D01*
X3509111Y4762703D01*
X3516833Y4773980D01*
X3522979Y4786122D01*
X3527450Y4799025D01*
X3530193Y4812385D01*
X3531057Y4826000D01*
X3530193Y4839614D01*
X3527450Y4852974D01*
X3522979Y4865827D01*
X3516833Y4878019D01*
X3509111Y4889246D01*
X3499967Y4899355D01*
X3489553Y4908194D01*
X3478072Y4915509D01*
X3465677Y4921250D01*
X3452672Y4925314D01*
X3439210Y4927549D01*
X3425596Y4928006D01*
X3412032Y4926634D01*
X3398774Y4923485D01*
X3386023Y4918608D01*
X3374085Y4912055D01*
X3363061Y4903927D01*
X3353308Y4894478D01*
X3344824Y4883759D01*
X3337864Y4872024D01*
X3332581Y4859477D01*
X3328974Y4846320D01*
X3327146Y4832807D01*
X3327146Y4819192D01*
X3328974Y4805680D01*
X3332581Y4792522D01*
X3337864Y4779975D01*
X3344824Y4768240D01*
X3353308Y4757521D01*
X3363061Y4748022D01*
X3374085Y4739944D01*
X3386023Y4733391D01*
X3398774Y4728514D01*
X3412032Y4725314D01*
G37*
G36*
X4038041Y1408074D02*
G01*
X4216908Y1408074D01*
X4223258Y1408785D01*
X4228693Y1410716D01*
X4233621Y1413814D01*
X4237685Y1417878D01*
X4240784Y1422806D01*
X4242663Y1428242D01*
X4243425Y1434592D01*
X4243425Y1613408D01*
X4242663Y1619758D01*
X4240784Y1625193D01*
X4237685Y1630121D01*
X4233621Y1634185D01*
X4228693Y1637283D01*
X4223258Y1639214D01*
X4216908Y1639925D01*
X4038041Y1639925D01*
X4031742Y1639214D01*
X4026255Y1637283D01*
X4021378Y1634185D01*
X4017264Y1630121D01*
X4014215Y1625193D01*
X4012285Y1619758D01*
X4011574Y1613408D01*
X4011574Y1434592D01*
X4012285Y1428242D01*
X4014215Y1422806D01*
X4017264Y1417878D01*
X4021378Y1413814D01*
X4026255Y1410716D01*
X4031742Y1408785D01*
G37*
G36*
X1139596Y4723942D02*
G01*
X1153210Y4724400D01*
X1166672Y4726686D01*
X1179677Y4730750D01*
X1192072Y4736490D01*
X1203553Y4743805D01*
X1213967Y4752594D01*
X1223111Y4762703D01*
X1230833Y4773980D01*
X1236980Y4786122D01*
X1241450Y4799025D01*
X1244193Y4812385D01*
X1245057Y4826000D01*
X1244193Y4839614D01*
X1241450Y4852974D01*
X1236980Y4865827D01*
X1230833Y4878019D01*
X1223111Y4889246D01*
X1213967Y4899355D01*
X1203553Y4908194D01*
X1192072Y4915509D01*
X1179677Y4921250D01*
X1166672Y4925314D01*
X1153210Y4927549D01*
X1139596Y4928006D01*
X1126032Y4926634D01*
X1112774Y4923485D01*
X1100023Y4918608D01*
X1088085Y4912055D01*
X1077061Y4903927D01*
X1067308Y4894478D01*
X1058824Y4883759D01*
X1051864Y4872024D01*
X1046581Y4859477D01*
X1042974Y4846320D01*
X1041146Y4832807D01*
X1041146Y4819192D01*
X1042974Y4805680D01*
X1046581Y4792522D01*
X1051864Y4779975D01*
X1058824Y4768240D01*
X1067308Y4757521D01*
X1077061Y4748022D01*
X1088085Y4739944D01*
X1100023Y4733391D01*
X1112774Y4728514D01*
X1126032Y4725314D01*
G37*
G36*
X1139596Y1421942D02*
G01*
X1153210Y1422400D01*
X1166672Y1424686D01*
X1179677Y1428750D01*
X1192072Y1434490D01*
X1203553Y1441805D01*
X1213967Y1450594D01*
X1223111Y1460703D01*
X1230833Y1471980D01*
X1236980Y1484122D01*
X1241450Y1497025D01*
X1244193Y1510385D01*
X1245057Y1524000D01*
X1244193Y1537614D01*
X1241450Y1550974D01*
X1236980Y1563827D01*
X1230833Y1576019D01*
X1223111Y1587246D01*
X1213967Y1597355D01*
X1203553Y1606194D01*
X1192072Y1613509D01*
X1179677Y1619250D01*
X1166672Y1623314D01*
X1153210Y1625549D01*
X1139596Y1626006D01*
X1126032Y1624634D01*
X1112774Y1621485D01*
X1100023Y1616608D01*
X1088085Y1610055D01*
X1077061Y1601927D01*
X1067308Y1592478D01*
X1058824Y1581759D01*
X1051864Y1570024D01*
X1046581Y1557477D01*
X1042974Y1544320D01*
X1041146Y1530807D01*
X1041146Y1517192D01*
X1042974Y1503680D01*
X1046581Y1490522D01*
X1051864Y1477975D01*
X1058824Y1466240D01*
X1067308Y1455521D01*
X1077061Y1446022D01*
X1088085Y1437944D01*
X1100023Y1431391D01*
X1112774Y1426514D01*
X1126032Y1423314D01*
G37*
G36*
X3425596Y1421942D02*
G01*
X3439210Y1422400D01*
X3452672Y1424686D01*
X3465677Y1428750D01*
X3478072Y1434490D01*
X3489553Y1441805D01*
X3499967Y1450594D01*
X3509111Y1460703D01*
X3516833Y1471980D01*
X3522979Y1484122D01*
X3527450Y1497025D01*
X3530193Y1510385D01*
X3531057Y1524000D01*
X3530193Y1537614D01*
X3527450Y1550974D01*
X3522979Y1563827D01*
X3516833Y1576019D01*
X3509111Y1587246D01*
X3499967Y1597355D01*
X3489553Y1606194D01*
X3478072Y1613509D01*
X3465677Y1619250D01*
X3452672Y1623314D01*
X3439210Y1625549D01*
X3425596Y1626006D01*
X3412032Y1624634D01*
X3398774Y1621485D01*
X3386023Y1616608D01*
X3374085Y1610055D01*
X3363061Y1601927D01*
X3353308Y1592478D01*
X3344824Y1581759D01*
X3337864Y1570024D01*
X3332581Y1557477D01*
X3328974Y1544320D01*
X3327146Y1530807D01*
X3327146Y1517192D01*
X3328974Y1503680D01*
X3332581Y1490522D01*
X3337864Y1477975D01*
X3344824Y1466240D01*
X3353308Y1455521D01*
X3363061Y1446022D01*
X3374085Y1437944D01*
X3386023Y1431391D01*
X3398774Y1426514D01*
X3412032Y1423314D01*
G37*
G36*
X3993692Y4660646D02*
G01*
X4007307Y4660646D01*
X4020820Y4662474D01*
X4033977Y4666030D01*
X4046524Y4671364D01*
X4058259Y4678324D01*
X4068978Y4686757D01*
X4078427Y4696561D01*
X4086555Y4707534D01*
X4093108Y4719523D01*
X4097985Y4732223D01*
X4101134Y4745532D01*
X4102506Y4759096D01*
X4102049Y4772710D01*
X4099814Y4786172D01*
X4095750Y4799177D01*
X4090009Y4811572D01*
X4082694Y4823053D01*
X4073855Y4833467D01*
X4063746Y4842611D01*
X4052519Y4850333D01*
X4040327Y4856480D01*
X4027474Y4860950D01*
X4014114Y4863642D01*
X4000500Y4864557D01*
X3986885Y4863642D01*
X3973525Y4860950D01*
X3960622Y4856480D01*
X3948480Y4850333D01*
X3937203Y4842611D01*
X3927094Y4833467D01*
X3918305Y4823053D01*
X3910990Y4811572D01*
X3905250Y4799177D01*
X3901186Y4786172D01*
X3898900Y4772710D01*
X3898442Y4759096D01*
X3899814Y4745532D01*
X3903014Y4732223D01*
X3907891Y4719523D01*
X3914444Y4707534D01*
X3922522Y4696561D01*
X3932021Y4686757D01*
X3942740Y4678324D01*
X3954475Y4671364D01*
X3967022Y4666030D01*
X3980179Y4662474D01*
G37*
G36*
X8692337Y4561535D02*
G01*
X8694470Y4562500D01*
X8707475Y4570374D01*
X8719464Y4579772D01*
X8730234Y4590491D01*
X8739581Y4602480D01*
X8747455Y4615484D01*
X8753703Y4629404D01*
X8754211Y4630115D01*
X8692337Y4630115D01*
G37*
G36*
X8579612Y4561535D02*
G01*
X8579612Y4630115D01*
X8518042Y4630115D01*
X8524494Y4615484D01*
X8532368Y4602480D01*
X8541766Y4590491D01*
X8552484Y4579772D01*
X8564473Y4570374D01*
X8577478Y4562500D01*
G37*
G36*
X4044950Y4552950D02*
G01*
X4092143Y4552950D01*
X4090009Y4557572D01*
X4082694Y4569053D01*
X4073855Y4579467D01*
X4063746Y4588611D01*
X4052519Y4596333D01*
X4044950Y4600143D01*
G37*
G36*
X3908806Y4552950D02*
G01*
X3956050Y4552950D01*
X3956050Y4600143D01*
X3948480Y4596333D01*
X3937203Y4588611D01*
X3927094Y4579467D01*
X3918305Y4569053D01*
X3910990Y4557572D01*
G37*
G36*
X9044533Y4548073D02*
G01*
X9243415Y4548073D01*
X9249714Y4548784D01*
X9255201Y4550714D01*
X9260078Y4553762D01*
X9264192Y4557877D01*
X9267291Y4562754D01*
X9269171Y4568240D01*
X9269882Y4574540D01*
X9269882Y4823409D01*
X9269171Y4829759D01*
X9267291Y4835194D01*
X9264192Y4840122D01*
X9260078Y4844186D01*
X9255201Y4847285D01*
X9249714Y4849164D01*
X9243415Y4849876D01*
X9044533Y4849876D01*
X9038234Y4849164D01*
X9032748Y4847285D01*
X9027871Y4844186D01*
X9023756Y4840122D01*
X9020708Y4835194D01*
X9018778Y4829759D01*
X9018066Y4823409D01*
X9018066Y4791456D01*
X9017152Y4787188D01*
X9014510Y4783683D01*
X9010650Y4781651D01*
X9006281Y4781397D01*
X9002217Y4783023D01*
X8999220Y4786172D01*
X8993581Y4795520D01*
X8984234Y4807458D01*
X8973464Y4818227D01*
X8961475Y4827574D01*
X8948470Y4835448D01*
X8934602Y4841697D01*
X8920124Y4846218D01*
X8905138Y4848961D01*
X8890000Y4849876D01*
X8874810Y4848961D01*
X8859875Y4846218D01*
X8845346Y4841697D01*
X8831478Y4835448D01*
X8818473Y4827574D01*
X8806484Y4818227D01*
X8795766Y4807458D01*
X8786368Y4795520D01*
X8778494Y4782515D01*
X8772245Y4768596D01*
X8770010Y4765395D01*
X8766505Y4763262D01*
X8767368Y4762093D01*
X8768334Y4758436D01*
X8767775Y4754118D01*
X8765032Y4739182D01*
X8764066Y4723688D01*
X8764066Y4674311D01*
X8765032Y4658817D01*
X8767927Y4643323D01*
X8768334Y4639564D01*
X8767368Y4635906D01*
X8766759Y4634687D01*
X8770010Y4632553D01*
X8772245Y4629404D01*
X8778494Y4615484D01*
X8786368Y4602480D01*
X8795766Y4590491D01*
X8806484Y4579772D01*
X8818473Y4570374D01*
X8831478Y4562500D01*
X8845346Y4556302D01*
X8859875Y4551781D01*
X8874810Y4549038D01*
X8890000Y4548124D01*
X8905138Y4549038D01*
X8920124Y4551781D01*
X8934602Y4556302D01*
X8948470Y4562500D01*
X8961475Y4570374D01*
X8973464Y4579772D01*
X8984234Y4590491D01*
X8993581Y4602480D01*
X8999220Y4611776D01*
X9002217Y4614976D01*
X9006281Y4616551D01*
X9010650Y4616348D01*
X9014510Y4614265D01*
X9017152Y4610811D01*
X9018066Y4606544D01*
X9018066Y4574540D01*
X9018778Y4568240D01*
X9020708Y4562754D01*
X9023756Y4557877D01*
X9027871Y4553762D01*
X9032748Y4550714D01*
X9038234Y4548784D01*
G37*
G36*
X1139596Y1675942D02*
G01*
X1153210Y1676400D01*
X1166672Y1678686D01*
X1179677Y1682750D01*
X1192072Y1688490D01*
X1203553Y1695805D01*
X1213967Y1704593D01*
X1223111Y1714703D01*
X1230833Y1725980D01*
X1236980Y1738122D01*
X1241450Y1751025D01*
X1244193Y1764385D01*
X1245057Y1778000D01*
X1244193Y1791614D01*
X1241450Y1804974D01*
X1236980Y1817827D01*
X1230833Y1830019D01*
X1223111Y1841246D01*
X1213967Y1851355D01*
X1203553Y1860194D01*
X1192072Y1867509D01*
X1179677Y1873250D01*
X1166672Y1877314D01*
X1153210Y1879549D01*
X1139596Y1880006D01*
X1126032Y1878634D01*
X1112774Y1875485D01*
X1100023Y1870608D01*
X1088085Y1864055D01*
X1077061Y1855927D01*
X1067308Y1846478D01*
X1058824Y1835759D01*
X1051864Y1824024D01*
X1046581Y1811477D01*
X1042974Y1798320D01*
X1041146Y1784807D01*
X1041146Y1771192D01*
X1042974Y1757680D01*
X1046581Y1744522D01*
X1051864Y1731975D01*
X1058824Y1720240D01*
X1067308Y1709521D01*
X1077061Y1700022D01*
X1088085Y1691944D01*
X1100023Y1685391D01*
X1112774Y1680514D01*
X1126032Y1677314D01*
G37*
G36*
X3425596Y1675942D02*
G01*
X3439210Y1676400D01*
X3452672Y1678686D01*
X3465677Y1682750D01*
X3478072Y1688490D01*
X3489553Y1695805D01*
X3499967Y1704593D01*
X3509111Y1714703D01*
X3516833Y1725980D01*
X3522979Y1738122D01*
X3527450Y1751025D01*
X3530193Y1764385D01*
X3531057Y1778000D01*
X3530193Y1791614D01*
X3527450Y1804974D01*
X3522979Y1817827D01*
X3516833Y1830019D01*
X3509111Y1841246D01*
X3499967Y1851355D01*
X3489553Y1860194D01*
X3478072Y1867509D01*
X3465677Y1873250D01*
X3452672Y1877314D01*
X3439210Y1879549D01*
X3425596Y1880006D01*
X3412032Y1878634D01*
X3398774Y1875485D01*
X3386023Y1870608D01*
X3374085Y1864055D01*
X3363061Y1855927D01*
X3353308Y1846478D01*
X3344824Y1835759D01*
X3337864Y1824024D01*
X3332581Y1811477D01*
X3328974Y1798320D01*
X3327146Y1784807D01*
X3327146Y1771192D01*
X3328974Y1757680D01*
X3332581Y1744522D01*
X3337864Y1731975D01*
X3344824Y1720240D01*
X3353308Y1709521D01*
X3363061Y1700022D01*
X3374085Y1691944D01*
X3386023Y1685391D01*
X3398774Y1680514D01*
X3412032Y1677314D01*
G37*
G36*
X5334000Y1721662D02*
G01*
X5343804Y1722526D01*
X5353253Y1725066D01*
X5362194Y1729181D01*
X5370220Y1734820D01*
X5377180Y1741779D01*
X5382818Y1749806D01*
X5386933Y1758746D01*
X5389473Y1768195D01*
X5390184Y1776069D01*
X5391099Y1779473D01*
X5393131Y1782368D01*
X5396026Y1784400D01*
X5399430Y1785315D01*
X5407304Y1786026D01*
X5416753Y1788566D01*
X5425694Y1792681D01*
X5433720Y1798320D01*
X5440680Y1805279D01*
X5446318Y1813306D01*
X5450433Y1822246D01*
X5452973Y1831695D01*
X5453837Y1841500D01*
X5452973Y1851304D01*
X5450433Y1860753D01*
X5446318Y1869693D01*
X5440680Y1877720D01*
X5433720Y1884680D01*
X5425694Y1890318D01*
X5416753Y1894433D01*
X5407304Y1896973D01*
X5397500Y1897837D01*
X5387695Y1896973D01*
X5378246Y1894433D01*
X5369306Y1890318D01*
X5361279Y1884680D01*
X5359704Y1883105D01*
X5356402Y1880870D01*
X5352491Y1880107D01*
X4020667Y1880107D01*
X4016806Y1880870D01*
X4013504Y1883105D01*
X3851554Y2045004D01*
X3849370Y2048306D01*
X3848608Y2052218D01*
X3848608Y3789781D01*
X3849370Y3793693D01*
X3851554Y3796995D01*
X4281424Y4226864D01*
X4286554Y4233062D01*
X4290110Y4239717D01*
X4292295Y4246981D01*
X4293108Y4255008D01*
X4293108Y4551781D01*
X4293870Y4555693D01*
X4296054Y4558995D01*
X4916424Y5179314D01*
X4921554Y5185562D01*
X4925110Y5192217D01*
X4927295Y5199481D01*
X4928108Y5207457D01*
X4928108Y5423611D01*
X4928768Y5427268D01*
X4930698Y5430469D01*
X4933696Y5432704D01*
X4941519Y5436666D01*
X4952746Y5444388D01*
X4962906Y5453532D01*
X4971694Y5463946D01*
X4979009Y5475427D01*
X4984750Y5487822D01*
X4988814Y5500827D01*
X4991049Y5514289D01*
X4991506Y5527903D01*
X4990185Y5541467D01*
X4986985Y5554726D01*
X4982108Y5567476D01*
X4975555Y5579414D01*
X4967478Y5590387D01*
X4957978Y5600192D01*
X4947259Y5608675D01*
X4935524Y5615635D01*
X4922977Y5620918D01*
X4909820Y5624525D01*
X4896307Y5626354D01*
X4882692Y5626354D01*
X4869180Y5624525D01*
X4856022Y5620918D01*
X4843475Y5615635D01*
X4831740Y5608675D01*
X4821021Y5600192D01*
X4811522Y5590387D01*
X4803444Y5579414D01*
X4796891Y5567476D01*
X4792014Y5554726D01*
X4788814Y5541467D01*
X4787493Y5527903D01*
X4787950Y5514289D01*
X4790186Y5500827D01*
X4794250Y5487822D01*
X4799990Y5475427D01*
X4807305Y5463946D01*
X4816094Y5453532D01*
X4826254Y5444388D01*
X4837480Y5436666D01*
X4845304Y5432704D01*
X4848250Y5430469D01*
X4850180Y5427319D01*
X4850892Y5423662D01*
X4850892Y5227167D01*
X4850130Y5223306D01*
X4847894Y5220004D01*
X4690211Y5062270D01*
X4686452Y5059934D01*
X4682032Y5059375D01*
X4677765Y5060746D01*
X4674565Y5063845D01*
X4672939Y5068011D01*
X4674108Y5080457D01*
X4674108Y5423611D01*
X4674768Y5427268D01*
X4676698Y5430418D01*
X4679645Y5432704D01*
X4687519Y5436666D01*
X4698746Y5444388D01*
X4708906Y5453532D01*
X4717694Y5463946D01*
X4725009Y5475427D01*
X4730750Y5487822D01*
X4734814Y5500827D01*
X4737049Y5514289D01*
X4737506Y5527903D01*
X4736185Y5541467D01*
X4732985Y5554726D01*
X4728108Y5567476D01*
X4721555Y5579414D01*
X4713478Y5590387D01*
X4703978Y5600192D01*
X4693259Y5608675D01*
X4681524Y5615635D01*
X4668977Y5620918D01*
X4655820Y5624525D01*
X4642307Y5626354D01*
X4628692Y5626354D01*
X4615180Y5624525D01*
X4602022Y5620918D01*
X4589475Y5615635D01*
X4577740Y5608675D01*
X4567021Y5600192D01*
X4557522Y5590387D01*
X4549444Y5579414D01*
X4542891Y5567476D01*
X4538014Y5554726D01*
X4534814Y5541467D01*
X4533493Y5527903D01*
X4533950Y5514289D01*
X4536186Y5500827D01*
X4540250Y5487822D01*
X4545990Y5475427D01*
X4553305Y5463946D01*
X4562094Y5453532D01*
X4572254Y5444388D01*
X4583480Y5436666D01*
X4591304Y5432704D01*
X4594250Y5430469D01*
X4596180Y5427319D01*
X4596892Y5423662D01*
X4596892Y5100167D01*
X4596079Y5096306D01*
X4593894Y5093004D01*
X4164025Y4663135D01*
X4158945Y4656886D01*
X4155389Y4650232D01*
X4153154Y4643018D01*
X4152392Y4634992D01*
X4152392Y4338167D01*
X4151629Y4334306D01*
X4149394Y4331004D01*
X3719525Y3901135D01*
X3714445Y3894937D01*
X3710889Y3888232D01*
X3708654Y3881018D01*
X3707892Y3872992D01*
X3707892Y2032507D01*
X3708654Y2024481D01*
X3710889Y2017217D01*
X3714445Y2010562D01*
X3719525Y2004364D01*
X3972864Y1751025D01*
X3979062Y1745945D01*
X3985717Y1742389D01*
X3992981Y1740154D01*
X4001008Y1739392D01*
X5288991Y1739392D01*
X5292902Y1738630D01*
X5296204Y1736394D01*
X5297779Y1734820D01*
X5305806Y1729181D01*
X5314746Y1725066D01*
X5324195Y1722526D01*
G37*
G36*
X7766659Y4498340D02*
G01*
X7820659Y4498340D01*
X7820659Y4552137D01*
X7817256Y4550613D01*
X7804708Y4542840D01*
X7793228Y4533595D01*
X7782966Y4522978D01*
X7774076Y4511192D01*
G37*
G36*
X7927340Y4498340D02*
G01*
X7981340Y4498340D01*
X7973923Y4511192D01*
X7965033Y4522978D01*
X7954721Y4533595D01*
X7943240Y4542840D01*
X7930692Y4550613D01*
X7927340Y4552137D01*
G37*
G36*
X3425596Y4469942D02*
G01*
X3439210Y4470400D01*
X3452672Y4472686D01*
X3465677Y4476750D01*
X3478072Y4482490D01*
X3489553Y4489805D01*
X3499967Y4498594D01*
X3509111Y4508703D01*
X3516833Y4519980D01*
X3522979Y4532122D01*
X3527450Y4545025D01*
X3530193Y4558385D01*
X3531057Y4572000D01*
X3530193Y4585614D01*
X3527450Y4598974D01*
X3522979Y4611827D01*
X3516833Y4624019D01*
X3509111Y4635246D01*
X3499967Y4645355D01*
X3489553Y4654194D01*
X3478072Y4661509D01*
X3465677Y4667250D01*
X3452672Y4671314D01*
X3439210Y4673549D01*
X3425596Y4674006D01*
X3412032Y4672634D01*
X3398774Y4669485D01*
X3386023Y4664608D01*
X3374085Y4658055D01*
X3363061Y4649927D01*
X3353308Y4640478D01*
X3344824Y4629759D01*
X3337864Y4618024D01*
X3332581Y4605477D01*
X3328974Y4592320D01*
X3327146Y4578807D01*
X3327146Y4565192D01*
X3328974Y4551680D01*
X3332581Y4538522D01*
X3337864Y4525975D01*
X3344824Y4514240D01*
X3353308Y4503521D01*
X3363061Y4494022D01*
X3374085Y4485944D01*
X3386023Y4479391D01*
X3398774Y4474514D01*
X3412032Y4471314D01*
G37*
G36*
X1139596Y4469942D02*
G01*
X1153210Y4470400D01*
X1166672Y4472686D01*
X1179677Y4476750D01*
X1192072Y4482490D01*
X1203553Y4489805D01*
X1213967Y4498594D01*
X1223111Y4508703D01*
X1230833Y4519980D01*
X1236980Y4532122D01*
X1241450Y4545025D01*
X1244193Y4558385D01*
X1245057Y4572000D01*
X1244193Y4585614D01*
X1241450Y4598974D01*
X1236980Y4611827D01*
X1230833Y4624019D01*
X1223111Y4635246D01*
X1213967Y4645355D01*
X1203553Y4654194D01*
X1192072Y4661509D01*
X1179677Y4667250D01*
X1166672Y4671314D01*
X1153210Y4673549D01*
X1139596Y4674006D01*
X1126032Y4672634D01*
X1112774Y4669485D01*
X1100023Y4664608D01*
X1088085Y4658055D01*
X1077061Y4649927D01*
X1067308Y4640478D01*
X1058824Y4629759D01*
X1051864Y4618024D01*
X1046581Y4605477D01*
X1042974Y4592320D01*
X1041146Y4578807D01*
X1041146Y4565192D01*
X1042974Y4551680D01*
X1046581Y4538522D01*
X1051864Y4525975D01*
X1058824Y4514240D01*
X1067308Y4503521D01*
X1077061Y4494022D01*
X1088085Y4485944D01*
X1100023Y4479391D01*
X1112774Y4474514D01*
X1126032Y4471314D01*
G37*
G36*
X3956050Y4416704D02*
G01*
X3956050Y4464050D01*
X3908704Y4464050D01*
X3914444Y4453534D01*
X3922522Y4442561D01*
X3932021Y4432757D01*
X3942740Y4424324D01*
X3954475Y4417364D01*
G37*
G36*
X4044950Y4416704D02*
G01*
X4046524Y4417364D01*
X4058259Y4424324D01*
X4068978Y4432757D01*
X4078427Y4442561D01*
X4086555Y4453534D01*
X4092295Y4464050D01*
X4044950Y4464050D01*
G37*
G36*
X7041642Y4343146D02*
G01*
X7055307Y4343146D01*
X7068820Y4344974D01*
X7081977Y4348530D01*
X7094524Y4353864D01*
X7106259Y4360824D01*
X7116978Y4369257D01*
X7126427Y4379061D01*
X7134555Y4390085D01*
X7141108Y4402023D01*
X7145985Y4414723D01*
X7149134Y4428032D01*
X7150506Y4441596D01*
X7150049Y4455210D01*
X7147814Y4468672D01*
X7143750Y4481677D01*
X7138009Y4494072D01*
X7130694Y4505553D01*
X7121855Y4515967D01*
X7111746Y4525111D01*
X7100519Y4532833D01*
X7088327Y4538980D01*
X7075474Y4543450D01*
X7062114Y4546142D01*
X7048500Y4547057D01*
X7034885Y4546142D01*
X7021525Y4543450D01*
X7008622Y4538980D01*
X6996480Y4532833D01*
X6985203Y4525111D01*
X6975094Y4515967D01*
X6966305Y4505553D01*
X6958939Y4494072D01*
X6953199Y4481677D01*
X6949186Y4468672D01*
X6946900Y4455210D01*
X6946442Y4441596D01*
X6947814Y4428032D01*
X6950964Y4414723D01*
X6955891Y4402023D01*
X6962444Y4390085D01*
X6970522Y4379061D01*
X6980021Y4369257D01*
X6990689Y4360824D01*
X7002424Y4353864D01*
X7015022Y4348530D01*
X7028129Y4344974D01*
G37*
G36*
X7927340Y4337812D02*
G01*
X7937093Y4343095D01*
X7949133Y4351578D01*
X7960055Y4361535D01*
X7969656Y4372762D01*
X7977784Y4385056D01*
X7981086Y4391660D01*
X7927340Y4391660D01*
G37*
G36*
X7820659Y4337812D02*
G01*
X7820659Y4391660D01*
X7766913Y4391660D01*
X7770164Y4385056D01*
X7778343Y4372762D01*
X7787944Y4361535D01*
X7798816Y4351578D01*
X7810906Y4343095D01*
G37*
G36*
X3425596Y4215942D02*
G01*
X3439210Y4216400D01*
X3452672Y4218686D01*
X3465677Y4222750D01*
X3478072Y4228490D01*
X3489553Y4235805D01*
X3499967Y4244594D01*
X3509111Y4254703D01*
X3516833Y4265980D01*
X3522979Y4278122D01*
X3527450Y4291025D01*
X3530193Y4304385D01*
X3531057Y4318000D01*
X3530193Y4331614D01*
X3527450Y4344974D01*
X3522979Y4357827D01*
X3516833Y4370019D01*
X3509111Y4381246D01*
X3499967Y4391355D01*
X3489553Y4400194D01*
X3478072Y4407509D01*
X3465677Y4413250D01*
X3452672Y4417314D01*
X3439210Y4419549D01*
X3425596Y4420006D01*
X3412032Y4418634D01*
X3398774Y4415485D01*
X3386023Y4410608D01*
X3374085Y4404055D01*
X3363061Y4395927D01*
X3353308Y4386478D01*
X3344824Y4375759D01*
X3337864Y4364024D01*
X3332581Y4351477D01*
X3328974Y4338320D01*
X3327146Y4324807D01*
X3327146Y4311192D01*
X3328974Y4297680D01*
X3332581Y4284522D01*
X3337864Y4271975D01*
X3344824Y4260240D01*
X3353308Y4249521D01*
X3363061Y4240022D01*
X3374085Y4231944D01*
X3386023Y4225391D01*
X3398774Y4220514D01*
X3412032Y4217314D01*
G37*
G36*
X1139596Y4215942D02*
G01*
X1153210Y4216400D01*
X1166672Y4218686D01*
X1179677Y4222750D01*
X1192072Y4228490D01*
X1203553Y4235805D01*
X1213967Y4244594D01*
X1223111Y4254703D01*
X1230833Y4265980D01*
X1236980Y4278122D01*
X1241450Y4291025D01*
X1244193Y4304385D01*
X1245057Y4318000D01*
X1244193Y4331614D01*
X1241450Y4344974D01*
X1236980Y4357827D01*
X1230833Y4370019D01*
X1223111Y4381246D01*
X1213967Y4391355D01*
X1203553Y4400194D01*
X1192072Y4407509D01*
X1179677Y4413250D01*
X1166672Y4417314D01*
X1153210Y4419549D01*
X1139596Y4420006D01*
X1126032Y4418634D01*
X1112774Y4415485D01*
X1100023Y4410608D01*
X1088085Y4404055D01*
X1077061Y4395927D01*
X1067308Y4386478D01*
X1058824Y4375759D01*
X1051864Y4364024D01*
X1046581Y4351477D01*
X1042974Y4338320D01*
X1041146Y4324807D01*
X1041146Y4311192D01*
X1042974Y4297680D01*
X1046581Y4284522D01*
X1051864Y4271975D01*
X1058824Y4260240D01*
X1067308Y4249521D01*
X1077061Y4240022D01*
X1088085Y4231944D01*
X1100023Y4225391D01*
X1112774Y4220514D01*
X1126032Y4217314D01*
G37*
G36*
X6413500Y4152392D02*
G01*
X6427114Y4153306D01*
X6440474Y4156049D01*
X6453378Y4160520D01*
X6465519Y4166666D01*
X6476746Y4174388D01*
X6486906Y4183532D01*
X6495694Y4193946D01*
X6503009Y4205427D01*
X6508750Y4217822D01*
X6512814Y4230827D01*
X6515049Y4244289D01*
X6515506Y4257903D01*
X6514185Y4271467D01*
X6510985Y4284726D01*
X6506108Y4297476D01*
X6499555Y4309414D01*
X6491478Y4320387D01*
X6481978Y4330192D01*
X6471259Y4338675D01*
X6459524Y4345635D01*
X6446977Y4350918D01*
X6433820Y4354525D01*
X6420307Y4356354D01*
X6406692Y4356354D01*
X6393180Y4354525D01*
X6380022Y4350918D01*
X6367475Y4345635D01*
X6355740Y4338675D01*
X6345021Y4330192D01*
X6335522Y4320387D01*
X6327444Y4309414D01*
X6320891Y4297476D01*
X6316014Y4284726D01*
X6312814Y4271467D01*
X6311493Y4257903D01*
X6311950Y4244289D01*
X6314186Y4230827D01*
X6318250Y4217822D01*
X6323990Y4205427D01*
X6331305Y4193946D01*
X6340094Y4183532D01*
X6350254Y4174388D01*
X6361480Y4166666D01*
X6373622Y4160520D01*
X6386525Y4156049D01*
X6399885Y4153306D01*
G37*
G36*
X4635500Y4152392D02*
G01*
X4649114Y4153306D01*
X4662474Y4156049D01*
X4675378Y4160520D01*
X4687519Y4166666D01*
X4698746Y4174388D01*
X4708906Y4183532D01*
X4717694Y4193946D01*
X4725009Y4205427D01*
X4730750Y4217822D01*
X4734814Y4230827D01*
X4737049Y4244289D01*
X4737506Y4257903D01*
X4736185Y4271467D01*
X4732985Y4284726D01*
X4728108Y4297476D01*
X4721555Y4309414D01*
X4713478Y4320387D01*
X4703978Y4330192D01*
X4693259Y4338675D01*
X4681524Y4345635D01*
X4668977Y4350918D01*
X4655820Y4354525D01*
X4642307Y4356354D01*
X4628692Y4356354D01*
X4615180Y4354525D01*
X4602022Y4350918D01*
X4589475Y4345635D01*
X4577740Y4338675D01*
X4567021Y4330192D01*
X4557522Y4320387D01*
X4549444Y4309414D01*
X4542891Y4297476D01*
X4538014Y4284726D01*
X4534814Y4271467D01*
X4533493Y4257903D01*
X4533950Y4244289D01*
X4536186Y4230827D01*
X4540250Y4217822D01*
X4545990Y4205427D01*
X4553305Y4193946D01*
X4562094Y4183532D01*
X4572254Y4174388D01*
X4583480Y4166666D01*
X4595622Y4160520D01*
X4608525Y4156049D01*
X4621885Y4153306D01*
G37*
G36*
X6159500Y4152392D02*
G01*
X6173114Y4153306D01*
X6186474Y4156049D01*
X6199378Y4160520D01*
X6211519Y4166666D01*
X6222746Y4174388D01*
X6232906Y4183532D01*
X6241694Y4193946D01*
X6249009Y4205427D01*
X6254750Y4217822D01*
X6258814Y4230827D01*
X6261049Y4244289D01*
X6261506Y4257903D01*
X6260185Y4271467D01*
X6256985Y4284726D01*
X6252108Y4297476D01*
X6245555Y4309414D01*
X6237478Y4320387D01*
X6227978Y4330192D01*
X6217259Y4338675D01*
X6205524Y4345635D01*
X6192977Y4350918D01*
X6179820Y4354525D01*
X6166307Y4356354D01*
X6152692Y4356354D01*
X6139180Y4354525D01*
X6126022Y4350918D01*
X6113475Y4345635D01*
X6101740Y4338675D01*
X6091021Y4330192D01*
X6081522Y4320387D01*
X6073444Y4309414D01*
X6066891Y4297476D01*
X6062014Y4284726D01*
X6058814Y4271467D01*
X6057493Y4257903D01*
X6057950Y4244289D01*
X6060186Y4230827D01*
X6064250Y4217822D01*
X6069990Y4205427D01*
X6077305Y4193946D01*
X6086094Y4183532D01*
X6096254Y4174388D01*
X6107480Y4166666D01*
X6119622Y4160520D01*
X6132525Y4156049D01*
X6145885Y4153306D01*
G37*
G36*
X7041642Y4089146D02*
G01*
X7055307Y4089146D01*
X7068820Y4090974D01*
X7081977Y4094530D01*
X7094524Y4099864D01*
X7106259Y4106824D01*
X7116978Y4115257D01*
X7126427Y4125061D01*
X7134555Y4136085D01*
X7141108Y4148023D01*
X7145985Y4160723D01*
X7149134Y4174032D01*
X7150506Y4187596D01*
X7150049Y4201210D01*
X7147814Y4214672D01*
X7143750Y4227677D01*
X7138009Y4240072D01*
X7130694Y4251553D01*
X7121855Y4261967D01*
X7111746Y4271111D01*
X7100519Y4278833D01*
X7088327Y4284980D01*
X7075474Y4289450D01*
X7062114Y4292142D01*
X7048500Y4293057D01*
X7034885Y4292142D01*
X7021525Y4289450D01*
X7008622Y4284980D01*
X6996480Y4278833D01*
X6985203Y4271111D01*
X6975094Y4261967D01*
X6966305Y4251553D01*
X6958939Y4240072D01*
X6953199Y4227677D01*
X6949186Y4214672D01*
X6946900Y4201210D01*
X6946442Y4187596D01*
X6947814Y4174032D01*
X6950964Y4160723D01*
X6955891Y4148023D01*
X6962444Y4136085D01*
X6970522Y4125061D01*
X6980021Y4115257D01*
X6990689Y4106824D01*
X7002424Y4099864D01*
X7015022Y4094530D01*
X7028129Y4090974D01*
G37*
G36*
X3425596Y3961942D02*
G01*
X3439210Y3962400D01*
X3452672Y3964686D01*
X3465677Y3968750D01*
X3478072Y3974490D01*
X3489553Y3981805D01*
X3499967Y3990594D01*
X3509111Y4000703D01*
X3516833Y4011980D01*
X3522979Y4024122D01*
X3527450Y4037025D01*
X3530193Y4050385D01*
X3531057Y4064000D01*
X3530193Y4077614D01*
X3527450Y4090974D01*
X3522979Y4103827D01*
X3516833Y4116019D01*
X3509111Y4127246D01*
X3499967Y4137355D01*
X3489553Y4146194D01*
X3478072Y4153509D01*
X3465677Y4159250D01*
X3452672Y4163314D01*
X3439210Y4165549D01*
X3425596Y4166006D01*
X3412032Y4164634D01*
X3398774Y4161485D01*
X3386023Y4156608D01*
X3374085Y4150055D01*
X3363061Y4141927D01*
X3353308Y4132478D01*
X3344824Y4121759D01*
X3337864Y4110024D01*
X3332581Y4097477D01*
X3328974Y4084320D01*
X3327146Y4070807D01*
X3327146Y4057192D01*
X3328974Y4043679D01*
X3332581Y4030522D01*
X3337864Y4017975D01*
X3344824Y4006240D01*
X3353308Y3995521D01*
X3363061Y3986022D01*
X3374085Y3977944D01*
X3386023Y3971391D01*
X3398774Y3966514D01*
X3412032Y3963314D01*
G37*
G36*
X1139596Y3961942D02*
G01*
X1153210Y3962400D01*
X1166672Y3964686D01*
X1179677Y3968750D01*
X1192072Y3974490D01*
X1203553Y3981805D01*
X1213967Y3990594D01*
X1223111Y4000703D01*
X1230833Y4011980D01*
X1236980Y4024122D01*
X1241450Y4037025D01*
X1244193Y4050385D01*
X1245057Y4064000D01*
X1244193Y4077614D01*
X1241450Y4090974D01*
X1236980Y4103827D01*
X1230833Y4116019D01*
X1223111Y4127246D01*
X1213967Y4137355D01*
X1203553Y4146194D01*
X1192072Y4153509D01*
X1179677Y4159250D01*
X1166672Y4163314D01*
X1153210Y4165549D01*
X1139596Y4166006D01*
X1126032Y4164634D01*
X1112774Y4161485D01*
X1100023Y4156608D01*
X1088085Y4150055D01*
X1077061Y4141927D01*
X1067308Y4132478D01*
X1058824Y4121759D01*
X1051864Y4110024D01*
X1046581Y4097477D01*
X1042974Y4084320D01*
X1041146Y4070807D01*
X1041146Y4057192D01*
X1042974Y4043679D01*
X1046581Y4030522D01*
X1051864Y4017975D01*
X1058824Y4006240D01*
X1067308Y3995521D01*
X1077061Y3986022D01*
X1088085Y3977944D01*
X1100023Y3971391D01*
X1112774Y3966514D01*
X1126032Y3963314D01*
G37*
G36*
X7937500Y3898392D02*
G01*
X7951114Y3899306D01*
X7964474Y3902049D01*
X7977327Y3906520D01*
X7989519Y3912666D01*
X8000746Y3920388D01*
X8010855Y3929532D01*
X8019694Y3939946D01*
X8027009Y3951427D01*
X8032750Y3963822D01*
X8036814Y3976827D01*
X8039049Y3990289D01*
X8039506Y4003903D01*
X8038134Y4017467D01*
X8034985Y4030726D01*
X8030108Y4043476D01*
X8023555Y4055414D01*
X8015427Y4066387D01*
X8005978Y4076192D01*
X7995259Y4084675D01*
X7983524Y4091584D01*
X7970977Y4096918D01*
X7957820Y4100525D01*
X7944307Y4102354D01*
X7930642Y4102354D01*
X7917129Y4100525D01*
X7904022Y4096918D01*
X7891424Y4091584D01*
X7879689Y4084675D01*
X7869021Y4076192D01*
X7859522Y4066387D01*
X7851444Y4055414D01*
X7844891Y4043476D01*
X7839964Y4030726D01*
X7836814Y4017467D01*
X7835442Y4003903D01*
X7835900Y3990289D01*
X7838186Y3976827D01*
X7842199Y3963822D01*
X7847939Y3951427D01*
X7855305Y3939946D01*
X7864094Y3929532D01*
X7874203Y3920388D01*
X7885480Y3912666D01*
X7897622Y3906520D01*
X7910525Y3902049D01*
X7923885Y3899306D01*
G37*
G36*
X1139596Y1929942D02*
G01*
X1153210Y1930400D01*
X1166672Y1932686D01*
X1179677Y1936750D01*
X1192072Y1942490D01*
X1203553Y1949805D01*
X1213967Y1958593D01*
X1223111Y1968703D01*
X1230833Y1979980D01*
X1236980Y1992122D01*
X1241450Y2005025D01*
X1244193Y2018385D01*
X1245057Y2032000D01*
X1244193Y2045614D01*
X1241450Y2058974D01*
X1236980Y2071827D01*
X1230833Y2084019D01*
X1223111Y2095246D01*
X1213967Y2105355D01*
X1203553Y2114194D01*
X1192072Y2121509D01*
X1179677Y2127250D01*
X1166672Y2131314D01*
X1153210Y2133549D01*
X1139596Y2134006D01*
X1126032Y2132634D01*
X1112774Y2129485D01*
X1100023Y2124608D01*
X1088085Y2118055D01*
X1077061Y2109927D01*
X1067308Y2100478D01*
X1058824Y2089759D01*
X1051864Y2078024D01*
X1046581Y2065477D01*
X1042974Y2052320D01*
X1041146Y2038807D01*
X1041146Y2025192D01*
X1042974Y2011680D01*
X1046581Y1998522D01*
X1051864Y1985975D01*
X1058824Y1974240D01*
X1067308Y1963521D01*
X1077061Y1954022D01*
X1088085Y1945944D01*
X1100023Y1939391D01*
X1112774Y1934514D01*
X1126032Y1931314D01*
G37*
G36*
X3425596Y1929942D02*
G01*
X3439210Y1930400D01*
X3452672Y1932686D01*
X3465677Y1936750D01*
X3478072Y1942490D01*
X3489553Y1949805D01*
X3499967Y1958593D01*
X3509111Y1968703D01*
X3516833Y1979980D01*
X3522979Y1992122D01*
X3527450Y2005025D01*
X3530193Y2018385D01*
X3531057Y2032000D01*
X3530193Y2045614D01*
X3527450Y2058974D01*
X3522979Y2071827D01*
X3516833Y2084019D01*
X3509111Y2095246D01*
X3499967Y2105355D01*
X3489553Y2114194D01*
X3478072Y2121509D01*
X3465677Y2127250D01*
X3452672Y2131314D01*
X3439210Y2133549D01*
X3425596Y2134006D01*
X3412032Y2132634D01*
X3398774Y2129485D01*
X3386023Y2124608D01*
X3374085Y2118055D01*
X3363061Y2109927D01*
X3353308Y2100478D01*
X3344824Y2089759D01*
X3337864Y2078024D01*
X3332581Y2065477D01*
X3328974Y2052320D01*
X3327146Y2038807D01*
X3327146Y2025192D01*
X3328974Y2011680D01*
X3332581Y1998522D01*
X3337864Y1985975D01*
X3344824Y1974240D01*
X3353308Y1963521D01*
X3363061Y1954022D01*
X3374085Y1945944D01*
X3386023Y1939391D01*
X3398774Y1934514D01*
X3412032Y1931314D01*
G37*
G36*
X8756142Y1930146D02*
G01*
X8769807Y1930146D01*
X8783320Y1931974D01*
X8796477Y1935581D01*
X8809024Y1940864D01*
X8820759Y1947824D01*
X8831478Y1956307D01*
X8840927Y1966061D01*
X8849055Y1977085D01*
X8855608Y1989023D01*
X8860485Y2001774D01*
X8863634Y2015032D01*
X8865006Y2028596D01*
X8864549Y2042210D01*
X8862314Y2055672D01*
X8858250Y2068677D01*
X8852509Y2081072D01*
X8845194Y2092553D01*
X8836355Y2102967D01*
X8826246Y2112111D01*
X8815019Y2119833D01*
X8802827Y2125980D01*
X8789974Y2130450D01*
X8776614Y2133193D01*
X8763000Y2134057D01*
X8749385Y2133193D01*
X8736025Y2130450D01*
X8723122Y2125980D01*
X8710980Y2119833D01*
X8699703Y2112111D01*
X8689594Y2102967D01*
X8680805Y2092553D01*
X8673439Y2081072D01*
X8667699Y2068677D01*
X8663686Y2055672D01*
X8661400Y2042210D01*
X8660942Y2028596D01*
X8662314Y2015032D01*
X8665464Y2001774D01*
X8670391Y1989023D01*
X8676944Y1977085D01*
X8685022Y1966061D01*
X8694521Y1956307D01*
X8705189Y1947824D01*
X8716924Y1940864D01*
X8729522Y1935581D01*
X8742629Y1931974D01*
G37*
G36*
X7486142Y1930146D02*
G01*
X7499807Y1930146D01*
X7513320Y1931974D01*
X7526477Y1935581D01*
X7539024Y1940864D01*
X7550759Y1947824D01*
X7561478Y1956307D01*
X7570927Y1966061D01*
X7579055Y1977085D01*
X7585608Y1989023D01*
X7590485Y2001774D01*
X7593634Y2015032D01*
X7595006Y2028596D01*
X7594549Y2042210D01*
X7592314Y2055672D01*
X7588250Y2068677D01*
X7582509Y2081072D01*
X7575194Y2092553D01*
X7566355Y2102967D01*
X7556246Y2112111D01*
X7545019Y2119833D01*
X7532827Y2125980D01*
X7519974Y2130450D01*
X7506614Y2133193D01*
X7493000Y2134057D01*
X7479385Y2133193D01*
X7466025Y2130450D01*
X7453122Y2125980D01*
X7440980Y2119833D01*
X7429703Y2112111D01*
X7419594Y2102967D01*
X7410805Y2092553D01*
X7403439Y2081072D01*
X7397699Y2068677D01*
X7393686Y2055672D01*
X7391400Y2042210D01*
X7390942Y2028596D01*
X7392314Y2015032D01*
X7395464Y2001774D01*
X7400391Y1989023D01*
X7406944Y1977085D01*
X7415022Y1966061D01*
X7424521Y1956307D01*
X7435189Y1947824D01*
X7446924Y1940864D01*
X7459522Y1935581D01*
X7472629Y1931974D01*
G37*
G36*
X7994142Y1930146D02*
G01*
X8007807Y1930146D01*
X8021320Y1931974D01*
X8034477Y1935581D01*
X8047024Y1940864D01*
X8058759Y1947824D01*
X8069478Y1956307D01*
X8078927Y1966061D01*
X8087055Y1977085D01*
X8093608Y1989023D01*
X8098485Y2001774D01*
X8101634Y2015032D01*
X8103006Y2028596D01*
X8102549Y2042210D01*
X8100314Y2055672D01*
X8096250Y2068677D01*
X8090509Y2081072D01*
X8083194Y2092553D01*
X8074355Y2102967D01*
X8064246Y2112111D01*
X8053019Y2119833D01*
X8040827Y2125980D01*
X8027974Y2130450D01*
X8014614Y2133193D01*
X8001000Y2134057D01*
X7987385Y2133193D01*
X7974025Y2130450D01*
X7961122Y2125980D01*
X7948980Y2119833D01*
X7937703Y2112111D01*
X7927594Y2102967D01*
X7918805Y2092553D01*
X7911439Y2081072D01*
X7905699Y2068677D01*
X7901686Y2055672D01*
X7899400Y2042210D01*
X7898942Y2028596D01*
X7900314Y2015032D01*
X7903464Y2001774D01*
X7908391Y1989023D01*
X7914944Y1977085D01*
X7923022Y1966061D01*
X7932521Y1956307D01*
X7943189Y1947824D01*
X7954924Y1940864D01*
X7967522Y1935581D01*
X7980629Y1931974D01*
G37*
G36*
X7232142Y1930146D02*
G01*
X7245807Y1930146D01*
X7259320Y1931974D01*
X7272477Y1935581D01*
X7285024Y1940864D01*
X7296759Y1947824D01*
X7307478Y1956307D01*
X7316927Y1966061D01*
X7325055Y1977085D01*
X7331608Y1989023D01*
X7336485Y2001774D01*
X7339634Y2015032D01*
X7341006Y2028596D01*
X7340549Y2042210D01*
X7338314Y2055672D01*
X7334250Y2068677D01*
X7328509Y2081072D01*
X7321194Y2092553D01*
X7312355Y2102967D01*
X7302246Y2112111D01*
X7291019Y2119833D01*
X7278827Y2125980D01*
X7265974Y2130450D01*
X7252614Y2133193D01*
X7239000Y2134057D01*
X7225385Y2133193D01*
X7212025Y2130450D01*
X7199122Y2125980D01*
X7186980Y2119833D01*
X7175703Y2112111D01*
X7165594Y2102967D01*
X7156805Y2092553D01*
X7149439Y2081072D01*
X7143699Y2068677D01*
X7139686Y2055672D01*
X7137400Y2042210D01*
X7136942Y2028596D01*
X7138314Y2015032D01*
X7141464Y2001774D01*
X7146391Y1989023D01*
X7152944Y1977085D01*
X7161022Y1966061D01*
X7170521Y1956307D01*
X7181189Y1947824D01*
X7192924Y1940864D01*
X7205522Y1935581D01*
X7218629Y1931974D01*
G37*
G36*
X7740142Y1930146D02*
G01*
X7753807Y1930146D01*
X7767320Y1931974D01*
X7780477Y1935581D01*
X7793024Y1940864D01*
X7804759Y1947824D01*
X7815478Y1956307D01*
X7824927Y1966061D01*
X7833055Y1977085D01*
X7839608Y1989023D01*
X7844485Y2001774D01*
X7847634Y2015032D01*
X7849006Y2028596D01*
X7848549Y2042210D01*
X7846314Y2055672D01*
X7842250Y2068677D01*
X7836509Y2081072D01*
X7829194Y2092553D01*
X7820355Y2102967D01*
X7810246Y2112111D01*
X7799019Y2119833D01*
X7786827Y2125980D01*
X7773974Y2130450D01*
X7760614Y2133193D01*
X7747000Y2134057D01*
X7733385Y2133193D01*
X7720025Y2130450D01*
X7707122Y2125980D01*
X7694980Y2119833D01*
X7683703Y2112111D01*
X7673594Y2102967D01*
X7664805Y2092553D01*
X7657439Y2081072D01*
X7651699Y2068677D01*
X7647686Y2055672D01*
X7645400Y2042210D01*
X7644942Y2028596D01*
X7646314Y2015032D01*
X7649464Y2001774D01*
X7654391Y1989023D01*
X7660944Y1977085D01*
X7669022Y1966061D01*
X7678521Y1956307D01*
X7689189Y1947824D01*
X7700924Y1940864D01*
X7713522Y1935581D01*
X7726629Y1931974D01*
G37*
G36*
X9010142Y1930146D02*
G01*
X9023807Y1930146D01*
X9037320Y1931974D01*
X9050477Y1935581D01*
X9063024Y1940864D01*
X9074759Y1947824D01*
X9085478Y1956307D01*
X9094927Y1966061D01*
X9103055Y1977085D01*
X9109608Y1989023D01*
X9114485Y2001774D01*
X9117634Y2015032D01*
X9119006Y2028596D01*
X9118549Y2042210D01*
X9116314Y2055672D01*
X9112250Y2068677D01*
X9106509Y2081072D01*
X9099194Y2092553D01*
X9090355Y2102967D01*
X9080246Y2112111D01*
X9069019Y2119833D01*
X9056827Y2125980D01*
X9043974Y2130450D01*
X9030614Y2133193D01*
X9017000Y2134057D01*
X9003385Y2133193D01*
X8990025Y2130450D01*
X8977122Y2125980D01*
X8964980Y2119833D01*
X8953703Y2112111D01*
X8943594Y2102967D01*
X8934805Y2092553D01*
X8927439Y2081072D01*
X8921699Y2068677D01*
X8917686Y2055672D01*
X8915400Y2042210D01*
X8914942Y2028596D01*
X8916314Y2015032D01*
X8919464Y2001774D01*
X8924391Y1989023D01*
X8930944Y1977085D01*
X8939022Y1966061D01*
X8948521Y1956307D01*
X8959189Y1947824D01*
X8970924Y1940864D01*
X8983522Y1935581D01*
X8996629Y1931974D01*
G37*
G36*
X4758690Y1935327D02*
G01*
X4758690Y1990089D01*
X4703978Y1990089D01*
X4707280Y1983486D01*
X4715611Y1970938D01*
X4725416Y1959457D01*
X4736541Y1949348D01*
X4748834Y1940610D01*
G37*
G36*
X4867910Y1935327D02*
G01*
X4877714Y1940610D01*
X4890008Y1949348D01*
X4901184Y1959457D01*
X4910988Y1970938D01*
X4919319Y1983486D01*
X4922570Y1990089D01*
X4867910Y1990089D01*
G37*
G36*
X8299450Y1940204D02*
G01*
X8301024Y1940864D01*
X8312759Y1947824D01*
X8323478Y1956307D01*
X8332927Y1966061D01*
X8341055Y1977085D01*
X8346795Y1987550D01*
X8299450Y1987550D01*
G37*
G36*
X8464550Y1940204D02*
G01*
X8464550Y1987550D01*
X8417204Y1987550D01*
X8422944Y1977085D01*
X8431022Y1966061D01*
X8440521Y1956307D01*
X8451189Y1947824D01*
X8462924Y1940864D01*
G37*
G36*
X8553450Y1940204D02*
G01*
X8555024Y1940864D01*
X8566759Y1947824D01*
X8577478Y1956307D01*
X8586927Y1966061D01*
X8595055Y1977085D01*
X8600795Y1987550D01*
X8553450Y1987550D01*
G37*
G36*
X8210550Y1940204D02*
G01*
X8210550Y1987550D01*
X8163204Y1987550D01*
X8168944Y1977085D01*
X8177022Y1966061D01*
X8186521Y1956307D01*
X8197189Y1947824D01*
X8208924Y1940864D01*
G37*
G36*
X6527800Y2044192D02*
G01*
X6543192Y2045157D01*
X6558330Y2047900D01*
X6573012Y2052472D01*
X6587032Y2058822D01*
X6600240Y2066798D01*
X6612331Y2076297D01*
X6623202Y2087168D01*
X6632702Y2099259D01*
X6640677Y2112467D01*
X6647027Y2126488D01*
X6651599Y2141169D01*
X6654342Y2156307D01*
X6655308Y2171700D01*
X6654342Y2187092D01*
X6651599Y2202230D01*
X6647027Y2216912D01*
X6640677Y2230932D01*
X6632702Y2244140D01*
X6623202Y2256231D01*
X6612331Y2267102D01*
X6600240Y2276602D01*
X6587032Y2284577D01*
X6573012Y2290927D01*
X6558330Y2295499D01*
X6543192Y2298242D01*
X6527800Y2299208D01*
X6512407Y2298242D01*
X6497269Y2295499D01*
X6482588Y2290927D01*
X6468567Y2284577D01*
X6455359Y2276602D01*
X6443268Y2267102D01*
X6432397Y2256231D01*
X6422898Y2244140D01*
X6414922Y2230932D01*
X6408572Y2216912D01*
X6404000Y2202230D01*
X6401257Y2187092D01*
X6400292Y2171700D01*
X6401257Y2156307D01*
X6404000Y2141169D01*
X6408572Y2126488D01*
X6414922Y2112467D01*
X6422898Y2099259D01*
X6432397Y2087168D01*
X6443268Y2076297D01*
X6455359Y2066798D01*
X6468567Y2058822D01*
X6482588Y2052472D01*
X6497269Y2047900D01*
X6512407Y2045157D01*
G37*
G36*
X4368800Y2044192D02*
G01*
X4384192Y2045157D01*
X4399330Y2047900D01*
X4414012Y2052472D01*
X4428032Y2058822D01*
X4441240Y2066798D01*
X4453331Y2076297D01*
X4464202Y2087168D01*
X4473702Y2099259D01*
X4481677Y2112467D01*
X4488027Y2126488D01*
X4492599Y2141169D01*
X4495342Y2156307D01*
X4496308Y2171700D01*
X4495342Y2187092D01*
X4492599Y2202230D01*
X4488027Y2216912D01*
X4481677Y2230932D01*
X4473702Y2244140D01*
X4464202Y2256231D01*
X4453331Y2267102D01*
X4441240Y2276602D01*
X4428032Y2284577D01*
X4414012Y2290927D01*
X4399330Y2295499D01*
X4384192Y2298242D01*
X4368800Y2299208D01*
X4353407Y2298242D01*
X4338269Y2295499D01*
X4323588Y2290927D01*
X4309567Y2284577D01*
X4296359Y2276602D01*
X4284268Y2267102D01*
X4273397Y2256231D01*
X4263898Y2244140D01*
X4255922Y2230932D01*
X4249572Y2216912D01*
X4245000Y2202230D01*
X4242257Y2187092D01*
X4241292Y2171700D01*
X4242257Y2156307D01*
X4245000Y2141169D01*
X4249572Y2126488D01*
X4255922Y2112467D01*
X4263898Y2099259D01*
X4273397Y2087168D01*
X4284268Y2076297D01*
X4296359Y2066798D01*
X4309567Y2058822D01*
X4323588Y2052472D01*
X4338269Y2047900D01*
X4353407Y2045157D01*
G37*
G36*
X3425596Y3707942D02*
G01*
X3439210Y3708400D01*
X3452672Y3710686D01*
X3465677Y3714750D01*
X3478072Y3720490D01*
X3489553Y3727805D01*
X3499967Y3736594D01*
X3509111Y3746703D01*
X3516833Y3757980D01*
X3522979Y3770122D01*
X3527450Y3783025D01*
X3530193Y3796385D01*
X3531057Y3810000D01*
X3530193Y3823614D01*
X3527450Y3836974D01*
X3522979Y3849827D01*
X3516833Y3862019D01*
X3509111Y3873246D01*
X3499967Y3883355D01*
X3489553Y3892194D01*
X3478072Y3899509D01*
X3465677Y3905250D01*
X3452672Y3909314D01*
X3439210Y3911549D01*
X3425596Y3912006D01*
X3412032Y3910634D01*
X3398774Y3907485D01*
X3386023Y3902608D01*
X3374085Y3896055D01*
X3363061Y3887927D01*
X3353308Y3878478D01*
X3344824Y3867759D01*
X3337864Y3856024D01*
X3332581Y3843477D01*
X3328974Y3830320D01*
X3327146Y3816807D01*
X3327146Y3803192D01*
X3328974Y3789679D01*
X3332581Y3776522D01*
X3337864Y3763975D01*
X3344824Y3752240D01*
X3353308Y3741521D01*
X3363061Y3732022D01*
X3374085Y3723944D01*
X3386023Y3717391D01*
X3398774Y3712514D01*
X3412032Y3709314D01*
G37*
G36*
X1139596Y3707942D02*
G01*
X1153210Y3708400D01*
X1166672Y3710686D01*
X1179677Y3714750D01*
X1192072Y3720490D01*
X1203553Y3727805D01*
X1213967Y3736594D01*
X1223111Y3746703D01*
X1230833Y3757980D01*
X1236980Y3770122D01*
X1241450Y3783025D01*
X1244193Y3796385D01*
X1245057Y3810000D01*
X1244193Y3823614D01*
X1241450Y3836974D01*
X1236980Y3849827D01*
X1230833Y3862019D01*
X1223111Y3873246D01*
X1213967Y3883355D01*
X1203553Y3892194D01*
X1192072Y3899509D01*
X1179677Y3905250D01*
X1166672Y3909314D01*
X1153210Y3911549D01*
X1139596Y3912006D01*
X1126032Y3910634D01*
X1112774Y3907485D01*
X1100023Y3902608D01*
X1088085Y3896055D01*
X1077061Y3887927D01*
X1067308Y3878478D01*
X1058824Y3867759D01*
X1051864Y3856024D01*
X1046581Y3843477D01*
X1042974Y3830320D01*
X1041146Y3816807D01*
X1041146Y3803192D01*
X1042974Y3789679D01*
X1046581Y3776522D01*
X1051864Y3763975D01*
X1058824Y3752240D01*
X1067308Y3741521D01*
X1077061Y3732022D01*
X1088085Y3723944D01*
X1100023Y3717391D01*
X1112774Y3712514D01*
X1126032Y3709314D01*
G37*
G36*
X7937500Y3644392D02*
G01*
X7951114Y3645306D01*
X7964474Y3648049D01*
X7977327Y3652520D01*
X7989519Y3658666D01*
X8000746Y3666388D01*
X8010855Y3675532D01*
X8019694Y3685946D01*
X8027009Y3697427D01*
X8032750Y3709822D01*
X8036814Y3722827D01*
X8039049Y3736289D01*
X8039506Y3749903D01*
X8038134Y3763467D01*
X8034985Y3776726D01*
X8030108Y3789476D01*
X8023555Y3801414D01*
X8015427Y3812387D01*
X8005978Y3822192D01*
X7995259Y3830675D01*
X7983524Y3837584D01*
X7970977Y3842918D01*
X7957820Y3846525D01*
X7944307Y3848354D01*
X7930642Y3848354D01*
X7917129Y3846525D01*
X7904022Y3842918D01*
X7891424Y3837584D01*
X7879689Y3830675D01*
X7869021Y3822192D01*
X7859522Y3812387D01*
X7851444Y3801414D01*
X7844891Y3789476D01*
X7839964Y3776726D01*
X7836814Y3763467D01*
X7835442Y3749903D01*
X7835900Y3736289D01*
X7838186Y3722827D01*
X7842199Y3709822D01*
X7847939Y3697427D01*
X7855305Y3685946D01*
X7864094Y3675532D01*
X7874203Y3666388D01*
X7885480Y3658666D01*
X7897622Y3652520D01*
X7910525Y3648049D01*
X7923885Y3645306D01*
G37*
G36*
X6527800Y3568192D02*
G01*
X6543192Y3569157D01*
X6558330Y3571900D01*
X6573012Y3576472D01*
X6587032Y3582822D01*
X6600240Y3590798D01*
X6612331Y3600297D01*
X6623202Y3611168D01*
X6632702Y3623259D01*
X6640677Y3636467D01*
X6647027Y3650487D01*
X6651599Y3665169D01*
X6654342Y3680307D01*
X6655308Y3695700D01*
X6654342Y3711092D01*
X6651599Y3726230D01*
X6647027Y3740912D01*
X6640677Y3754932D01*
X6632702Y3768140D01*
X6623202Y3780231D01*
X6612331Y3791102D01*
X6600240Y3800601D01*
X6587032Y3808577D01*
X6573012Y3814927D01*
X6558330Y3819499D01*
X6543192Y3822242D01*
X6527800Y3823208D01*
X6512407Y3822242D01*
X6497269Y3819499D01*
X6482588Y3814927D01*
X6468567Y3808577D01*
X6455359Y3800601D01*
X6443268Y3791102D01*
X6432397Y3780231D01*
X6422898Y3768140D01*
X6414922Y3754932D01*
X6408572Y3740912D01*
X6404000Y3726230D01*
X6401257Y3711092D01*
X6400292Y3695700D01*
X6401257Y3680307D01*
X6404000Y3665169D01*
X6408572Y3650487D01*
X6414922Y3636467D01*
X6422898Y3623259D01*
X6432397Y3611168D01*
X6443268Y3600297D01*
X6455359Y3590798D01*
X6468567Y3582822D01*
X6482588Y3576472D01*
X6497269Y3571900D01*
X6512407Y3569157D01*
G37*
G36*
X8163306Y2076450D02*
G01*
X8210550Y2076450D01*
X8210550Y2123643D01*
X8202980Y2119833D01*
X8191703Y2112111D01*
X8181594Y2102967D01*
X8172805Y2092553D01*
X8165439Y2081072D01*
G37*
G36*
X8417306Y2076450D02*
G01*
X8464550Y2076450D01*
X8464550Y2123643D01*
X8456980Y2119833D01*
X8445703Y2112111D01*
X8435594Y2102967D01*
X8426805Y2092553D01*
X8419439Y2081072D01*
G37*
G36*
X8299450Y2076450D02*
G01*
X8346643Y2076450D01*
X8344509Y2081072D01*
X8337194Y2092553D01*
X8328355Y2102967D01*
X8318246Y2112111D01*
X8307019Y2119833D01*
X8299450Y2123643D01*
G37*
G36*
X8553450Y2076450D02*
G01*
X8600643Y2076450D01*
X8598509Y2081072D01*
X8591194Y2092553D01*
X8582355Y2102967D01*
X8572246Y2112111D01*
X8561019Y2119833D01*
X8553450Y2123643D01*
G37*
G36*
X387299Y55168D02*
G01*
X412546Y56641D01*
X437591Y60045D01*
X462280Y65379D01*
X486511Y72644D01*
X510082Y81737D01*
X532892Y92659D01*
X554786Y105308D01*
X575614Y119583D01*
X595274Y135432D01*
X613664Y152806D01*
X630631Y171500D01*
X646125Y191516D01*
X660044Y212598D01*
X672236Y234746D01*
X682701Y257759D01*
X691337Y281482D01*
X698093Y305866D01*
X702970Y330657D01*
X705916Y355752D01*
X706882Y381000D01*
X705916Y406247D01*
X702970Y431342D01*
X698093Y456133D01*
X691337Y480517D01*
X682701Y504240D01*
X672236Y527253D01*
X660044Y549402D01*
X646125Y570484D01*
X630631Y590499D01*
X613664Y609193D01*
X595274Y626567D01*
X575614Y642416D01*
X554786Y656691D01*
X532892Y669340D01*
X510082Y680262D01*
X486511Y689356D01*
X462280Y696620D01*
X437591Y701954D01*
X412546Y705358D01*
X387299Y706831D01*
X362051Y706323D01*
X336905Y703884D01*
X312013Y699516D01*
X287528Y693216D01*
X263601Y685038D01*
X240436Y675030D01*
X218033Y663244D01*
X196646Y649782D01*
X176377Y634644D01*
X157378Y618032D01*
X139649Y599998D01*
X123393Y580644D01*
X108712Y560070D01*
X95656Y538429D01*
X84328Y515874D01*
X74777Y492455D01*
X67056Y468376D01*
X61214Y443788D01*
X57302Y418846D01*
X55321Y393649D01*
X55321Y368350D01*
X57302Y343154D01*
X61214Y318211D01*
X67056Y293624D01*
X74777Y269544D01*
X84328Y246125D01*
X95656Y223570D01*
X108712Y201930D01*
X123393Y181356D01*
X139649Y162001D01*
X157378Y143967D01*
X176377Y127355D01*
X196646Y112217D01*
X218033Y98755D01*
X240436Y86969D01*
X263601Y76962D01*
X287528Y68783D01*
X312013Y62484D01*
X336905Y58115D01*
X362051Y55676D01*
G37*
G36*
X4867910Y2099310D02*
G01*
X4922824Y2099310D01*
X4915306Y2112314D01*
X4906264Y2124354D01*
X4895748Y2135174D01*
X4884013Y2144623D01*
X4871212Y2152548D01*
X4867910Y2154072D01*
G37*
G36*
X4368800Y3568192D02*
G01*
X4384192Y3569157D01*
X4399330Y3571900D01*
X4414012Y3576472D01*
X4428032Y3582822D01*
X4441240Y3590798D01*
X4453331Y3600297D01*
X4464202Y3611168D01*
X4473702Y3623259D01*
X4481677Y3636467D01*
X4488027Y3650487D01*
X4492599Y3665169D01*
X4495342Y3680307D01*
X4496308Y3695700D01*
X4495342Y3711092D01*
X4492599Y3726230D01*
X4488027Y3740912D01*
X4481677Y3754932D01*
X4473702Y3768140D01*
X4464202Y3780231D01*
X4453331Y3791102D01*
X4441240Y3800601D01*
X4428032Y3808577D01*
X4414012Y3814927D01*
X4399330Y3819499D01*
X4384192Y3822242D01*
X4368800Y3823208D01*
X4353407Y3822242D01*
X4338269Y3819499D01*
X4323588Y3814927D01*
X4309567Y3808577D01*
X4296359Y3800601D01*
X4284268Y3791102D01*
X4273397Y3780231D01*
X4263898Y3768140D01*
X4255922Y3754932D01*
X4249572Y3740912D01*
X4245000Y3726230D01*
X4242257Y3711092D01*
X4241292Y3695700D01*
X4242257Y3680307D01*
X4245000Y3665169D01*
X4249572Y3650487D01*
X4255922Y3636467D01*
X4263898Y3623259D01*
X4273397Y3611168D01*
X4284268Y3600297D01*
X4296359Y3590798D01*
X4309567Y3582822D01*
X4323588Y3576472D01*
X4338269Y3571900D01*
X4353407Y3569157D01*
G37*
G36*
X3425596Y3453942D02*
G01*
X3439210Y3454400D01*
X3452672Y3456686D01*
X3465677Y3460750D01*
X3478072Y3466490D01*
X3489553Y3473805D01*
X3499967Y3482594D01*
X3509111Y3492703D01*
X3516833Y3503980D01*
X3522979Y3516122D01*
X3527450Y3529025D01*
X3530193Y3542385D01*
X3531057Y3556000D01*
X3530193Y3569614D01*
X3527450Y3582974D01*
X3522979Y3595827D01*
X3516833Y3608019D01*
X3509111Y3619246D01*
X3499967Y3629355D01*
X3489553Y3638194D01*
X3478072Y3645509D01*
X3465677Y3651250D01*
X3452672Y3655314D01*
X3439210Y3657549D01*
X3425596Y3658006D01*
X3412032Y3656634D01*
X3398774Y3653485D01*
X3386023Y3648608D01*
X3374085Y3642055D01*
X3363061Y3633927D01*
X3353308Y3624478D01*
X3344824Y3613759D01*
X3337864Y3602024D01*
X3332581Y3589477D01*
X3328974Y3576320D01*
X3327146Y3562807D01*
X3327146Y3549192D01*
X3328974Y3535679D01*
X3332581Y3522522D01*
X3337864Y3509975D01*
X3344824Y3498240D01*
X3353308Y3487521D01*
X3363061Y3478022D01*
X3374085Y3469944D01*
X3386023Y3463391D01*
X3398774Y3458514D01*
X3412032Y3455314D01*
G37*
G36*
X1139596Y2183942D02*
G01*
X1153210Y2184400D01*
X1166672Y2186686D01*
X1179677Y2190750D01*
X1192072Y2196490D01*
X1203553Y2203805D01*
X1213967Y2212594D01*
X1223111Y2222703D01*
X1230833Y2233980D01*
X1236980Y2246122D01*
X1241450Y2259025D01*
X1244193Y2272385D01*
X1245057Y2286000D01*
X1244193Y2299614D01*
X1241450Y2312974D01*
X1236980Y2325827D01*
X1230833Y2338019D01*
X1223111Y2349246D01*
X1213967Y2359355D01*
X1203553Y2368194D01*
X1192072Y2375509D01*
X1179677Y2381250D01*
X1166672Y2385314D01*
X1153210Y2387549D01*
X1139596Y2388006D01*
X1126032Y2386634D01*
X1112774Y2383485D01*
X1100023Y2378608D01*
X1088085Y2372055D01*
X1077061Y2363927D01*
X1067308Y2354478D01*
X1058824Y2343759D01*
X1051864Y2332024D01*
X1046581Y2319477D01*
X1042974Y2306320D01*
X1041146Y2292807D01*
X1041146Y2279192D01*
X1042974Y2265680D01*
X1046581Y2252522D01*
X1051864Y2239975D01*
X1058824Y2228240D01*
X1067308Y2217521D01*
X1077061Y2208022D01*
X1088085Y2199944D01*
X1100023Y2193391D01*
X1112774Y2188514D01*
X1126032Y2185314D01*
G37*
G36*
X3425596Y2183942D02*
G01*
X3439210Y2184400D01*
X3452672Y2186686D01*
X3465677Y2190750D01*
X3478072Y2196490D01*
X3489553Y2203805D01*
X3499967Y2212594D01*
X3509111Y2222703D01*
X3516833Y2233980D01*
X3522979Y2246122D01*
X3527450Y2259025D01*
X3530193Y2272385D01*
X3531057Y2286000D01*
X3530193Y2299614D01*
X3527450Y2312974D01*
X3522979Y2325827D01*
X3516833Y2338019D01*
X3509111Y2349246D01*
X3499967Y2359355D01*
X3489553Y2368194D01*
X3478072Y2375509D01*
X3465677Y2381250D01*
X3452672Y2385314D01*
X3439210Y2387549D01*
X3425596Y2388006D01*
X3412032Y2386634D01*
X3398774Y2383485D01*
X3386023Y2378608D01*
X3374085Y2372055D01*
X3363061Y2363927D01*
X3353308Y2354478D01*
X3344824Y2343759D01*
X3337864Y2332024D01*
X3332581Y2319477D01*
X3328974Y2306320D01*
X3327146Y2292807D01*
X3327146Y2279192D01*
X3328974Y2265680D01*
X3332581Y2252522D01*
X3337864Y2239975D01*
X3344824Y2228240D01*
X3353308Y2217521D01*
X3363061Y2208022D01*
X3374085Y2199944D01*
X3386023Y2193391D01*
X3398774Y2188514D01*
X3412032Y2185314D01*
G37*
G36*
X1139596Y3453942D02*
G01*
X1153210Y3454400D01*
X1166672Y3456686D01*
X1179677Y3460750D01*
X1192072Y3466490D01*
X1203553Y3473805D01*
X1213967Y3482594D01*
X1223111Y3492703D01*
X1230833Y3503980D01*
X1236980Y3516122D01*
X1241450Y3529025D01*
X1244193Y3542385D01*
X1245057Y3556000D01*
X1244193Y3569614D01*
X1241450Y3582974D01*
X1236980Y3595827D01*
X1230833Y3608019D01*
X1223111Y3619246D01*
X1213967Y3629355D01*
X1203553Y3638194D01*
X1192072Y3645509D01*
X1179677Y3651250D01*
X1166672Y3655314D01*
X1153210Y3657549D01*
X1139596Y3658006D01*
X1126032Y3656634D01*
X1112774Y3653485D01*
X1100023Y3648608D01*
X1088085Y3642055D01*
X1077061Y3633927D01*
X1067308Y3624478D01*
X1058824Y3613759D01*
X1051864Y3602024D01*
X1046581Y3589477D01*
X1042974Y3576320D01*
X1041146Y3562807D01*
X1041146Y3549192D01*
X1042974Y3535679D01*
X1046581Y3522522D01*
X1051864Y3509975D01*
X1058824Y3498240D01*
X1067308Y3487521D01*
X1077061Y3478022D01*
X1088085Y3469944D01*
X1100023Y3463391D01*
X1112774Y3458514D01*
X1126032Y3455314D01*
G37*
G36*
X4176318Y2435352D02*
G01*
X4332681Y2435352D01*
X4338980Y2436063D01*
X4344466Y2437993D01*
X4349343Y2441041D01*
X4353458Y2445156D01*
X4356506Y2450033D01*
X4358436Y2455519D01*
X4359148Y2461818D01*
X4359148Y2618181D01*
X4358436Y2624480D01*
X4356506Y2629966D01*
X4353458Y2634843D01*
X4349343Y2638958D01*
X4344466Y2642006D01*
X4338980Y2643936D01*
X4332681Y2644648D01*
X4176318Y2644648D01*
X4170019Y2643936D01*
X4164533Y2642006D01*
X4159656Y2638958D01*
X4155541Y2634843D01*
X4152442Y2629966D01*
X4150563Y2624480D01*
X4149851Y2618181D01*
X4149851Y2461818D01*
X4150563Y2455519D01*
X4152442Y2450033D01*
X4155541Y2445156D01*
X4159656Y2441041D01*
X4164533Y2437993D01*
X4170019Y2436063D01*
G37*
G36*
X6589318Y2435352D02*
G01*
X6745681Y2435352D01*
X6751929Y2436063D01*
X6758736Y2438501D01*
X6762140Y2439111D01*
X7238644Y2439111D01*
X7252157Y2439974D01*
X7265111Y2442565D01*
X7277608Y2446782D01*
X7289444Y2452624D01*
X7300417Y2459939D01*
X7310577Y2468880D01*
X7818120Y2976422D01*
X7827060Y2986582D01*
X7834375Y2997555D01*
X7840218Y3009392D01*
X7844434Y3021888D01*
X7847025Y3034842D01*
X7847888Y3048355D01*
X7847888Y3287064D01*
X7849006Y3298596D01*
X7848549Y3312210D01*
X7846314Y3325672D01*
X7842250Y3338677D01*
X7836509Y3351072D01*
X7829194Y3362553D01*
X7820355Y3372967D01*
X7810246Y3382111D01*
X7799019Y3389833D01*
X7786827Y3395979D01*
X7773974Y3400450D01*
X7760614Y3403193D01*
X7747000Y3404057D01*
X7733385Y3403193D01*
X7720025Y3400450D01*
X7707122Y3395979D01*
X7694980Y3389833D01*
X7683703Y3382111D01*
X7673594Y3372967D01*
X7664805Y3362553D01*
X7657439Y3351072D01*
X7651699Y3338677D01*
X7647686Y3325672D01*
X7645400Y3312210D01*
X7644942Y3298596D01*
X7646111Y3286760D01*
X7646111Y3094024D01*
X7645298Y3090113D01*
X7643114Y3086811D01*
X7200188Y2643886D01*
X7196886Y2641701D01*
X7192975Y2640888D01*
X6762140Y2640888D01*
X6758686Y2641498D01*
X6751929Y2643936D01*
X6745681Y2644648D01*
X6589318Y2644648D01*
X6583019Y2643936D01*
X6577533Y2642006D01*
X6572656Y2638958D01*
X6568541Y2634843D01*
X6565442Y2629966D01*
X6563563Y2624480D01*
X6562852Y2618181D01*
X6562852Y2461818D01*
X6563563Y2455519D01*
X6565442Y2450033D01*
X6568541Y2445156D01*
X6572656Y2441041D01*
X6577533Y2437993D01*
X6583019Y2436063D01*
G37*
G36*
X1139596Y2437942D02*
G01*
X1153210Y2438400D01*
X1166672Y2440686D01*
X1179677Y2444750D01*
X1192072Y2450490D01*
X1203553Y2457805D01*
X1213967Y2466594D01*
X1223111Y2476703D01*
X1230833Y2487980D01*
X1236980Y2500122D01*
X1241450Y2513025D01*
X1244193Y2526385D01*
X1245057Y2540000D01*
X1244193Y2553614D01*
X1241450Y2566974D01*
X1236980Y2579827D01*
X1230833Y2592019D01*
X1223111Y2603246D01*
X1213967Y2613355D01*
X1203553Y2622194D01*
X1192072Y2629509D01*
X1179677Y2635250D01*
X1166672Y2639314D01*
X1153210Y2641549D01*
X1139596Y2642006D01*
X1126032Y2640634D01*
X1112774Y2637485D01*
X1100023Y2632608D01*
X1088085Y2626055D01*
X1077061Y2617927D01*
X1067308Y2608478D01*
X1058824Y2597759D01*
X1051864Y2586024D01*
X1046581Y2573477D01*
X1042974Y2560320D01*
X1041146Y2546807D01*
X1041146Y2533192D01*
X1042974Y2519680D01*
X1046581Y2506522D01*
X1051864Y2493975D01*
X1058824Y2482240D01*
X1067308Y2471521D01*
X1077061Y2462022D01*
X1088085Y2453944D01*
X1100023Y2447391D01*
X1112774Y2442514D01*
X1126032Y2439314D01*
G37*
G36*
X3425596Y2437942D02*
G01*
X3439210Y2438400D01*
X3452672Y2440686D01*
X3465677Y2444750D01*
X3478072Y2450490D01*
X3489553Y2457805D01*
X3499967Y2466594D01*
X3509111Y2476703D01*
X3516833Y2487980D01*
X3522979Y2500122D01*
X3527450Y2513025D01*
X3530193Y2526385D01*
X3531057Y2540000D01*
X3530193Y2553614D01*
X3527450Y2566974D01*
X3522979Y2579827D01*
X3516833Y2592019D01*
X3509111Y2603246D01*
X3499967Y2613355D01*
X3489553Y2622194D01*
X3478072Y2629509D01*
X3465677Y2635250D01*
X3452672Y2639314D01*
X3439210Y2641549D01*
X3425596Y2642006D01*
X3412032Y2640634D01*
X3398774Y2637485D01*
X3386023Y2632608D01*
X3374085Y2626055D01*
X3363061Y2617927D01*
X3353308Y2608478D01*
X3344824Y2597759D01*
X3337864Y2586024D01*
X3332581Y2573477D01*
X3328974Y2560320D01*
X3327146Y2546807D01*
X3327146Y2533192D01*
X3328974Y2519680D01*
X3332581Y2506522D01*
X3337864Y2493975D01*
X3344824Y2482240D01*
X3353308Y2471521D01*
X3363061Y2462022D01*
X3374085Y2453944D01*
X3386023Y2447391D01*
X3398774Y2442514D01*
X3412032Y2439314D01*
G37*
G36*
X9010142Y3200146D02*
G01*
X9023807Y3200146D01*
X9037320Y3201974D01*
X9050477Y3205581D01*
X9063024Y3210864D01*
X9074759Y3217824D01*
X9085478Y3226308D01*
X9094927Y3236061D01*
X9103055Y3247085D01*
X9109608Y3259023D01*
X9114485Y3271774D01*
X9117634Y3285032D01*
X9119006Y3298596D01*
X9118549Y3312210D01*
X9116314Y3325672D01*
X9112250Y3338677D01*
X9106509Y3351072D01*
X9099194Y3362553D01*
X9090355Y3372967D01*
X9080246Y3382111D01*
X9069019Y3389833D01*
X9056827Y3395979D01*
X9043974Y3400450D01*
X9030614Y3403193D01*
X9017000Y3404057D01*
X9003385Y3403193D01*
X8990025Y3400450D01*
X8977122Y3395979D01*
X8964980Y3389833D01*
X8953703Y3382111D01*
X8943594Y3372967D01*
X8934805Y3362553D01*
X8927439Y3351072D01*
X8921699Y3338677D01*
X8917686Y3325672D01*
X8915400Y3312210D01*
X8914942Y3298596D01*
X8916314Y3285032D01*
X8919464Y3271774D01*
X8924391Y3259023D01*
X8930944Y3247085D01*
X8939022Y3236061D01*
X8948521Y3226308D01*
X8959189Y3217824D01*
X8970924Y3210864D01*
X8983522Y3205581D01*
X8996629Y3201974D01*
G37*
G36*
X6667500Y2689352D02*
G01*
X6681165Y2690266D01*
X6694576Y2692958D01*
X6707530Y2697327D01*
X6719824Y2703372D01*
X6731203Y2710992D01*
X6741464Y2720035D01*
X6750507Y2730296D01*
X6758076Y2741676D01*
X6764172Y2753969D01*
X6768541Y2766923D01*
X6771233Y2780334D01*
X6772097Y2794000D01*
X6771233Y2807665D01*
X6768541Y2821076D01*
X6764172Y2834030D01*
X6758076Y2846324D01*
X6750507Y2857703D01*
X6741464Y2867964D01*
X6731203Y2877007D01*
X6719824Y2884627D01*
X6707530Y2890672D01*
X6694576Y2895041D01*
X6681165Y2897733D01*
X6667500Y2898597D01*
X6653834Y2897733D01*
X6640423Y2895041D01*
X6627469Y2890672D01*
X6615175Y2884627D01*
X6603796Y2877007D01*
X6593484Y2867964D01*
X6584492Y2857703D01*
X6576872Y2846324D01*
X6570827Y2834030D01*
X6566408Y2821076D01*
X6563766Y2807665D01*
X6562852Y2794000D01*
X6563766Y2780334D01*
X6566408Y2766923D01*
X6570827Y2753969D01*
X6576872Y2741676D01*
X6584492Y2730296D01*
X6593484Y2720035D01*
X6603796Y2710992D01*
X6615175Y2703372D01*
X6627469Y2697327D01*
X6640423Y2692958D01*
X6653834Y2690266D01*
G37*
G36*
X4254500Y2689352D02*
G01*
X4268165Y2690266D01*
X4281373Y2692908D01*
X4283354Y2693111D01*
X5143144Y2693111D01*
X5156657Y2693974D01*
X5169611Y2696565D01*
X5182108Y2700782D01*
X5193944Y2706624D01*
X5204917Y2713939D01*
X5215077Y2722880D01*
X6167120Y3674922D01*
X6176010Y3685082D01*
X6183376Y3696055D01*
X6189218Y3707892D01*
X6193434Y3720388D01*
X6196025Y3733342D01*
X6196888Y3746804D01*
X6196888Y3936644D01*
X6196025Y3950157D01*
X6193434Y3963111D01*
X6189218Y3975608D01*
X6183376Y3987444D01*
X6176010Y3998417D01*
X6167120Y4008577D01*
X6040577Y4135120D01*
X6030417Y4144010D01*
X6019444Y4151376D01*
X6007608Y4157218D01*
X5995111Y4161434D01*
X5981598Y4164126D01*
X5977534Y4165904D01*
X5974638Y4169308D01*
X5973419Y4173575D01*
X5974181Y4177995D01*
X5976772Y4181601D01*
X5978906Y4183532D01*
X5987694Y4193946D01*
X5995009Y4205427D01*
X6000750Y4217822D01*
X6004814Y4230827D01*
X6007049Y4244289D01*
X6007506Y4257903D01*
X6006185Y4271467D01*
X6002985Y4284726D01*
X5998108Y4297476D01*
X5991555Y4309414D01*
X5983478Y4320387D01*
X5973978Y4330192D01*
X5963259Y4338675D01*
X5951524Y4345635D01*
X5938977Y4350918D01*
X5925820Y4354525D01*
X5912307Y4356354D01*
X5898692Y4356354D01*
X5885180Y4354525D01*
X5872022Y4350918D01*
X5859475Y4345635D01*
X5847740Y4338675D01*
X5837021Y4330192D01*
X5827522Y4320387D01*
X5819444Y4309414D01*
X5812891Y4297476D01*
X5808014Y4284726D01*
X5804814Y4271467D01*
X5804458Y4267708D01*
X5803392Y4264050D01*
X5801055Y4261053D01*
X5797753Y4259122D01*
X5793994Y4258564D01*
X5790285Y4259376D01*
X5787186Y4261510D01*
X5733338Y4315358D01*
X5729478Y4320387D01*
X5719978Y4330192D01*
X5709259Y4338675D01*
X5697524Y4345635D01*
X5684977Y4350918D01*
X5671820Y4354525D01*
X5658307Y4356354D01*
X5644692Y4356354D01*
X5631180Y4354525D01*
X5618022Y4350918D01*
X5605475Y4345635D01*
X5593740Y4338675D01*
X5583021Y4330192D01*
X5573522Y4320387D01*
X5565444Y4309414D01*
X5558891Y4297476D01*
X5554014Y4284726D01*
X5550814Y4271467D01*
X5549493Y4257903D01*
X5549950Y4244289D01*
X5552186Y4230827D01*
X5556250Y4217822D01*
X5561990Y4205427D01*
X5569305Y4193946D01*
X5578094Y4183532D01*
X5588254Y4174388D01*
X5590946Y4172305D01*
X5770422Y3992879D01*
X5780582Y3983939D01*
X5791555Y3976624D01*
X5803392Y3970782D01*
X5815888Y3966565D01*
X5824474Y3964838D01*
X5828334Y3963212D01*
X5831179Y3960164D01*
X5832551Y3956253D01*
X5832297Y3952138D01*
X5830366Y3948429D01*
X5827166Y3945839D01*
X5823153Y3944721D01*
X5814263Y3944162D01*
X5799429Y3941419D01*
X5785053Y3936847D01*
X5771388Y3930548D01*
X5758586Y3922623D01*
X5746800Y3913174D01*
X5736336Y3902354D01*
X5727242Y3890314D01*
X5719724Y3877259D01*
X5713831Y3863390D01*
X5712053Y3857142D01*
X5710021Y3853281D01*
X5706516Y3850690D01*
X5702300Y3849725D01*
X5698032Y3850690D01*
X5694578Y3853281D01*
X5692495Y3857142D01*
X5690717Y3863390D01*
X5684875Y3877259D01*
X5677306Y3890314D01*
X5668264Y3902354D01*
X5657748Y3913174D01*
X5646013Y3922623D01*
X5633212Y3930548D01*
X5619496Y3936847D01*
X5605170Y3941419D01*
X5590336Y3944162D01*
X5575300Y3945128D01*
X5560263Y3944162D01*
X5545429Y3941419D01*
X5531053Y3936847D01*
X5517388Y3930548D01*
X5504586Y3922623D01*
X5492800Y3913174D01*
X5482336Y3902354D01*
X5473242Y3890314D01*
X5465724Y3877259D01*
X5459831Y3863390D01*
X5458053Y3857142D01*
X5456021Y3853281D01*
X5452516Y3850690D01*
X5448300Y3849725D01*
X5444032Y3850690D01*
X5440578Y3853281D01*
X5438495Y3857142D01*
X5436717Y3863390D01*
X5430875Y3877259D01*
X5423306Y3890314D01*
X5414264Y3902354D01*
X5403748Y3913174D01*
X5392013Y3922623D01*
X5379212Y3930548D01*
X5365496Y3936847D01*
X5351170Y3941419D01*
X5336336Y3944162D01*
X5321300Y3945128D01*
X5306263Y3944162D01*
X5291429Y3941419D01*
X5277053Y3936847D01*
X5263388Y3930548D01*
X5250586Y3922623D01*
X5238800Y3913174D01*
X5228336Y3902354D01*
X5219242Y3890314D01*
X5211724Y3877259D01*
X5205831Y3863390D01*
X5204053Y3857142D01*
X5202021Y3853281D01*
X5198516Y3850690D01*
X5194300Y3849725D01*
X5190032Y3850690D01*
X5186578Y3853281D01*
X5184495Y3857142D01*
X5182717Y3863390D01*
X5176875Y3877259D01*
X5169306Y3890314D01*
X5160264Y3902354D01*
X5149748Y3913174D01*
X5138013Y3922623D01*
X5125212Y3930548D01*
X5111496Y3936847D01*
X5097170Y3941419D01*
X5088940Y3942943D01*
X5085029Y3944569D01*
X5082133Y3947668D01*
X5080711Y3951732D01*
X5081117Y3955948D01*
X5083200Y3959656D01*
X5086654Y3962196D01*
X5090820Y3963060D01*
X5206644Y3963060D01*
X5220157Y3963974D01*
X5233111Y3966565D01*
X5245608Y3970782D01*
X5257444Y3976624D01*
X5268417Y3983939D01*
X5278577Y3992879D01*
X5457901Y4172204D01*
X5460746Y4174388D01*
X5470906Y4183532D01*
X5479694Y4193946D01*
X5487009Y4205427D01*
X5492750Y4217822D01*
X5496814Y4230827D01*
X5499049Y4244289D01*
X5499506Y4257903D01*
X5498185Y4271467D01*
X5494985Y4284726D01*
X5490108Y4297476D01*
X5483555Y4309414D01*
X5475478Y4320387D01*
X5465978Y4330192D01*
X5455259Y4338675D01*
X5443524Y4345635D01*
X5430977Y4350918D01*
X5417820Y4354525D01*
X5404307Y4356354D01*
X5390692Y4356354D01*
X5377180Y4354525D01*
X5364022Y4350918D01*
X5351475Y4345635D01*
X5339740Y4338675D01*
X5329021Y4330192D01*
X5319522Y4320387D01*
X5315762Y4315460D01*
X5261813Y4261561D01*
X5258714Y4259427D01*
X5255006Y4258564D01*
X5251246Y4259173D01*
X5247944Y4261104D01*
X5245608Y4264050D01*
X5244541Y4267708D01*
X5244185Y4271467D01*
X5240985Y4284726D01*
X5236108Y4297476D01*
X5229555Y4309414D01*
X5221478Y4320387D01*
X5211978Y4330192D01*
X5201259Y4338675D01*
X5189524Y4345635D01*
X5176977Y4350918D01*
X5163820Y4354525D01*
X5150307Y4356354D01*
X5136692Y4356354D01*
X5123180Y4354525D01*
X5110022Y4350918D01*
X5097475Y4345635D01*
X5085740Y4338675D01*
X5075021Y4330192D01*
X5065522Y4320387D01*
X5057444Y4309414D01*
X5050891Y4297476D01*
X5046014Y4284726D01*
X5042814Y4271467D01*
X5041493Y4257903D01*
X5041950Y4244289D01*
X5044186Y4230827D01*
X5048250Y4217822D01*
X5053990Y4205427D01*
X5061305Y4193946D01*
X5073548Y4179315D01*
X5074513Y4175404D01*
X5073802Y4171391D01*
X5071618Y4167987D01*
X5068316Y4165701D01*
X5064353Y4164888D01*
X4968646Y4164888D01*
X4964684Y4165701D01*
X4961382Y4167987D01*
X4959197Y4171391D01*
X4958486Y4175404D01*
X4959451Y4179315D01*
X4971694Y4193946D01*
X4979009Y4205427D01*
X4984750Y4217822D01*
X4988814Y4230827D01*
X4991049Y4244289D01*
X4991506Y4257903D01*
X4990185Y4271467D01*
X4986985Y4284726D01*
X4982108Y4297476D01*
X4975555Y4309414D01*
X4967478Y4320387D01*
X4957978Y4330192D01*
X4947259Y4338675D01*
X4935524Y4345635D01*
X4922977Y4350918D01*
X4909820Y4354525D01*
X4896307Y4356354D01*
X4882692Y4356354D01*
X4869180Y4354525D01*
X4856022Y4350918D01*
X4843475Y4345635D01*
X4831740Y4338675D01*
X4821021Y4330192D01*
X4811522Y4320387D01*
X4803444Y4309414D01*
X4796891Y4297476D01*
X4792014Y4284726D01*
X4788814Y4271467D01*
X4787493Y4257903D01*
X4787950Y4244289D01*
X4790186Y4230827D01*
X4794250Y4217822D01*
X4799990Y4205427D01*
X4807305Y4193946D01*
X4816094Y4183532D01*
X4826254Y4174388D01*
X4837480Y4166666D01*
X4849622Y4160520D01*
X4862525Y4156049D01*
X4876546Y4153204D01*
X4880051Y4151782D01*
X4882743Y4149191D01*
X4884369Y4145787D01*
X4884521Y4141317D01*
X4883607Y4138117D01*
X4881626Y4135323D01*
X4627880Y3881577D01*
X4618939Y3871417D01*
X4611624Y3860444D01*
X4605782Y3848608D01*
X4601565Y3836111D01*
X4598974Y3823157D01*
X4598060Y3809644D01*
X4598060Y3538524D01*
X4597298Y3534613D01*
X4595114Y3531311D01*
X4375200Y3311398D01*
X4371492Y3309061D01*
X4367225Y3308451D01*
X4363059Y3309721D01*
X4359757Y3312617D01*
X4358030Y3316630D01*
X4355541Y3329076D01*
X4351172Y3342030D01*
X4345076Y3354324D01*
X4337507Y3365703D01*
X4328464Y3375964D01*
X4318203Y3385007D01*
X4306824Y3392627D01*
X4294530Y3398672D01*
X4281576Y3403041D01*
X4268165Y3405733D01*
X4254500Y3406597D01*
X4240834Y3405733D01*
X4227423Y3403041D01*
X4214469Y3398672D01*
X4202176Y3392627D01*
X4190796Y3385007D01*
X4180535Y3375964D01*
X4171492Y3365703D01*
X4163872Y3354324D01*
X4157827Y3342030D01*
X4153408Y3329076D01*
X4150766Y3315665D01*
X4149851Y3302000D01*
X4150766Y3288334D01*
X4153408Y3274923D01*
X4157827Y3261969D01*
X4163872Y3249676D01*
X4171492Y3238296D01*
X4180535Y3228035D01*
X4190796Y3218992D01*
X4202176Y3211372D01*
X4214469Y3205327D01*
X4227423Y3200958D01*
X4239869Y3198469D01*
X4243882Y3196691D01*
X4246778Y3193440D01*
X4248048Y3189274D01*
X4247438Y3184956D01*
X4245102Y3181299D01*
X4203496Y3139744D01*
X4201972Y3138474D01*
X4190796Y3131007D01*
X4180535Y3121964D01*
X4171492Y3111703D01*
X4163872Y3100324D01*
X4157827Y3088030D01*
X4153408Y3075076D01*
X4150766Y3061665D01*
X4149851Y3048000D01*
X4150766Y3034334D01*
X4153408Y3020923D01*
X4157827Y3007969D01*
X4163872Y2995676D01*
X4171492Y2984296D01*
X4180535Y2974035D01*
X4190796Y2964992D01*
X4202176Y2957372D01*
X4214469Y2951327D01*
X4227423Y2946958D01*
X4240834Y2944266D01*
X4254500Y2943352D01*
X4268165Y2944266D01*
X4281576Y2946958D01*
X4294530Y2951327D01*
X4306824Y2957372D01*
X4318203Y2964992D01*
X4328464Y2974035D01*
X4337507Y2984296D01*
X4345025Y2995523D01*
X4346295Y2997098D01*
X4770120Y3420922D01*
X4779010Y3431082D01*
X4786376Y3442055D01*
X4792218Y3453892D01*
X4796434Y3466388D01*
X4799025Y3479342D01*
X4799888Y3492855D01*
X4799888Y3763975D01*
X4800650Y3767886D01*
X4802886Y3771188D01*
X4991811Y3960114D01*
X4995113Y3962298D01*
X4998974Y3963060D01*
X5043779Y3963060D01*
X5047945Y3962196D01*
X5051348Y3959656D01*
X5053431Y3955948D01*
X5053838Y3951732D01*
X5052466Y3947668D01*
X5049570Y3944569D01*
X5045608Y3942943D01*
X5037429Y3941419D01*
X5023053Y3936847D01*
X5009388Y3930548D01*
X4996586Y3922623D01*
X4984800Y3913174D01*
X4974336Y3902354D01*
X4965242Y3890314D01*
X4957724Y3877259D01*
X4951831Y3863390D01*
X4947716Y3848862D01*
X4945380Y3833977D01*
X4944922Y3818940D01*
X4946345Y3803904D01*
X4949545Y3789172D01*
X4954574Y3774998D01*
X4961280Y3761486D01*
X4969611Y3748938D01*
X4979416Y3737457D01*
X4990541Y3727348D01*
X5002834Y3718610D01*
X5016144Y3711498D01*
X5030165Y3706063D01*
X5044795Y3702354D01*
X5059730Y3700526D01*
X5074818Y3700526D01*
X5089804Y3702354D01*
X5104384Y3706063D01*
X5118455Y3711498D01*
X5131714Y3718610D01*
X5144008Y3727348D01*
X5155184Y3737457D01*
X5164988Y3748938D01*
X5173319Y3761486D01*
X5180025Y3774998D01*
X5184698Y3788308D01*
X5186832Y3791813D01*
X5190236Y3794251D01*
X5194300Y3795064D01*
X5198364Y3794251D01*
X5201716Y3791813D01*
X5203850Y3788308D01*
X5208574Y3774998D01*
X5215280Y3761486D01*
X5223611Y3748938D01*
X5233416Y3737457D01*
X5244541Y3727348D01*
X5256834Y3718610D01*
X5270144Y3711498D01*
X5284165Y3706063D01*
X5298795Y3702354D01*
X5313730Y3700526D01*
X5328818Y3700526D01*
X5343804Y3702354D01*
X5358384Y3706063D01*
X5372455Y3711498D01*
X5385714Y3718610D01*
X5398008Y3727348D01*
X5409184Y3737457D01*
X5418988Y3748938D01*
X5427319Y3761486D01*
X5434025Y3774998D01*
X5438698Y3788308D01*
X5440832Y3791813D01*
X5444236Y3794251D01*
X5448300Y3795064D01*
X5452364Y3794251D01*
X5455716Y3791813D01*
X5457850Y3788308D01*
X5462574Y3774998D01*
X5469280Y3761486D01*
X5477611Y3748938D01*
X5487416Y3737457D01*
X5498541Y3727348D01*
X5510834Y3718610D01*
X5524144Y3711498D01*
X5538165Y3706063D01*
X5552795Y3702354D01*
X5567730Y3700526D01*
X5582818Y3700526D01*
X5597804Y3702354D01*
X5612384Y3706063D01*
X5626455Y3711498D01*
X5639714Y3718610D01*
X5652008Y3727348D01*
X5663184Y3737457D01*
X5672988Y3748938D01*
X5681319Y3761486D01*
X5688025Y3774998D01*
X5692698Y3788308D01*
X5694832Y3791813D01*
X5698236Y3794251D01*
X5702300Y3795064D01*
X5706364Y3794251D01*
X5709716Y3791813D01*
X5711850Y3788308D01*
X5716574Y3774998D01*
X5723280Y3761486D01*
X5731611Y3748938D01*
X5741416Y3737457D01*
X5752541Y3727348D01*
X5764834Y3718610D01*
X5778144Y3711498D01*
X5792165Y3706063D01*
X5806795Y3702354D01*
X5821730Y3700526D01*
X5836818Y3700526D01*
X5851804Y3702354D01*
X5866384Y3706063D01*
X5880455Y3711498D01*
X5893714Y3718610D01*
X5904534Y3726230D01*
X5908446Y3727958D01*
X5912713Y3727856D01*
X5916574Y3725976D01*
X5919368Y3722725D01*
X5920536Y3718610D01*
X5919876Y3714394D01*
X5917590Y3710787D01*
X5104688Y2897886D01*
X5101386Y2895650D01*
X5097475Y2894888D01*
X4283354Y2894888D01*
X4281373Y2895092D01*
X4268165Y2897733D01*
X4254500Y2898597D01*
X4240834Y2897733D01*
X4227423Y2895041D01*
X4214469Y2890672D01*
X4202176Y2884627D01*
X4190796Y2877007D01*
X4180535Y2867964D01*
X4171492Y2857703D01*
X4163872Y2846324D01*
X4157827Y2834030D01*
X4153408Y2821076D01*
X4150766Y2807665D01*
X4149851Y2794000D01*
X4150766Y2780334D01*
X4153408Y2766923D01*
X4157827Y2753969D01*
X4163872Y2741676D01*
X4171492Y2730296D01*
X4180535Y2720035D01*
X4190796Y2710992D01*
X4202176Y2703372D01*
X4214469Y2697327D01*
X4227423Y2692958D01*
X4240834Y2690266D01*
G37*
G36*
X1139596Y2691942D02*
G01*
X1153210Y2692400D01*
X1166672Y2694686D01*
X1179677Y2698750D01*
X1192072Y2704490D01*
X1203553Y2711805D01*
X1213967Y2720594D01*
X1223111Y2730703D01*
X1230833Y2741980D01*
X1236980Y2754122D01*
X1241450Y2767025D01*
X1244193Y2780385D01*
X1245057Y2794000D01*
X1244193Y2807614D01*
X1241450Y2820974D01*
X1236980Y2833827D01*
X1230833Y2846019D01*
X1223111Y2857246D01*
X1213967Y2867355D01*
X1203553Y2876194D01*
X1192072Y2883509D01*
X1179677Y2889250D01*
X1166672Y2893314D01*
X1153210Y2895549D01*
X1139596Y2896006D01*
X1126032Y2894634D01*
X1112774Y2891485D01*
X1100023Y2886608D01*
X1088085Y2880055D01*
X1077061Y2871927D01*
X1067308Y2862478D01*
X1058824Y2851759D01*
X1051864Y2840024D01*
X1046581Y2827477D01*
X1042974Y2814320D01*
X1041146Y2800807D01*
X1041146Y2787192D01*
X1042974Y2773680D01*
X1046581Y2760522D01*
X1051864Y2747975D01*
X1058824Y2736240D01*
X1067308Y2725521D01*
X1077061Y2716022D01*
X1088085Y2707944D01*
X1100023Y2701391D01*
X1112774Y2696514D01*
X1126032Y2693314D01*
G37*
G36*
X3425596Y2691942D02*
G01*
X3439210Y2692400D01*
X3452672Y2694686D01*
X3465677Y2698750D01*
X3478072Y2704490D01*
X3489553Y2711805D01*
X3499967Y2720594D01*
X3509111Y2730703D01*
X3516833Y2741980D01*
X3522979Y2754122D01*
X3527450Y2767025D01*
X3530193Y2780385D01*
X3531057Y2794000D01*
X3530193Y2807614D01*
X3527450Y2820974D01*
X3522979Y2833827D01*
X3516833Y2846019D01*
X3509111Y2857246D01*
X3499967Y2867355D01*
X3489553Y2876194D01*
X3478072Y2883509D01*
X3465677Y2889250D01*
X3452672Y2893314D01*
X3439210Y2895549D01*
X3425596Y2896006D01*
X3412032Y2894634D01*
X3398774Y2891485D01*
X3386023Y2886608D01*
X3374085Y2880055D01*
X3363061Y2871927D01*
X3353308Y2862478D01*
X3344824Y2851759D01*
X3337864Y2840024D01*
X3332581Y2827477D01*
X3328974Y2814320D01*
X3327146Y2800807D01*
X3327146Y2787192D01*
X3328974Y2773680D01*
X3332581Y2760522D01*
X3337864Y2747975D01*
X3344824Y2736240D01*
X3353308Y2725521D01*
X3363061Y2716022D01*
X3374085Y2707944D01*
X3386023Y2701391D01*
X3398774Y2696514D01*
X3412032Y2693314D01*
G37*
G36*
X8756142Y3200146D02*
G01*
X8769807Y3200146D01*
X8783320Y3201974D01*
X8796477Y3205581D01*
X8809024Y3210864D01*
X8820759Y3217824D01*
X8831478Y3226308D01*
X8840927Y3236061D01*
X8849055Y3247085D01*
X8855608Y3259023D01*
X8860485Y3271774D01*
X8863634Y3285032D01*
X8865006Y3298596D01*
X8864549Y3312210D01*
X8862314Y3325672D01*
X8858250Y3338677D01*
X8852509Y3351072D01*
X8845194Y3362553D01*
X8836355Y3372967D01*
X8826246Y3382111D01*
X8815019Y3389833D01*
X8802827Y3395979D01*
X8789974Y3400450D01*
X8776614Y3403193D01*
X8763000Y3404057D01*
X8749385Y3403193D01*
X8736025Y3400450D01*
X8723122Y3395979D01*
X8710980Y3389833D01*
X8699703Y3382111D01*
X8689594Y3372967D01*
X8680805Y3362553D01*
X8673439Y3351072D01*
X8667699Y3338677D01*
X8663686Y3325672D01*
X8661400Y3312210D01*
X8660942Y3298596D01*
X8662314Y3285032D01*
X8665464Y3271774D01*
X8670391Y3259023D01*
X8676944Y3247085D01*
X8685022Y3236061D01*
X8694521Y3226308D01*
X8705189Y3217824D01*
X8716924Y3210864D01*
X8729522Y3205581D01*
X8742629Y3201974D01*
G37*
G36*
X6667500Y2943352D02*
G01*
X6681165Y2944266D01*
X6694576Y2946958D01*
X6707530Y2951327D01*
X6719824Y2957372D01*
X6731203Y2964992D01*
X6741464Y2974035D01*
X6750507Y2984296D01*
X6758076Y2995676D01*
X6764172Y3007969D01*
X6768541Y3020923D01*
X6771233Y3034334D01*
X6772097Y3048000D01*
X6771233Y3061665D01*
X6768541Y3075076D01*
X6764172Y3088030D01*
X6758076Y3100324D01*
X6750507Y3111703D01*
X6741464Y3121964D01*
X6731203Y3131007D01*
X6719824Y3138627D01*
X6707530Y3144672D01*
X6694576Y3149041D01*
X6681165Y3151733D01*
X6667500Y3152597D01*
X6653834Y3151733D01*
X6640423Y3149041D01*
X6627469Y3144672D01*
X6615175Y3138627D01*
X6603796Y3131007D01*
X6593484Y3121964D01*
X6584492Y3111703D01*
X6576872Y3100324D01*
X6570827Y3088030D01*
X6566408Y3075076D01*
X6563766Y3061665D01*
X6562852Y3048000D01*
X6563766Y3034334D01*
X6566408Y3020923D01*
X6570827Y3007969D01*
X6576872Y2995676D01*
X6584492Y2984296D01*
X6593484Y2974035D01*
X6603796Y2964992D01*
X6615175Y2957372D01*
X6627469Y2951327D01*
X6640423Y2946958D01*
X6653834Y2944266D01*
G37*
G36*
X7486142Y3200146D02*
G01*
X7499807Y3200146D01*
X7513320Y3201974D01*
X7526477Y3205581D01*
X7539024Y3210864D01*
X7550759Y3217824D01*
X7561478Y3226308D01*
X7570927Y3236061D01*
X7579055Y3247085D01*
X7585608Y3259023D01*
X7590485Y3271774D01*
X7593634Y3285032D01*
X7595006Y3298596D01*
X7594549Y3312210D01*
X7592314Y3325672D01*
X7588250Y3338677D01*
X7582509Y3351072D01*
X7575194Y3362553D01*
X7566355Y3372967D01*
X7556246Y3382111D01*
X7545019Y3389833D01*
X7532827Y3395979D01*
X7519974Y3400450D01*
X7506614Y3403193D01*
X7493000Y3404057D01*
X7479385Y3403193D01*
X7466025Y3400450D01*
X7453122Y3395979D01*
X7440980Y3389833D01*
X7429703Y3382111D01*
X7419594Y3372967D01*
X7410805Y3362553D01*
X7403439Y3351072D01*
X7397699Y3338677D01*
X7393686Y3325672D01*
X7391400Y3312210D01*
X7390942Y3298596D01*
X7392314Y3285032D01*
X7395464Y3271774D01*
X7400391Y3259023D01*
X7406944Y3247085D01*
X7415022Y3236061D01*
X7424521Y3226308D01*
X7435189Y3217824D01*
X7446924Y3210864D01*
X7459522Y3205581D01*
X7472629Y3201974D01*
G37*
G36*
X1139596Y2945942D02*
G01*
X1153210Y2946400D01*
X1166672Y2948686D01*
X1179677Y2952750D01*
X1192072Y2958490D01*
X1203553Y2965805D01*
X1213967Y2974594D01*
X1223111Y2984703D01*
X1230833Y2995980D01*
X1236980Y3008122D01*
X1241450Y3021025D01*
X1244193Y3034385D01*
X1245057Y3048000D01*
X1244193Y3061614D01*
X1241450Y3074974D01*
X1236980Y3087827D01*
X1230833Y3100019D01*
X1223111Y3111246D01*
X1213967Y3121355D01*
X1203553Y3130194D01*
X1192072Y3137509D01*
X1179677Y3143250D01*
X1166672Y3147314D01*
X1153210Y3149549D01*
X1139596Y3150006D01*
X1126032Y3148634D01*
X1112774Y3145485D01*
X1100023Y3140608D01*
X1088085Y3134055D01*
X1077061Y3125927D01*
X1067308Y3116478D01*
X1058824Y3105759D01*
X1051864Y3094024D01*
X1046581Y3081477D01*
X1042974Y3068320D01*
X1041146Y3054807D01*
X1041146Y3041192D01*
X1042974Y3027680D01*
X1046581Y3014522D01*
X1051864Y3001975D01*
X1058824Y2990240D01*
X1067308Y2979521D01*
X1077061Y2970022D01*
X1088085Y2961944D01*
X1100023Y2955391D01*
X1112774Y2950514D01*
X1126032Y2947314D01*
G37*
G36*
X3425596Y2945942D02*
G01*
X3439210Y2946400D01*
X3452672Y2948686D01*
X3465677Y2952750D01*
X3478072Y2958490D01*
X3489553Y2965805D01*
X3499967Y2974594D01*
X3509111Y2984703D01*
X3516833Y2995980D01*
X3522979Y3008122D01*
X3527450Y3021025D01*
X3530193Y3034385D01*
X3531057Y3048000D01*
X3530193Y3061614D01*
X3527450Y3074974D01*
X3522979Y3087827D01*
X3516833Y3100019D01*
X3509111Y3111246D01*
X3499967Y3121355D01*
X3489553Y3130194D01*
X3478072Y3137509D01*
X3465677Y3143250D01*
X3452672Y3147314D01*
X3439210Y3149549D01*
X3425596Y3150006D01*
X3412032Y3148634D01*
X3398774Y3145485D01*
X3386023Y3140608D01*
X3374085Y3134055D01*
X3363061Y3125927D01*
X3353308Y3116478D01*
X3344824Y3105759D01*
X3337864Y3094024D01*
X3332581Y3081477D01*
X3328974Y3068320D01*
X3327146Y3054807D01*
X3327146Y3041192D01*
X3328974Y3027680D01*
X3332581Y3014522D01*
X3337864Y3001975D01*
X3344824Y2990240D01*
X3353308Y2979521D01*
X3363061Y2970022D01*
X3374085Y2961944D01*
X3386023Y2955391D01*
X3398774Y2950514D01*
X3412032Y2947314D01*
G37*
G36*
X6667500Y3197352D02*
G01*
X6681165Y3198266D01*
X6694576Y3200958D01*
X6707530Y3205327D01*
X6719824Y3211372D01*
X6731203Y3218992D01*
X6741464Y3228035D01*
X6750507Y3238296D01*
X6758076Y3249676D01*
X6764172Y3261969D01*
X6768541Y3274923D01*
X6771233Y3288334D01*
X6772097Y3302000D01*
X6771233Y3315665D01*
X6768541Y3329076D01*
X6764172Y3342030D01*
X6758076Y3354324D01*
X6750507Y3365703D01*
X6741464Y3375964D01*
X6731203Y3385007D01*
X6719824Y3392627D01*
X6707530Y3398672D01*
X6694576Y3403041D01*
X6681165Y3405733D01*
X6667500Y3406597D01*
X6653834Y3405733D01*
X6640423Y3403041D01*
X6627469Y3398672D01*
X6615175Y3392627D01*
X6603796Y3385007D01*
X6593484Y3375964D01*
X6584492Y3365703D01*
X6576872Y3354324D01*
X6570827Y3342030D01*
X6566408Y3329076D01*
X6563766Y3315665D01*
X6562852Y3302000D01*
X6563766Y3288334D01*
X6566408Y3274923D01*
X6570827Y3261969D01*
X6576872Y3249676D01*
X6584492Y3238296D01*
X6593484Y3228035D01*
X6603796Y3218992D01*
X6615175Y3211372D01*
X6627469Y3205327D01*
X6640423Y3200958D01*
X6653834Y3198266D01*
G37*
G36*
X1139596Y3199942D02*
G01*
X1153210Y3200400D01*
X1166672Y3202686D01*
X1179677Y3206750D01*
X1192072Y3212490D01*
X1203553Y3219805D01*
X1213967Y3228594D01*
X1223111Y3238703D01*
X1230833Y3249980D01*
X1236980Y3262122D01*
X1241450Y3275025D01*
X1244193Y3288385D01*
X1245057Y3302000D01*
X1244193Y3315614D01*
X1241450Y3328974D01*
X1236980Y3341827D01*
X1230833Y3354019D01*
X1223111Y3365246D01*
X1213967Y3375355D01*
X1203553Y3384194D01*
X1192072Y3391509D01*
X1179677Y3397250D01*
X1166672Y3401314D01*
X1153210Y3403549D01*
X1139596Y3404006D01*
X1126032Y3402634D01*
X1112774Y3399485D01*
X1100023Y3394608D01*
X1088085Y3388055D01*
X1077061Y3379927D01*
X1067308Y3370478D01*
X1058824Y3359759D01*
X1051864Y3348024D01*
X1046581Y3335477D01*
X1042974Y3322320D01*
X1041146Y3308807D01*
X1041146Y3295192D01*
X1042974Y3281679D01*
X1046581Y3268522D01*
X1051864Y3255975D01*
X1058824Y3244240D01*
X1067308Y3233521D01*
X1077061Y3224022D01*
X1088085Y3215944D01*
X1100023Y3209391D01*
X1112774Y3204514D01*
X1126032Y3201314D01*
G37*
G36*
X3425596Y3199942D02*
G01*
X3439210Y3200400D01*
X3452672Y3202686D01*
X3465677Y3206750D01*
X3478072Y3212490D01*
X3489553Y3219805D01*
X3499967Y3228594D01*
X3509111Y3238703D01*
X3516833Y3249980D01*
X3522979Y3262122D01*
X3527450Y3275025D01*
X3530193Y3288385D01*
X3531057Y3302000D01*
X3530193Y3315614D01*
X3527450Y3328974D01*
X3522979Y3341827D01*
X3516833Y3354019D01*
X3509111Y3365246D01*
X3499967Y3375355D01*
X3489553Y3384194D01*
X3478072Y3391509D01*
X3465677Y3397250D01*
X3452672Y3401314D01*
X3439210Y3403549D01*
X3425596Y3404006D01*
X3412032Y3402634D01*
X3398774Y3399485D01*
X3386023Y3394608D01*
X3374085Y3388055D01*
X3363061Y3379927D01*
X3353308Y3370478D01*
X3344824Y3359759D01*
X3337864Y3348024D01*
X3332581Y3335477D01*
X3328974Y3322320D01*
X3327146Y3308807D01*
X3327146Y3295192D01*
X3328974Y3281679D01*
X3332581Y3268522D01*
X3337864Y3255975D01*
X3344824Y3244240D01*
X3353308Y3233521D01*
X3363061Y3224022D01*
X3374085Y3215944D01*
X3386023Y3209391D01*
X3398774Y3204514D01*
X3412032Y3201314D01*
G37*
G36*
X8248142Y3200146D02*
G01*
X8261807Y3200146D01*
X8275320Y3201974D01*
X8288477Y3205581D01*
X8301024Y3210864D01*
X8312759Y3217824D01*
X8323478Y3226308D01*
X8332927Y3236061D01*
X8341055Y3247085D01*
X8347608Y3259023D01*
X8352485Y3271774D01*
X8355634Y3285032D01*
X8357006Y3298596D01*
X8356549Y3312210D01*
X8354314Y3325672D01*
X8350250Y3338677D01*
X8344509Y3351072D01*
X8337194Y3362553D01*
X8328355Y3372967D01*
X8318246Y3382111D01*
X8307019Y3389833D01*
X8294827Y3395979D01*
X8281974Y3400450D01*
X8268614Y3403193D01*
X8255000Y3404057D01*
X8241385Y3403193D01*
X8228025Y3400450D01*
X8215122Y3395979D01*
X8202980Y3389833D01*
X8191703Y3382111D01*
X8181594Y3372967D01*
X8172805Y3362553D01*
X8165439Y3351072D01*
X8159699Y3338677D01*
X8155686Y3325672D01*
X8153400Y3312210D01*
X8152942Y3298596D01*
X8154314Y3285032D01*
X8157464Y3271774D01*
X8162391Y3259023D01*
X8168944Y3247085D01*
X8177022Y3236061D01*
X8186521Y3226308D01*
X8197189Y3217824D01*
X8208924Y3210864D01*
X8221522Y3205581D01*
X8234629Y3201974D01*
G37*
G36*
X7232142Y3200146D02*
G01*
X7245807Y3200146D01*
X7259320Y3201974D01*
X7272477Y3205581D01*
X7285024Y3210864D01*
X7296759Y3217824D01*
X7307478Y3226308D01*
X7316927Y3236061D01*
X7325055Y3247085D01*
X7331608Y3259023D01*
X7336485Y3271774D01*
X7339634Y3285032D01*
X7341006Y3298596D01*
X7340549Y3312210D01*
X7338314Y3325672D01*
X7334250Y3338677D01*
X7328509Y3351072D01*
X7321194Y3362553D01*
X7312355Y3372967D01*
X7302246Y3382111D01*
X7291019Y3389833D01*
X7278827Y3395979D01*
X7265974Y3400450D01*
X7252614Y3403193D01*
X7239000Y3404057D01*
X7225385Y3403193D01*
X7212025Y3400450D01*
X7199122Y3395979D01*
X7186980Y3389833D01*
X7175703Y3382111D01*
X7165594Y3372967D01*
X7156805Y3362553D01*
X7149439Y3351072D01*
X7143699Y3338677D01*
X7139686Y3325672D01*
X7137400Y3312210D01*
X7136942Y3298596D01*
X7138314Y3285032D01*
X7141464Y3271774D01*
X7146391Y3259023D01*
X7152944Y3247085D01*
X7161022Y3236061D01*
X7170521Y3226308D01*
X7181189Y3217824D01*
X7192924Y3210864D01*
X7205522Y3205581D01*
X7218629Y3201974D01*
G37*
G36*
X8502142Y3200146D02*
G01*
X8515807Y3200146D01*
X8529320Y3201974D01*
X8542477Y3205581D01*
X8555024Y3210864D01*
X8566759Y3217824D01*
X8577478Y3226308D01*
X8586927Y3236061D01*
X8595055Y3247085D01*
X8601608Y3259023D01*
X8606485Y3271774D01*
X8609634Y3285032D01*
X8611006Y3298596D01*
X8610549Y3312210D01*
X8608314Y3325672D01*
X8604250Y3338677D01*
X8598509Y3351072D01*
X8591194Y3362553D01*
X8582355Y3372967D01*
X8572246Y3382111D01*
X8561019Y3389833D01*
X8548827Y3395979D01*
X8535974Y3400450D01*
X8522614Y3403193D01*
X8509000Y3404057D01*
X8495385Y3403193D01*
X8482025Y3400450D01*
X8469122Y3395979D01*
X8456980Y3389833D01*
X8445703Y3382111D01*
X8435594Y3372967D01*
X8426805Y3362553D01*
X8419439Y3351072D01*
X8413699Y3338677D01*
X8409686Y3325672D01*
X8407400Y3312210D01*
X8406942Y3298596D01*
X8408314Y3285032D01*
X8411464Y3271774D01*
X8416391Y3259023D01*
X8422944Y3247085D01*
X8431022Y3236061D01*
X8440521Y3226308D01*
X8451189Y3217824D01*
X8462924Y3210864D01*
X8475522Y3205581D01*
X8488629Y3201974D01*
G37*
G36*
X7994142Y3200146D02*
G01*
X8007807Y3200146D01*
X8021320Y3201974D01*
X8034477Y3205581D01*
X8047024Y3210864D01*
X8058759Y3217824D01*
X8069478Y3226308D01*
X8078927Y3236061D01*
X8087055Y3247085D01*
X8093608Y3259023D01*
X8098485Y3271774D01*
X8101634Y3285032D01*
X8103006Y3298596D01*
X8102549Y3312210D01*
X8100314Y3325672D01*
X8096250Y3338677D01*
X8090509Y3351072D01*
X8083194Y3362553D01*
X8074355Y3372967D01*
X8064246Y3382111D01*
X8053019Y3389833D01*
X8040827Y3395979D01*
X8027974Y3400450D01*
X8014614Y3403193D01*
X8001000Y3404057D01*
X7987385Y3403193D01*
X7974025Y3400450D01*
X7961122Y3395979D01*
X7948980Y3389833D01*
X7937703Y3382111D01*
X7927594Y3372967D01*
X7918805Y3362553D01*
X7911439Y3351072D01*
X7905699Y3338677D01*
X7901686Y3325672D01*
X7899400Y3312210D01*
X7898942Y3298596D01*
X7900314Y3285032D01*
X7903464Y3271774D01*
X7908391Y3259023D01*
X7914944Y3247085D01*
X7923022Y3236061D01*
X7932521Y3226308D01*
X7943189Y3217824D01*
X7954924Y3210864D01*
X7967522Y3205581D01*
X7980629Y3201974D01*
G37*
G36*
X4703724Y2099310D02*
G01*
X4758690Y2099310D01*
X4758690Y2154072D01*
X4755388Y2152548D01*
X4742586Y2144623D01*
X4730800Y2135174D01*
X4720336Y2124354D01*
X4711242Y2112314D01*
G37*

%LPD*%
D10*
X4889487Y5524487D02*
G01*
X4889487Y5206982D01*
X4254487Y4571987D01*
X4254487Y4254494D01*
X3809987Y3809994D01*
X3809987Y2032000D01*
X4000487Y1841500D01*
X5397500Y1841500D01*
X4635482Y5524487D02*
G01*
X4635482Y5079979D01*
X4190992Y4635489D01*
X4190992Y4317992D01*
X3746492Y3873492D01*
X3746492Y2031997D01*
X4000492Y1777997D01*
X5333989Y1777997D01*
D11*
X5651482Y4254487D02*
G01*
X5841987Y4063992D01*
X5968987Y4063992D01*
X6095987Y3936992D01*
X6095987Y3746492D01*
X5143489Y2793994D01*
X4254489Y2793994D01*
X5397482Y4254487D02*
G01*
X5206987Y4063992D01*
X4952989Y4063992D01*
X4698989Y3809992D01*
X4698989Y3492505D01*
X4254484Y3048000D01*
D10*
X5829300Y2044700D02*
G01*
X5791200Y2044700D01*
X5651487Y1904994D01*
X5651487Y1523994D01*
X5841987Y1333500D01*
X7365987Y1333500D01*
X7493000Y1460512D01*
X7493000Y1714500D01*
X7747000Y1714500D02*
G01*
X7747000Y1333512D01*
X7683487Y1270000D01*
X5778487Y1270000D01*
X5587987Y1460500D01*
X5587987Y2032012D01*
X5575300Y2044700D01*
X7873984Y5206989D02*
G01*
X8064484Y5397489D01*
X8191482Y5397489D01*
X8509000Y1714500D02*
G01*
X8509000Y1270012D01*
X8445487Y1206500D01*
X5461000Y1206500D01*
X5143500Y1524000D01*
X8763000Y1714500D02*
G01*
X8763000Y1270012D01*
X8635987Y1143000D01*
X5270500Y1143000D01*
X5143500Y1270000D01*
D11*
X6667500Y2540000D02*
G01*
X7238987Y2540000D01*
X7747000Y3048012D01*
X7747000Y3302000D01*
D10*
X6413500Y508000D02*
G01*
X6032487Y508000D01*
X5969000Y444512D01*
X5969000Y190500D01*
D12*
G01*
X6667487Y2539994D03*
D13*
G01*
X6667500Y2794000D03*
G01*
X6667500Y3048000D03*
G01*
X6667500Y3302000D03*
D12*
G01*
X4254492Y2539994D03*
D13*
G01*
X4254474Y2794000D03*
G01*
X4254474Y3048000D03*
G01*
X4254474Y3302000D03*
D14*
G01*
X381000Y5588000D03*
D15*
G01*
X152400Y5588000D03*
G01*
X215900Y5740400D03*
G01*
X381000Y5816600D03*
G01*
X609600Y5588000D03*
G01*
X546100Y5753100D03*
G01*
X533400Y5422900D03*
G01*
X381000Y5359400D03*
G01*
X215900Y5435600D03*
D14*
G01*
X10541000Y5588000D03*
D15*
G01*
X10312400Y5588000D03*
G01*
X10375900Y5740400D03*
G01*
X10541000Y5816600D03*
G01*
X10769600Y5588000D03*
G01*
X10706100Y5753100D03*
G01*
X10693400Y5422900D03*
G01*
X10541000Y5359400D03*
G01*
X10375900Y5435600D03*
D14*
G01*
X10541000Y381000D03*
D15*
G01*
X10312400Y381000D03*
G01*
X10375900Y533400D03*
G01*
X10541000Y609600D03*
G01*
X10769600Y381000D03*
G01*
X10706100Y546100D03*
G01*
X10693400Y215900D03*
G01*
X10541000Y152400D03*
G01*
X10375900Y228600D03*
D14*
G01*
X381000Y381000D03*
D15*
G01*
X152400Y381000D03*
G01*
X215900Y533400D03*
G01*
X381000Y609600D03*
G01*
X609600Y381000D03*
G01*
X546100Y546100D03*
G01*
X533400Y215900D03*
G01*
X381000Y152400D03*
G01*
X215900Y228600D03*
D16*
G01*
X5905500Y4254500D03*
G01*
X6159500Y4254500D03*
G01*
X6413500Y4254500D03*
G01*
X5651500Y4254500D03*
G01*
X5397500Y4254500D03*
G01*
X5143500Y4254500D03*
G01*
X4889500Y4254500D03*
G01*
X4635500Y4254500D03*
G01*
X4635500Y5524500D03*
G01*
X4889500Y5524500D03*
G01*
X5143500Y5524500D03*
G01*
X5397500Y5524500D03*
G01*
X5651500Y5524500D03*
G01*
X5905500Y5524500D03*
G01*
X6159500Y5524500D03*
G01*
X6413500Y5524500D03*
D17*
G01*
X9647986Y5397500D03*
G01*
X9147987Y5397500D03*
D13*
G01*
X7175474Y5524500D03*
G01*
X7429474Y5524500D03*
D18*
G01*
X7683474Y5524500D03*
D19*
G01*
X8191474Y5397500D03*
G01*
X8445474Y5397500D03*
D16*
G01*
X4000500Y4508500D03*
G01*
X4000500Y4762500D03*
D20*
G01*
X10413974Y3894480D03*
G01*
X10413974Y4614494D03*
D21*
G01*
X7873974Y4445000D03*
G01*
X7873974Y5207000D03*
D16*
G01*
X7048474Y4191000D03*
G01*
X7048474Y4445000D03*
G01*
X7937474Y4000500D03*
G01*
X7937474Y3746500D03*
D22*
G01*
X5143500Y254000D03*
G01*
X5143500Y508000D03*
G01*
X5143500Y762000D03*
G01*
X5143500Y1016000D03*
G01*
X5143500Y1270000D03*
G01*
X5143500Y1524000D03*
G01*
X4127500Y254000D03*
G01*
X4127500Y508000D03*
G01*
X4127500Y762000D03*
G01*
X4127500Y1016000D03*
G01*
X4127500Y1270000D03*
D23*
G01*
X4127500Y1524000D03*
D21*
G01*
X5969000Y1714500D03*
G01*
X6223000Y1714500D03*
G01*
X6477000Y1714500D03*
G01*
X6731000Y1714500D03*
G01*
X6985000Y1714500D03*
G01*
X7239000Y1714500D03*
G01*
X7493000Y1714500D03*
G01*
X7747000Y1714500D03*
G01*
X8001000Y1714500D03*
G01*
X8255000Y1714500D03*
G01*
X8509000Y1714500D03*
G01*
X8763000Y1714500D03*
G01*
X8763000Y190500D03*
G01*
X8509000Y190500D03*
G01*
X8255000Y190500D03*
G01*
X8001000Y190500D03*
G01*
X7747000Y190500D03*
G01*
X7493000Y190500D03*
G01*
X7239000Y190500D03*
G01*
X6985000Y190500D03*
G01*
X6731000Y190500D03*
G01*
X6477000Y190500D03*
G01*
X6223000Y190500D03*
G01*
X5969000Y190500D03*
D16*
G01*
X7747000Y3302000D03*
G01*
X7493000Y3302000D03*
G01*
X7239000Y3302000D03*
G01*
X8001000Y3302000D03*
G01*
X8255000Y3302000D03*
G01*
X8509000Y3302000D03*
G01*
X8763000Y3302000D03*
G01*
X9017000Y3302000D03*
G01*
X9017000Y2032000D03*
G01*
X8763000Y2032000D03*
G01*
X8509000Y2032000D03*
G01*
X8255000Y2032000D03*
G01*
X8001000Y2032000D03*
G01*
X7747000Y2032000D03*
G01*
X7493000Y2032000D03*
G01*
X7239000Y2032000D03*
D24*
G01*
X4813300Y2044700D03*
G01*
X5067300Y2044700D03*
G01*
X5321300Y2044700D03*
G01*
X5575300Y2044700D03*
G01*
X5829300Y2044700D03*
G01*
X6083300Y2044700D03*
G01*
X5067300Y3822700D03*
G01*
X5321300Y3822700D03*
G01*
X5575300Y3822700D03*
G01*
X5829300Y3822700D03*
D25*
G01*
X8889974Y4698974D03*
G01*
X8635974Y4698974D03*
D26*
G01*
X9143982Y4698989D03*
D16*
G01*
X1143000Y253974D03*
G01*
X1143000Y507974D03*
G01*
X1143000Y761974D03*
G01*
X1143000Y1015974D03*
G01*
X1143000Y1269974D03*
G01*
X1143000Y1523974D03*
G01*
X1143000Y1777974D03*
G01*
X1143000Y2031974D03*
G01*
X1143000Y2285974D03*
G01*
X1143000Y2539974D03*
G01*
X1143000Y2793974D03*
G01*
X1143000Y3047974D03*
G01*
X1143000Y3301974D03*
G01*
X1143000Y3555974D03*
G01*
X1143000Y3809974D03*
G01*
X1143000Y4063974D03*
G01*
X1143000Y4317974D03*
G01*
X1143000Y4571974D03*
G01*
X1143000Y4825974D03*
G01*
X3429000Y253974D03*
G01*
X3429000Y507974D03*
G01*
X3429000Y761974D03*
G01*
X3429000Y1015974D03*
G01*
X3429000Y1269974D03*
G01*
X3429000Y1523974D03*
G01*
X3429000Y1777974D03*
G01*
X3429000Y2031974D03*
G01*
X3429000Y2285974D03*
G01*
X3429000Y2539974D03*
G01*
X3429000Y2793974D03*
G01*
X3429000Y3047974D03*
G01*
X3429000Y3301974D03*
G01*
X3429000Y3555974D03*
G01*
X3429000Y3809974D03*
G01*
X3429000Y4063974D03*
G01*
X3429000Y4317974D03*
G01*
X3429000Y4571974D03*
G01*
X3429000Y4825974D03*
D20*
G01*
X10413974Y1989505D03*
G01*
X10413974Y2709519D03*
D27*
G01*
X6413500Y508000D03*
G01*
X5397500Y1841500D03*
G01*
X5334000Y1778000D03*
M02*
