G04 Layer: BottomSolderMaskLayer*
G04 EasyEDA v6.5.22, 2024-01-02 20:54:04*
G04 984ccde9b92444d3820f456cd2862b94,da3b0543d5484e77bd98afd5aefff037,10*
G04 Gerber Generator version 0.2*
G04 Scale: 100 percent, Rotated: No, Reflected: No *
G04 Dimensions in millimeters *
G04 leading zeros omitted , absolute positions ,4 integer and 5 decimal *
%FSLAX45Y45*%
%MOMM*%

%AMMACRO1*1,1,$1,$2,$3*1,1,$1,$4,$5*1,1,$1,0-$2,0-$3*1,1,$1,0-$4,0-$5*20,1,$1,$2,$3,$4,$5,0*20,1,$1,$4,$5,0-$2,0-$3,0*20,1,$1,0-$2,0-$3,0-$4,0-$5,0*20,1,$1,0-$4,0-$5,$2,$3,0*4,1,4,$2,$3,$4,$5,0-$2,0-$3,0-$4,0-$5,$2,$3,0*%
%ADD10MACRO1,0.1016X0.7874X-0.7874X0.7874X0.7874*%
%ADD11C,1.6764*%
%ADD12C,6.2032*%
%ADD13C,0.9016*%
%ADD14C,1.6256*%
%ADD15C,3.3016*%
%ADD16MACRO1,0.1016X0.7874X-0.7874X-0.7874X-0.7874*%
%ADD17C,1.7526*%
%ADD18C,1.7272*%
%ADD19C,5.6000*%
%ADD20C,1.9812*%
%ADD21C,2.0032*%
%ADD22MACRO1,0.2032X0.9X0.9X0.9X-0.9*%
%ADD23C,2.0320*%
%ADD24O,2.2031959999999997X2.7031949999999996*%
%ADD25MACRO1,0.2032X1.0008X-1.2497X-1.0008X-1.2497*%
%ADD26C,1.6240*%

%LPD*%
D10*
G01*
X6667487Y2539994D03*
D11*
G01*
X6667500Y2794000D03*
G01*
X6667500Y3048000D03*
G01*
X6667500Y3302000D03*
D10*
G01*
X4254492Y2539994D03*
D11*
G01*
X4254474Y2794000D03*
G01*
X4254474Y3048000D03*
G01*
X4254474Y3302000D03*
D12*
G01*
X381000Y5588000D03*
D13*
G01*
X152400Y5588000D03*
G01*
X215900Y5740400D03*
G01*
X381000Y5816600D03*
G01*
X609600Y5588000D03*
G01*
X546100Y5753100D03*
G01*
X533400Y5422900D03*
G01*
X381000Y5359400D03*
G01*
X215900Y5435600D03*
D12*
G01*
X10541000Y5588000D03*
D13*
G01*
X10312400Y5588000D03*
G01*
X10375900Y5740400D03*
G01*
X10541000Y5816600D03*
G01*
X10769600Y5588000D03*
G01*
X10706100Y5753100D03*
G01*
X10693400Y5422900D03*
G01*
X10541000Y5359400D03*
G01*
X10375900Y5435600D03*
D12*
G01*
X10541000Y381000D03*
D13*
G01*
X10312400Y381000D03*
G01*
X10375900Y533400D03*
G01*
X10541000Y609600D03*
G01*
X10769600Y381000D03*
G01*
X10706100Y546100D03*
G01*
X10693400Y215900D03*
G01*
X10541000Y152400D03*
G01*
X10375900Y228600D03*
D12*
G01*
X381000Y381000D03*
D13*
G01*
X152400Y381000D03*
G01*
X215900Y533400D03*
G01*
X381000Y609600D03*
G01*
X609600Y381000D03*
G01*
X546100Y546100D03*
G01*
X533400Y215900D03*
G01*
X381000Y152400D03*
G01*
X215900Y228600D03*
D14*
G01*
X5905500Y4254500D03*
G01*
X6159500Y4254500D03*
G01*
X6413500Y4254500D03*
G01*
X5651500Y4254500D03*
G01*
X5397500Y4254500D03*
G01*
X5143500Y4254500D03*
G01*
X4889500Y4254500D03*
G01*
X4635500Y4254500D03*
G01*
X4635500Y5524500D03*
G01*
X4889500Y5524500D03*
G01*
X5143500Y5524500D03*
G01*
X5397500Y5524500D03*
G01*
X5651500Y5524500D03*
G01*
X5905500Y5524500D03*
G01*
X6159500Y5524500D03*
G01*
X6413500Y5524500D03*
D15*
G01*
X9647986Y5397500D03*
G01*
X9147987Y5397500D03*
D11*
G01*
X7175474Y5524500D03*
G01*
X7429474Y5524500D03*
D16*
G01*
X7683484Y5524489D03*
D17*
G01*
X8191474Y5397500D03*
G01*
X8445474Y5397500D03*
D18*
G01*
X4000500Y4508500D03*
G01*
X4000500Y4762500D03*
D19*
G01*
X10413974Y3894480D03*
G01*
X10413974Y4614494D03*
D20*
G01*
X7873974Y4445000D03*
G01*
X7873974Y5207000D03*
D18*
G01*
X7048474Y4191000D03*
G01*
X7048474Y4445000D03*
G01*
X7937474Y4000500D03*
G01*
X7937474Y3746500D03*
D21*
G01*
X5143500Y254000D03*
G01*
X5143500Y508000D03*
G01*
X5143500Y762000D03*
G01*
X5143500Y1016000D03*
G01*
X5143500Y1270000D03*
G01*
X5143500Y1524000D03*
G01*
X4127500Y254000D03*
G01*
X4127500Y508000D03*
G01*
X4127500Y762000D03*
G01*
X4127500Y1016000D03*
G01*
X4127500Y1270000D03*
D22*
G01*
X4127492Y1523997D03*
D20*
G01*
X5969000Y1714500D03*
G01*
X6223000Y1714500D03*
G01*
X6477000Y1714500D03*
G01*
X6731000Y1714500D03*
G01*
X6985000Y1714500D03*
G01*
X7239000Y1714500D03*
G01*
X7493000Y1714500D03*
G01*
X7747000Y1714500D03*
G01*
X8001000Y1714500D03*
G01*
X8255000Y1714500D03*
G01*
X8509000Y1714500D03*
G01*
X8763000Y1714500D03*
G01*
X8763000Y190500D03*
G01*
X8509000Y190500D03*
G01*
X8255000Y190500D03*
G01*
X8001000Y190500D03*
G01*
X7747000Y190500D03*
G01*
X7493000Y190500D03*
G01*
X7239000Y190500D03*
G01*
X6985000Y190500D03*
G01*
X6731000Y190500D03*
G01*
X6477000Y190500D03*
G01*
X6223000Y190500D03*
G01*
X5969000Y190500D03*
D14*
G01*
X7747000Y3302000D03*
G01*
X7493000Y3302000D03*
G01*
X7239000Y3302000D03*
G01*
X8001000Y3302000D03*
G01*
X8255000Y3302000D03*
G01*
X8509000Y3302000D03*
G01*
X8763000Y3302000D03*
G01*
X9017000Y3302000D03*
G01*
X9017000Y2032000D03*
G01*
X8763000Y2032000D03*
G01*
X8509000Y2032000D03*
G01*
X8255000Y2032000D03*
G01*
X8001000Y2032000D03*
G01*
X7747000Y2032000D03*
G01*
X7493000Y2032000D03*
G01*
X7239000Y2032000D03*
D23*
G01*
X4813300Y2044700D03*
G01*
X5067300Y2044700D03*
G01*
X5321300Y2044700D03*
G01*
X5575300Y2044700D03*
G01*
X5829300Y2044700D03*
G01*
X6083300Y2044700D03*
G01*
X5067300Y3822700D03*
G01*
X5321300Y3822700D03*
G01*
X5575300Y3822700D03*
G01*
X5829300Y3822700D03*
D24*
G01*
X8889974Y4698974D03*
G01*
X8635974Y4698974D03*
D25*
G01*
X9143982Y4698989D03*
D26*
G01*
X1143000Y253974D03*
G01*
X1143000Y507974D03*
G01*
X1143000Y761974D03*
G01*
X1143000Y1015974D03*
G01*
X1143000Y1269974D03*
G01*
X1143000Y1523974D03*
G01*
X1143000Y1777974D03*
G01*
X1143000Y2031974D03*
G01*
X1143000Y2285974D03*
G01*
X1143000Y2539974D03*
G01*
X1143000Y2793974D03*
G01*
X1143000Y3047974D03*
G01*
X1143000Y3301974D03*
G01*
X1143000Y3555974D03*
G01*
X1143000Y3809974D03*
G01*
X1143000Y4063974D03*
G01*
X1143000Y4317974D03*
G01*
X1143000Y4571974D03*
G01*
X1143000Y4825974D03*
G01*
X3429000Y253974D03*
G01*
X3429000Y507974D03*
G01*
X3429000Y761974D03*
G01*
X3429000Y1015974D03*
G01*
X3429000Y1269974D03*
G01*
X3429000Y1523974D03*
G01*
X3429000Y1777974D03*
G01*
X3429000Y2031974D03*
G01*
X3429000Y2285974D03*
G01*
X3429000Y2539974D03*
G01*
X3429000Y2793974D03*
G01*
X3429000Y3047974D03*
G01*
X3429000Y3301974D03*
G01*
X3429000Y3555974D03*
G01*
X3429000Y3809974D03*
G01*
X3429000Y4063974D03*
G01*
X3429000Y4317974D03*
G01*
X3429000Y4571974D03*
G01*
X3429000Y4825974D03*
D19*
G01*
X10413974Y1989505D03*
G01*
X10413974Y2709519D03*
M02*
